<?xml version="1.0" encoding="utf-8"?>
<!-- Generator: Adobe Illustrator 16.0.0, SVG Export Plug-In . SVG Version: 6.00 Build 0)  -->
<!DOCTYPE svg PUBLIC "-//W3C//DTD SVG 1.1//EN" "http://www.w3.org/Graphics/SVG/1.1/DTD/svg11.dtd">
<svg version="1.1" id="Capa_1" xmlns="http://www.w3.org/2000/svg" xmlns:xlink="http://www.w3.org/1999/xlink" x="0px" y="0px"
	 width="511px" height="511px" viewBox="0 0 511 511" enable-background="new 0 0 511 511" xml:space="preserve">
<path fill="#3FBA71" d="M442.039,101.658c-16.296,0-391.113,0-425.324,0c-9.228,0-16.713,7.485-16.713,16.713V408.62
	c0,9.231,7.485,16.714,16.713,16.714h425.324c9.232,0,16.714-7.486,16.714-16.714V118.375
	C458.753,109.144,451.271,101.658,442.039,101.658z"/>
<path fill="#3B9E63" d="M31.405,408.62V118.375c0-9.232,7.481-16.717,16.713-16.717c-15.649,0-26.721,0-31.403,0
	c-9.228,0-16.713,7.485-16.713,16.717V408.62c0,9.231,7.485,16.714,16.713,16.714h31.403
	C38.891,425.334,31.405,417.852,31.405,408.62z"/>
<path fill="#46C67A" d="M239.366,289.696c-5.864,4.604-14.113,4.604-19.977,0l-34.546-27.122L0.002,408.62
	c0,9.231,7.485,16.714,16.713,16.714h425.324c9.229,0,16.714-7.482,16.714-16.714L273.911,262.574L239.366,289.696z"/>
<path fill="#46C67A" d="M16.715,425.334h31.403c-9.232,0-16.713-7.482-16.713-16.714v-24.814L0.002,408.62
	C0.002,417.852,7.487,425.334,16.715,425.334z"/>
<path fill="#42D583" d="M442.039,101.658c-10.159,0-413.203,0-425.324,0c-9.228,0-16.713,7.485-16.713,16.713l219.387,172.246
	c5.863,4.604,14.113,4.604,19.977,0l219.387-172.246C458.753,109.144,451.271,101.658,442.039,101.658z"/>
<path fill="#42D583" d="M31.405,143.026v-24.655c0-9.228,7.481-16.713,16.713-16.713c-15.649,0-26.721,0-31.403,0
	c-3.099,0-5.996,0.862-8.487,2.332c-4.916,2.912-8.226,8.253-8.226,14.382L31.405,143.026z"/>
<path fill="#FF7058" d="M511.002,86.68c0,47.364-38.397,85.766-85.766,85.766c-47.364,0-85.766-38.401-85.766-85.766
	c0-47.368,38.401-85.766,85.766-85.766C472.604,0.914,511.002,39.312,511.002,86.68z"/>
<path fill="#E54A4A" d="M370.316,86.68c0-42.097,30.343-77.087,70.343-84.354c-5.006-0.912-10.152-1.411-15.423-1.411
	c-47.368,0-85.766,38.397-85.766,85.766s38.401,85.766,85.766,85.766c5.271,0,10.417-0.503,15.423-1.411
	C400.659,163.767,370.316,128.777,370.316,86.68z"/>
<path fill="#E4EAF8" d="M425.236,134.267c-4.258,0-7.712-3.454-7.712-7.712V63.323h-1.497c-4.257,0-7.711-3.45-7.711-7.711
	c0-4.257,3.454-7.711,7.711-7.711h9.209c4.257,0,7.711,3.45,7.711,7.711v70.939C432.947,130.813,429.497,134.267,425.236,134.267z"
	/>
</svg>
