<?xml version="1.0" encoding="utf-8"?>
<!-- Generator: Adobe Illustrator 16.0.0, SVG Export Plug-In . SVG Version: 6.00 Build 0)  -->
<!DOCTYPE svg PUBLIC "-//W3C//DTD SVG 1.1//EN" "http://www.w3.org/Graphics/SVG/1.1/DTD/svg11.dtd">
<svg version="1.1" id="Layer_1" xmlns="http://www.w3.org/2000/svg" xmlns:xlink="http://www.w3.org/1999/xlink" x="0px" y="0px"
	 width="2000px" height="2000px" viewBox="0 0 2000 2000" enable-background="new 0 0 2000 2000" xml:space="preserve">
<path fill="#42D583" d="M1998.961,1916.757c0,24.973-8.326,45.786-24.973,62.434c-16.651,12.488-33.299,20.81-58.275,20.81H84.287
	c-20.81,0-41.624-8.325-58.274-20.81c-16.651-16.651-24.973-37.461-24.973-62.434V697.189h1997.92L1998.961,1916.757
	L1998.961,1916.757z"/>
<path fill="#34BF6C" d="M1973.988,1979.19c-16.651,12.488-33.299,20.81-58.275,20.81H84.287c-20.81,0-41.624-8.325-58.274-20.81
	l973.986-836.628L1973.988,1979.19z"/>
<path fill="#33B568" d="M1998.961,697.189l-283.039,203.954l-661.813,474.509c-33.298,24.973-79.084,24.973-112.382,0
	L284.078,901.144L1.04,697.189l283.039-203.954L900.104,52.028l45.786-33.298c33.298-24.973,79.084-24.973,112.382,0l45.786,33.298
	l295.527,212.28l145.68,104.057l170.656,124.871L1998.961,697.189z"/>
<path fill="#F2F2F2" d="M1715.922,310.094v591.049l-661.813,474.509c-33.298,24.973-79.084,24.973-112.382,0L284.078,901.144
	V135.275c0-45.786,37.461-83.247,83.247-83.247h1086.368L1715.922,310.094z"/>
<path fill="#CDD6E0" d="M1457.855,243.499c0,37.46,29.136,66.596,66.596,66.596h191.467L1457.852,52.028L1457.855,243.499
	L1457.855,243.499z"/>
<path fill="#FF7058" d="M1245.58,888.659h66.596c-20.81,45.786-54.111,79.085-99.898,104.057
	c-49.948,29.136-112.382,41.624-187.303,41.624c-70.759,0-133.196-12.488-183.145-37.461
	c-49.949-24.973-91.572-58.274-116.545-108.22c-24.973-45.786-37.461-99.897-37.461-154.005c0-62.434,12.488-116.545,41.623-170.656
	c29.136-54.112,66.597-91.573,116.545-116.545c49.949-24.973,108.22-37.461,170.656-37.461c54.112,0,104.057,12.488,145.681,33.298
	c41.623,20.81,74.921,49.949,95.735,91.572c20.81,37.461,33.298,83.247,33.298,129.033c0,54.111-16.651,104.057-49.949,149.843
	c-41.624,58.274-95.735,83.247-162.331,83.247c-16.65,0-33.298-4.163-41.623-8.326c-8.326-8.325-16.651-16.65-16.651-29.135
	c-24.973,24.973-54.111,37.461-87.409,37.461c-37.461,0-66.596-12.488-87.41-37.461c-24.973-24.973-37.461-58.274-37.461-99.897
	c0-49.949,12.488-95.735,41.624-141.521c33.298-49.949,79.084-74.922,133.195-74.922c37.461,0,66.597,16.651,87.41,45.786
	l8.325-37.46h87.409l-49.948,233.089c-4.163,16.651-4.163,24.973-4.163,29.136c0,4.162,0,8.325,4.163,12.488
	c4.162,4.162,4.162,4.162,8.325,4.162c8.325,0,24.973-8.325,41.623-20.81c20.811-16.651,41.624-37.461,54.112-66.596
	c12.488-29.136,20.81-58.274,20.81-87.41c0-54.111-20.81-99.897-58.274-133.195c-37.461-37.461-91.572-54.111-162.331-54.111
	c-58.274,0-108.22,12.488-149.843,37.46c-41.623,24.973-70.759,58.274-91.572,99.898c-20.814,41.623-29.135,87.409-29.135,137.358
	c0,45.786,12.487,87.409,33.297,124.87c24.973,37.461,54.112,66.596,95.735,83.247c41.624,16.65,87.41,24.973,141.521,24.973
	c49.949,0,95.735-8.326,133.196-20.811C1191.468,938.604,1220.604,917.795,1245.58,888.659z M891.778,755.464
	c0,29.135,4.163,45.786,16.651,62.434c12.488,12.487,24.973,20.81,41.623,20.81c12.488,0,24.973-4.163,33.299-8.326
	c8.325-4.162,16.65-12.488,24.972-20.81c12.488-12.488,20.813-33.298,29.136-58.274c8.325-24.973,12.488-49.948,12.488-70.759
	c0-24.972-4.163-41.623-16.651-58.274c-12.488-12.487-24.973-20.81-41.623-20.81c-16.651,0-37.461,8.326-49.949,20.81
	c-16.651,12.488-29.135,33.299-37.461,62.434C895.941,709.678,891.778,734.65,891.778,755.464z"/>
</svg>
