<svg xmlns="http://www.w3.org/2000/svg" width="660" height="799.338" viewBox="0 0 660 799.338">
  <g id="Group_17" data-name="Group 17" transform="translate(2121.995 1115)">
    <g id="first" transform="translate(-2152 -1043)">
      <g id="Group_11" data-name="Group 11" transform="translate(154 216)">
        <path id="Path_1" data-name="Path 1" d="M454.929,459.436l-124-214.774A8,8,0,0,0,320,241.733l-69.282,40a8,8,0,0,0-2.928,10.928l124,214.774c3.489,6.046,12.851,4.8,14.655-1.93l12.571-46.914,46.913,12.571a8.065,8.065,0,0,0,9-11.726Z" fill="#69788d"/>
      </g>
      <g id="Group_16" data-name="Group 16" transform="translate(54 216)">
        <path id="Path_2" data-name="Path 2" d="M265.01,286.592a8,8,0,0,0-3.728-4.858l-69.282-40a8,8,0,0,0-10.929,2.929l-124,214.774a8.066,8.066,0,0,0,9,11.728l46.913-12.571,12.571,46.914c1.8,6.73,11.166,7.976,14.655,1.93l124-214.774a8,8,0,0,0,.8-6.072Z" fill="#69788d"/>
      </g>
      <g id="Group_15" data-name="Group 15" transform="translate(76 129.693)">
        <path id="Path_3" data-name="Path 3" d="M369.984,312.307l-86.527,42.131,24.769,42.9H335.3a39.8,39.8,0,0,0,31.273-15.061L386.9,356.8l6.866-3.307-23.778-41.186Z" transform="translate(64.998 65)" fill="#56677e"/>
      </g>
      <g id="Group_14" data-name="Group 14" transform="translate(61 16)">
        <path id="Path_4" data-name="Path 4" d="M118.237,353.494,125.1,356.8l20.323,25.484A39.8,39.8,0,0,0,176.7,397.34h27.079L227.586,356.1l-78.818-55.484-30.531,52.881Z" transform="translate(7.003 178.387)" fill="#56677e"/>
      </g>
      <g id="Group_13" data-name="Group 13">
        <path id="Path_5" data-name="Path 5" d="M635.665,291.881l13.826-59.119a11.946,11.946,0,0,0-2.406-10.289l-38.738-47.408-13.826-59.12a12.23,12.23,0,0,0-6.742-8.251L531.8,81.384,493.063,33.976A12.582,12.582,0,0,0,483.32,29.4H421.189L365.209,3.088a12.725,12.725,0,0,0-10.811,0L298.419,29.4H236.287a12.577,12.577,0,0,0-9.742,4.578l-38.738,47.41L131.829,107.7a12.23,12.23,0,0,0-6.742,8.251l-13.826,59.12L72.523,222.476a11.945,11.945,0,0,0-2.406,10.289l13.826,59.119L70.117,351a11.946,11.946,0,0,0,2.406,10.289L111.261,408.7l13.826,59.12a12.231,12.231,0,0,0,6.742,8.251l55.978,26.309,38.738,47.41a12.582,12.582,0,0,0,9.742,4.578h62.132L354.4,580.679a12.74,12.74,0,0,0,10.812,0l55.98-26.311h62.132a12.577,12.577,0,0,0,9.742-4.578L531.8,502.38l55.978-26.309a12.23,12.23,0,0,0,6.742-8.251l13.826-59.12,38.738-47.408A11.945,11.945,0,0,0,649.493,351l-13.828-59.122Z" fill="#ffdb66"/>
      </g>
      <g id="Group_12" data-name="Group 12" transform="translate(2 1)">
        <path id="Path_6" data-name="Path 6" d="M346,32.662c-137.852,0-250,112.148-250,250s112.148,250,250,250,250-112.148,250-250-112.148-250-250-250Z" transform="translate(12 8)" fill="#f7c14d"/>
      </g>
    </g>
    <rect id="Rectangle_1" data-name="Rectangle 1" width="660" height="46" transform="translate(-2121.995 -1115)" fill="#fff"/>
  </g>
</svg>
