<?xml version="1.0" encoding="utf-8" ?>
<svg xmlns="http://www.w3.org/2000/svg" xmlns:xlink="http://www.w3.org/1999/xlink" width="512" height="512">
	<defs>
		<clipPath id="clip_0">
			<rect x="-385" y="-61" width="1920" height="1080" clip-rule="evenodd"/>
		</clipPath>
	</defs>
	<g clip-path="url(#clip_0)">
		<path fill="rgb(105,120,141)" stroke="none" d="M454.929 459.436L330.929 244.662C328.72 240.837 323.828 239.524 320 241.733L250.718 281.733C248.88 282.795 247.539 284.542 246.99 286.591C246.441 288.64 246.728 290.823 247.79 292.661L371.79 507.435C375.279 513.481 384.641 512.235 386.445 505.505L399.016 458.591L445.929 471.162C452.669 472.97 458.42 465.485 454.929 459.436L454.929 459.436Z"/>
	</g>
	<defs>
		<clipPath id="clip_1">
			<rect x="-385" y="-61" width="1920" height="1080" clip-rule="evenodd"/>
		</clipPath>
	</defs>
	<g clip-path="url(#clip_1)">
		<path fill="rgb(105,120,141)" stroke="none" d="M265.01 286.592C264.461 284.542 263.12 282.795 261.282 281.734L192 241.734C188.174 239.527 183.281 240.836 181.071 244.663L57.071 459.437C53.579 465.486 59.331 472.97 66.07 471.165L112.983 458.594L125.554 505.508C127.358 512.238 136.72 513.484 140.209 507.438L264.209 292.664C265.271 290.824 265.559 288.64 265.01 286.592L265.01 286.592Z"/>
	</g>
	<defs>
		<clipPath id="clip_2">
			<rect x="-385" y="-61" width="1920" height="1080" clip-rule="evenodd"/>
		</clipPath>
	</defs>
	<g clip-path="url(#clip_2)">
		<path fill="rgb(86,103,126)" stroke="none" d="M369.984 312.307L283.457 354.438L308.226 397.34L335.305 397.34C347.543 397.34 358.941 391.853 366.578 382.279L386.896 356.8L393.762 353.493L369.984 312.307L369.984 312.307Z"/>
	</g>
	<defs>
		<clipPath id="clip_3">
			<rect x="-385" y="-61" width="1920" height="1080" clip-rule="evenodd"/>
		</clipPath>
	</defs>
	<g clip-path="url(#clip_3)">
		<path fill="rgb(86,103,126)" stroke="none" d="M118.237 353.494L125.103 356.801L145.426 382.285C153.059 391.852 164.456 397.34 176.695 397.34L203.774 397.34L227.586 356.097L148.768 300.613L118.237 353.494L118.237 353.494Z"/>
	</g>
	<defs>
		<clipPath id="clip_4">
			<rect x="-385" y="-61" width="1920" height="1080" clip-rule="evenodd"/>
		</clipPath>
	</defs>
	<g clip-path="url(#clip_4)">
		<path fill="rgb(255,219,102)" stroke="none" d="M433.119 192.662L441.996 153.77C442.537 151.396 441.969 148.906 440.451 147.001L415.579 115.813L406.702 76.92C406.16 74.547 404.566 72.549 402.373 71.492L366.432 54.184L341.56 22.996C340.041 21.093 337.74 19.984 335.305 19.984L295.413 19.984L259.471 2.676C257.278 1.619 254.723 1.619 252.53 2.676L216.588 19.985L176.696 19.985C174.261 19.985 171.96 21.093 170.441 22.997L145.569 54.186L109.628 71.494C107.435 72.551 105.841 74.549 105.299 76.922L96.422 115.815L71.55 147.003C70.032 148.907 69.464 151.398 70.005 153.772L78.882 192.664L70.005 231.556C69.464 233.93 70.032 236.42 71.55 238.325L96.422 269.513L105.299 308.406C105.841 310.779 107.435 312.777 109.628 313.834L145.569 331.142L170.441 362.331C171.96 364.234 174.261 365.343 176.696 365.343L216.588 365.343L252.53 382.652C253.627 383.18 254.813 383.444 256.001 383.444C257.189 383.444 258.375 383.18 259.472 382.652L295.414 365.343L335.306 365.343C337.741 365.343 340.042 364.235 341.561 362.331L366.433 331.142L402.374 313.834C404.567 312.777 406.161 310.779 406.703 308.406L415.58 269.513L440.452 238.325C441.97 236.421 442.538 233.93 441.997 231.556L433.119 192.662L433.119 192.662Z"/>
	</g>
	<defs>
		<clipPath id="clip_5">
			<rect x="-385" y="-61" width="1920" height="1080" clip-rule="evenodd"/>
		</clipPath>
	</defs>
	<g clip-path="url(#clip_5)">
		<path fill="rgb(247,193,77)" stroke="none" d="M256 32.662C167.775 32.662 96 104.437 96 192.662C96 280.887 167.775 352.662 256 352.662C344.225 352.662 416 280.887 416 192.662C416 104.437 344.225 32.662 256 32.662L256 32.662Z"/>
	</g>
	<defs>
		<clipPath id="clip_6">
			<rect x="-385" y="-61" width="1920" height="1080" clip-rule="evenodd"/>
		</clipPath>
	</defs>
	<g clip-path="url(#clip_6)">
		<path fill="rgb(74,138,245)" stroke="none" d="M256 48.662C176.598 48.662 112 113.26 112 192.662C112 272.064 176.598 336.662 256 336.662C335.402 336.662 400 272.064 400 192.662C400 113.26 335.402 48.662 256 48.662L256 48.662Z"/>
	</g>
	<defs>
		<clipPath id="clip_7">
			<rect x="-385" y="-61" width="1920" height="1080" clip-rule="evenodd"/>
		</clipPath>
	</defs>
	<g clip-path="url(#clip_7)">
		<path fill="rgb(247,193,77)" stroke="none" d="M72 272.662C60.648 272.662 48 252.949 48 224.662C48 220.244 44.418 216.662 40 216.662C35.582 216.662 32 220.244 32 224.662C32 252.949 19.352 272.662 8 272.662C3.582 272.662 0 276.244 0 280.662C0 285.08 3.582 288.662 8 288.662C19.352 288.662 32 308.375 32 336.662C32 341.08 35.582 344.662 40 344.662C44.418 344.662 48 341.08 48 336.662C48 308.375 60.648 288.662 72 288.662C76.418 288.662 80 285.08 80 280.662C80 276.244 76.418 272.662 72 272.662L72 272.662Z"/>
	</g>
	<defs>
		<clipPath id="clip_8">
			<rect x="-385" y="-61" width="1920" height="1080" clip-rule="evenodd"/>
		</clipPath>
	</defs>
	<g clip-path="url(#clip_8)">
		<path fill="rgb(247,193,77)" stroke="none" d="M504 384.662C495.327 384.662 488 373.672 488 360.662C488 356.244 484.418 352.662 480 352.662C475.582 352.662 472 356.244 472 360.662C472 373.672 464.673 384.662 456 384.662C451.582 384.662 448 388.244 448 392.662C448 397.08 451.582 400.662 456 400.662C464.673 400.662 472 411.652 472 424.662C472 429.08 475.582 432.662 480 432.662C484.418 432.662 488 429.08 488 424.662C488 411.652 495.327 400.662 504 400.662C508.418 400.662 512 397.08 512 392.662C512 388.244 508.418 384.662 504 384.662L504 384.662Z"/>
	</g>
	<defs>
		<clipPath id="clip_9">
			<rect x="-385" y="-61" width="1920" height="1080" clip-rule="evenodd"/>
		</clipPath>
	</defs>
	<g clip-path="url(#clip_9)">
		<path fill="rgb(247,193,77)" stroke="none" d="M464 40.662C464 36.244 460.418 32.662 456 32.662C447.327 32.662 440 21.672 440 8.662C440 4.244 436.418 0.661999 432 0.661999C427.582 0.661999 424 4.244 424 8.662C424 21.672 416.673 32.662 408 32.662C403.582 32.662 400 36.244 400 40.662C400 45.08 403.582 48.662 408 48.662C416.673 48.662 424 59.652 424 72.662C424 77.08 427.582 80.662 432 80.662C436.418 80.662 440 77.08 440 72.662C440 59.652 447.327 48.662 456 48.662C460.418 48.662 464 45.08 464 40.662L464 40.662Z"/>
	</g>

</svg>