<svg xmlns="http://www.w3.org/2000/svg" xmlns:xlink="http://www.w3.org/1999/xlink" width="750" height="906" viewBox="0 0 750 906">
  <defs>
    <clipPath id="clip-path">
      <rect width="750" height="906" fill="none"/>
    </clipPath>
    <clipPath id="clip-path-2">
      <rect id="Rectangle_62" data-name="Rectangle 62" width="750" height="1378" transform="translate(-48 -214)"/>
    </clipPath>
  </defs>
  <g id="_32631" data-name="32631" clip-path="url(#clip-path)">
    <g id="_32631-2" data-name="32631" transform="translate(49 216)">
      <g id="Group_152" data-name="Group 152" clip-path="url(#clip-path-2)">
        <path id="Path_329" data-name="Path 329" d="M296.2.006c-18.907.055-37.814.5-56.689,2.556-7.116.776-14.083,2.481-21.216,3.168C204.052,7.1,190.06,9.667,175.762,10.85c-11.513.952-23.076,1.513-34.556,2.722a124.176,124.176,0,0,1-33.36-1C99.94,11.186,92,10.407,84.222,8.182a98.443,98.443,0,0,0-27.205-4.2c-12.921.091-25.5.1-37.869,4.5C14.807,10.017,9.494,12.552,6.2,15.79c-7.546,7.409-8.567,25.9-1.033,33.585,12.69,12.935,39.773,18.01,57.56,18.25,19.491.262,38.426-1.155,57.946-1.988,18.138-.773,36.231-1.876,54.4-1.836,37.106.079,74.218,0,111.257-2.428,34.8-2.28,69.686-1.5,104.562-1.5,35.763,0,71.285.275,106.79,4.93,15.47,2.028,31.231,2.737,46.778,4.159,13.925,1.273,27.306-.025,41.175-1.2a99.908,99.908,0,0,0,33.8-8.869C627.8,54.974,642.732,42.8,645.3,33.44c7.2-26.23-101.469-25.6-118.154-25.54-18.665.067-37.478.667-56.129-.03-7.846-.293-15.576-1.795-23.233-3.44-7.626-1.639-15.31-1.222-23.045-1.91C392.484-.353,360.158.066,327.8.066c-10.53,0-21.064-.091-31.6-.06" transform="translate(0 392.512)" fill="#42d583"/>
      </g>
      <g id="Group_153" data-name="Group 153" clip-path="url(#clip-path-2)">
        <path id="Path_330" data-name="Path 330" d="M186.724,84.666l-166.549,42.1L0,42.1,166.55,0l20.174,84.666" transform="translate(311.208)" fill="#42d583"/>
      </g>
      <g id="Group_154" data-name="Group 154" clip-path="url(#clip-path-2)">
        <path id="Path_331" data-name="Path 331" d="M50.407,32.3c4.973,20.983-1.918,40.768-15.391,44.192S6.589,65.682,1.616,44.7,3.533,3.932,17.007.509,45.434,11.318,50.407,32.3" transform="translate(378.094 25.354)" fill="#fff"/>
      </g>
      <g id="Group_155" data-name="Group 155" clip-path="url(#clip-path-2)">
        <path id="Path_332" data-name="Path 332" d="M.58,39.948,160.182,0l18.182,78.1L18.251,118.317,0,40.092ZM110.4,89.478l13.787-3.463.66,2.751,41.427-10.4a11.1,11.1,0,0,0,5.093-11.307l-8.964-39.309c-4.016-14.259-13.2-19.084-19.227-20.716L89.607,20.438a27.586,27.586,0,0,1,11.482,6.79c6.506,6.121,11.452,15.17,13.925,25.484S117.2,73.39,114.2,81.9A32.128,32.128,0,0,1,110.4,89.478Zm-16.17,4.061,6.6-1.657c9.868-5.112,14.526-21.247,10.452-38.233-4.492-18.733-17.928-31.516-29.952-28.5S63.181,45.869,67.674,64.6C71.748,81.588,83.175,93.683,94.234,93.539ZM29.123,112.81a10.756,10.756,0,0,1-9.069-7.539l-9.837-39.09C7.224,51.128,13.711,42.412,18.368,38.27l53.517-13.4a28.461,28.461,0,0,0-7.128,11.48c-3,8.508-3.287,18.872-.813,29.185S71.362,84.9,77.868,91.022a31.088,31.088,0,0,0,6.795,4.921L71.18,99.33l.66,2.75Z" transform="translate(314.923 4.695)" fill="#34bf6c" fill-rule="evenodd"/>
      </g>
      <g id="Group_156" data-name="Group 156" clip-path="url(#clip-path-2)">
        <path id="Path_333" data-name="Path 333" d="M32.514,5.1,1.183,13.146,0,8.042,31.331,0l1.183,5.1" transform="translate(338.148 69.488)" fill="#34bf6c"/>
      </g>
      <g id="Group_157" data-name="Group 157" clip-path="url(#clip-path-2)">
        <path id="Path_334" data-name="Path 334" d="M32.514,5.1,1.183,13.146,0,8.043,31.331,0l1.183,5.1" transform="translate(438.477 44.134)" fill="#34bf6c"/>
      </g>
      <g id="Group_158" data-name="Group 158" clip-path="url(#clip-path-2)">
        <path id="Path_335" data-name="Path 335" d="M14.2,18.781,2.857,14.325,0,1.609,6.568,0l5.354,7.691,4.38.27,4.136,7.014L14.2,18.781" transform="translate(281.48 178.415)" fill="#eacfc1"/>
      </g>
      <g id="Group_159" data-name="Group 159" clip-path="url(#clip-path-2)">
        <path id="Path_336" data-name="Path 336" d="M79.892,0,39.946,29.706,5.112,14.368,0,23.945,26.382,42.257,41.171,47.89l38.721-19V0" transform="translate(290.77 171.841)" fill="#42d583"/>
      </g>
      <g id="Group_160" data-name="Group 160" clip-path="url(#clip-path-2)">
        <path id="Path_337" data-name="Path 337" d="M13.082,20.117l.853-12.371L4.118,0,0,5.488l4.434,8.068-1.583,4.2L7.2,24.415l5.879-4.3" transform="translate(410.608 90.146)" fill="#eacfc1"/>
      </g>
      <g id="Group_161" data-name="Group 161" clip-path="url(#clip-path-2)">
        <path id="Path_338" data-name="Path 338" d="M.793,6.367,0,77.069l7.309,91.016h9.936l11.89-83.971L42.733,0,.793,6.367" transform="translate(345.58 246.024)" fill="#216fce"/>
      </g>
      <g id="Group_162" data-name="Group 162" clip-path="url(#clip-path-2)">
        <path id="Path_339" data-name="Path 339" d="M15.793,5.634,5.265,11.268,0,5.634,5.265,0H15.793V5.634" transform="translate(346.509 413.171)" fill="#3a332d"/>
      </g>
      <g id="Group_163" data-name="Group 163" clip-path="url(#clip-path-2)">
        <path id="Path_340" data-name="Path 340" d="M41.61,6.367l.194,40.9L35.155,168.085H25.3L8.8,87.913,0,0,41.61,6.367" transform="translate(372.52 246.024)" fill="#216fce"/>
      </g>
      <g id="Group_164" data-name="Group 164" clip-path="url(#clip-path-2)">
        <path id="Path_341" data-name="Path 341" d="M0,5.634l10.528,5.635,5.265-5.635L10.528,0H0V5.634" transform="translate(397.602 413.171)" fill="#3a332d"/>
      </g>
      <g id="Group_165" data-name="Group 165" clip-path="url(#clip-path-2)">
        <path id="Path_342" data-name="Path 342" d="M87.255,109.323c.215,6.516.077,15.232-2.591,15.557a2.579,2.579,0,0,1-1.42-.385c-4.638-2.317-7.944-5.593-12.517-7.833a55.283,55.283,0,0,0-15.559-4.423,157.6,157.6,0,0,0-24-2.16c-6.867-.062-14.007,3.159-20.5,4.931-2.5.682-4.531,2.555-6.607,4.024C1,121.2-.344,122.063.074,117.63c.682-7.234,1.39-14.465,2.256-21.678C4.056,81.565,6.4,67.212,10.379,53.286c1.519-5.321,3.27-10.567,5.021-15.812l6.4-19.159c2.65-7.937,7.122-13.529,14.953-16.306,6.768-2.4,15.174-3.055,21.757.3,7.317,3.734,10.8,16.454,14.353,23.252,3.115,5.957,7.041,22.2,8.208,28.625,1.4,7.729,2.7,15.421,3.72,23.094a243.387,243.387,0,0,1,2.158,25.394c.026.932.208,3.536.31,6.646" transform="translate(337.219 168.085)" fill="#42d583"/>
      </g>
      <g id="Group_166" data-name="Group 166" clip-path="url(#clip-path-2)">
        <path id="Path_343" data-name="Path 343" d="M32.529,0,19.1.133S4.691,51.955,4.162,60.887C3.642,69.655,0,105.209,0,105.209s14.871.36,32.006,2.508c16.751,3.69,18.158,1.508,18.158,1.508s-9.041-37.368-9.34-48.1c-.307-10.981-1.673-47.249-1.673-47.249L32.529,0" transform="translate(355.798 171.841)" fill="#fff"/>
      </g>
      <g id="Group_167" data-name="Group 167" clip-path="url(#clip-path-2)">
        <path id="Path_344" data-name="Path 344" d="M10.051,32.447a1.565,1.565,0,0,0,.545.326,2.882,2.882,0,0,0,1.3.038l5.286-.656c-.581-5.653,2.574-6.932,5.647-10.567,3.116-3.687,2.157-8.656,1.982-13.167a10.026,10.026,0,0,0-.616-3.69c-.89-2-2.961-3.1-4.973-3.759A18,18,0,0,0,3.7,2.76,8.431,8.431,0,0,0,.72,5.925c-1,2.057-.75,4.512-.469,6.8a23.665,23.665,0,0,0,3.327,9.951c1.772,2.766,5.149,4.091,5.537,7.41a3.851,3.851,0,0,0,.937,2.358" transform="translate(370.662 138.976)" fill="#eacfc1"/>
      </g>
      <g id="Group_168" data-name="Group 168" clip-path="url(#clip-path-2)">
        <path id="Path_345" data-name="Path 345" d="M4.634,7.9c.327,1.432,1.016,2.883.657,4.308-2.349-.773-3.883-3.1-4.716-5.466A8.142,8.142,0,0,1,.019,3.4,3.93,3.93,0,0,1,1.548.481c1.29-.895,3.6-.543,3.974,1.079S4.142,5.744,4.634,7.9" transform="translate(366.017 139.915)" fill="#34bf6c"/>
      </g>
      <g id="Group_169" data-name="Group 169" clip-path="url(#clip-path-2)">
        <path id="Path_346" data-name="Path 346" d="M0,16.574A5.16,5.16,0,0,1,2.134,12.3c1.257-.89,2.706-1.629,3.469-3.044C6.2,8.158,6.283,6.8,6.87,5.7c1.063-2,3.372-2.582,5.379-3.259C17.272.745,19.977-1.209,25.3.958,29.079,2.5,33.966,2.7,37.477,4.951a12.657,12.657,0,0,1,3.737,4.124c3.546,5.816,4.4,13.994,2.088,20.06a25.261,25.261,0,0,1-1.876,3.8c-1.4,2.391-2.909,5.332-5.4,6.5-.156-1.126-.956-1.747-1.207-2.855a9.166,9.166,0,0,1-.081-2.452c.153-3.189,1.086-8.233-1.951-9.815-3.84-2-11.043-.2-14.741,1.5-3.272,1.5-8.8,3.446-12.284,1.842C2.527,26.168-.106,20.229,0,16.574" transform="translate(359.514 119.256)" fill="#34bf6c"/>
      </g>
      <g id="Group_170" data-name="Group 170" clip-path="url(#clip-path-2)">
        <path id="Path_347" data-name="Path 347" d="M0,62.4,34.465,51.976,21.708,7.741,32.221,0,57.6,51.208,50.579,68.941,17.65,86.39,0,62.4" transform="translate(392.958 107.049)" fill="#42d583"/>
      </g>
      <g id="Group_171" data-name="Group 171" clip-path="url(#clip-path-2)">
        <path id="Path_348" data-name="Path 348" d="M52.263,2C31.282-4.954,8.76,6.8,1.958,28.252S6.649,72.737,27.629,79.693s43.5-4.8,50.305-26.25S73.243,8.958,52.263,2" transform="translate(227.599 137.098)" fill="#34bf6c"/>
      </g>
      <g id="Group_172" data-name="Group 172" clip-path="url(#clip-path-2)">
        <path id="Path_349" data-name="Path 349" d="M43.206,89.207a41.944,41.944,0,0,1-13.328-2.186C7.189,79.425-5.239,54.277,2.117,30.85,8.038,11.992,24.973,0,43.188,0A41.927,41.927,0,0,1,56.518,2.186C79.2,9.778,91.625,34.913,84.286,58.332l-3.291-1.468c6.511-21.389-4.88-44.243-25.578-51.173A38.458,38.458,0,0,0,43.189,3.685c-16.711,0-32.245,11-37.678,28.3-6.748,21.492,4.654,44.562,25.468,51.53a38.454,38.454,0,0,0,12.227,2.005A39.333,39.333,0,0,0,75.384,68.476l2.95,2.075A42.884,42.884,0,0,1,43.206,89.207" transform="translate(223.884 133.341)" fill="#e9e9e9"/>
      </g>
      <g id="Group_173" data-name="Group 173" clip-path="url(#clip-path-2)">
        <path id="Path_350" data-name="Path 350" d="M3.079,14.085,0,11.95A42.388,42.388,0,0,0,5.74.367C5.779.244,5.817.123,5.855,0L9.29,1.511l-.008.025a46.2,46.2,0,0,1-6.2,12.549" transform="translate(299.131 190.622)" fill="#394255"/>
      </g>
      <g id="Group_174" data-name="Group 174" clip-path="url(#clip-path-2)">
        <path id="Path_351" data-name="Path 351" d="M39.954,81.7a39.111,39.111,0,0,1-12.325-2C6.649,72.738-4.845,49.707,1.958,28.253A40.044,40.044,0,0,1,39.938,0,39.111,39.111,0,0,1,52.263,2C73.127,8.92,84.609,31.735,78.046,53.087c-.037.119-.073.237-.111.356a41.184,41.184,0,0,1-5.544,11.235A39.758,39.758,0,0,1,39.954,81.7M39.939,3.8A36.32,36.32,0,0,0,5.492,29.425C-.678,48.883,9.746,69.771,28.775,76.079A35.46,35.46,0,0,0,39.954,77.9,36.32,36.32,0,0,0,74.4,52.271c6.17-19.458-4.254-40.346-23.283-46.655A35.474,35.474,0,0,0,39.939,3.8" transform="translate(227.599 137.098)" fill="#fff"/>
      </g>
      <g id="Group_175" data-name="Group 175" clip-path="url(#clip-path-2)">
        <path id="Path_352" data-name="Path 352" d="M2.344,34.1C10.492,8.2,37.466-5.979,62.594,2.416S101.487,38.607,93.34,64.5,58.219,104.576,33.091,96.182-5.8,59.991,2.344,34.1Zm7.643,2.553C3.208,58.195,14.662,81.321,35.569,88.307S78.919,83.489,85.7,61.946,81.023,17.277,60.116,10.291,16.766,15.108,9.987,36.651Z" transform="translate(219.239 128.646)" fill="#34bf6c" fill-rule="evenodd"/>
      </g>
      <g id="Group_176" data-name="Group 176" clip-path="url(#clip-path-2)">
        <path id="Path_353" data-name="Path 353" d="M.228,30.46a2.629,2.629,0,0,1-.122-1.865,2.511,2.511,0,0,1,3.158-2.23c2.374.5,4.139,3.09,5.887,4.819a13.558,13.558,0,0,0,5.237,3.185,8.357,8.357,0,0,0,5.829.151,5.548,5.548,0,0,0,3.393-3.685,4.794,4.794,0,0,0-.355-4.452q-1.234-1.709-5.127-3.041l-1.714-.586Q10.056,20.579,7.6,16.695t-.784-9.1Q8.451,2.491,12.61.784t10.048.307a16.525,16.525,0,0,1,4.626,2.5c3.087,2.335,7.883,7.18,5.533,10.316-2.678,3.576-6.845-4.356-8.67-6.03A11.542,11.542,0,0,0,20.02,5.548a7.107,7.107,0,0,0-5.233-.011A5.368,5.368,0,0,0,11.689,9a3.943,3.943,0,0,0,.725,4.107q1.5,1.673,7.53,3.906,6.418,2.41,8.575,6.042t.411,9.081a11.256,11.256,0,0,1-5.976,7.219q-4.305,2-9.913.082A23.366,23.366,0,0,1,9.214,37.68C6.669,36.251,2.66,33.805.228,30.46" transform="translate(250.824 154.939)" fill="#fff"/>
      </g>
      <g id="Group_177" data-name="Group 177" clip-path="url(#clip-path-2)">
        <path id="Path_354" data-name="Path 354" d="M1.667,53.411,1.619,53.4A2.8,2.8,0,0,1,.167,49.8L15.519,2.109a2.686,2.686,0,0,1,3.253-2l.047.016a2.8,2.8,0,0,1,1.452,3.6L4.92,51.414a2.687,2.687,0,0,1-3.253,2" transform="translate(258.256 150.244)" fill="#fff"/>
      </g>
      <g id="Group_178" data-name="Group 178" clip-path="url(#clip-path-2)">
        <path id="Path_355" data-name="Path 355" d="M52.262,2c-20.98-6.955-43.5,4.8-50.3,26.252s4.691,44.484,25.671,51.44,43.5-4.8,50.3-26.25S73.242,8.958,52.262,2" transform="translate(558.315 41.317)" fill="#34bf6c"/>
      </g>
      <g id="Group_179" data-name="Group 179" clip-path="url(#clip-path-2)">
        <path id="Path_356" data-name="Path 356" d="M43.206,89.207a41.9,41.9,0,0,1-13.329-2.186C7.19,79.426-5.239,54.278,2.117,30.851,8.039,11.993,24.972,0,43.188,0A41.921,41.921,0,0,1,56.516,2.186c22.689,7.6,35.116,32.745,27.763,56.171-5.923,18.857-22.858,30.85-41.073,30.85M43.189,3.686c-16.711,0-32.246,11-37.679,28.3-6.748,21.49,4.654,44.562,25.467,51.529a38.44,38.44,0,0,0,12.227,2.006c16.709,0,32.245-11,37.678-28.3,6.751-21.491-4.654-44.562-25.467-51.53A38.454,38.454,0,0,0,43.189,3.686" transform="translate(555.528 37.561)" fill="#e9e9e9"/>
      </g>
      <g id="Group_180" data-name="Group 180" clip-path="url(#clip-path-2)">
        <path id="Path_357" data-name="Path 357" d="M39.954,81.7a39.094,39.094,0,0,1-12.325-2C6.649,72.738-4.845,49.706,1.958,28.253A40.043,40.043,0,0,1,39.938,0,39.107,39.107,0,0,1,52.262,2c20.98,6.957,32.476,29.987,25.671,51.441A40.046,40.046,0,0,1,39.954,81.7M39.938,3.8A36.319,36.319,0,0,0,5.492,29.425C-.677,48.882,9.746,69.771,28.774,76.079a35.454,35.454,0,0,0,11.178,1.815A36.32,36.32,0,0,0,74.4,52.271C80.57,32.812,70.145,11.925,51.116,5.616A35.452,35.452,0,0,0,39.938,3.8" transform="translate(558.315 41.317)" fill="#fff"/>
      </g>
      <g id="Group_181" data-name="Group 181" clip-path="url(#clip-path-2)">
        <path id="Path_358" data-name="Path 358" d="M2.345,34.1C10.492,8.206,37.466-5.979,62.593,2.416s38.9,36.191,30.745,62.083A48.051,48.051,0,0,1,46.732,98.584a46.088,46.088,0,0,1-13.642-2.4C7.963,87.787-5.8,59.99,2.345,34.1Zm7.642,2.554c-6.779,21.543,4.675,44.67,25.582,51.654s43.35-4.816,50.13-26.36-4.675-44.67-25.582-51.656S16.765,15.108,9.987,36.652Z" transform="translate(550.884 32.866)" fill="#34bf6c" fill-rule="evenodd"/>
      </g>
      <g id="Group_182" data-name="Group 182" clip-path="url(#clip-path-2)">
        <path id="Path_359" data-name="Path 359" d="M.228,30.46a2.635,2.635,0,0,1-.122-1.865,2.512,2.512,0,0,1,3.159-2.23c2.374.5,4.139,3.09,5.886,4.819a13.564,13.564,0,0,0,5.238,3.185,8.356,8.356,0,0,0,5.829.15,5.547,5.547,0,0,0,3.392-3.685,4.8,4.8,0,0,0-.354-4.452q-1.234-1.708-5.128-3.04l-1.714-.586Q10.057,20.579,7.6,16.695t-.784-9.1Q8.45,2.491,12.61.784t10.048.306A16.552,16.552,0,0,1,27.284,3.6c3.087,2.334,7.883,7.18,5.534,10.316-2.679,3.576-6.845-4.357-8.67-6.03a11.547,11.547,0,0,0-4.126-2.332,7.106,7.106,0,0,0-5.234-.011A5.368,5.368,0,0,0,11.69,9a3.944,3.944,0,0,0,.724,4.107q1.5,1.673,7.531,3.905,6.418,2.41,8.574,6.042t.411,9.081a11.251,11.251,0,0,1-5.976,7.219q-4.305,2-9.913.082A23.32,23.32,0,0,1,9.214,37.68C6.67,36.251,2.661,33.805.228,30.46" transform="translate(582.469 59.159)" fill="#fff"/>
      </g>
      <g id="Group_183" data-name="Group 183" clip-path="url(#clip-path-2)">
        <path id="Path_360" data-name="Path 360" d="M1.666,53.412l-.047-.017A2.8,2.8,0,0,1,.167,49.8L15.518,2.11a2.687,2.687,0,0,1,3.253-2l.048.017a2.794,2.794,0,0,1,1.452,3.6L4.919,51.415a2.687,2.687,0,0,1-3.253,2" transform="translate(589.901 53.524)" fill="#fff"/>
      </g>
      <g id="Group_184" data-name="Group 184" clip-path="url(#clip-path-2)">
        <path id="Path_361" data-name="Path 361" d="M14.35,18.919,15.793,6,2.476,0,0,5.969l6.271,9.716L7.79,21.6l6.561-2.679" transform="translate(609.409 110.805)" fill="#cc937a"/>
      </g>
      <g id="Group_185" data-name="Group 185" clip-path="url(#clip-path-2)">
        <path id="Path_362" data-name="Path 362" d="M26.94,0,10.623,26.086,0,47.213,3.887,55.4l14.13-4.116L26.94,0" transform="translate(534.162 190.622)" fill="#42d583"/>
      </g>
      <g id="Group_186" data-name="Group 186" clip-path="url(#clip-path-2)">
        <path id="Path_363" data-name="Path 363" d="M40.875,5.506v13.16L23.665,75.688l4.3,59.217L17.21,137.1,0,64.723.659,43.429,8.605,0l32.27,5.506" transform="translate(540.665 277.012)" fill="#216fce"/>
      </g>
      <g id="Group_187" data-name="Group 187" clip-path="url(#clip-path-2)">
        <path id="Path_364" data-name="Path 364" d="M8.293,1.522,0,10.483l2.4,4.542L19.508,6.639,16.357,0,8.293,1.522" transform="translate(550.884 411.293)" fill="#393939"/>
      </g>
      <g id="Group_188" data-name="Group 188" clip-path="url(#clip-path-2)">
        <path id="Path_365" data-name="Path 365" d="M10.058,0,0,6.39l1.189,4.879,18.32-3.657L18.105.568,10.058,0" transform="translate(575.037 416.927)" fill="#393939"/>
      </g>
      <g id="Group_189" data-name="Group 189" clip-path="url(#clip-path-2)">
        <path id="Path_366" data-name="Path 366" d="M29.838,10.342,55.2,0s9.013,23.014,19.258,59.878S69.7,143.671,69.7,143.671,11.6,129.476,0,127.135L14.551,59.749,29.838,10.342" transform="translate(531.375 180.293)" fill="#42d583"/>
      </g>
      <g id="Group_190" data-name="Group 190" clip-path="url(#clip-path-2)">
        <path id="Path_367" data-name="Path 367" d="M0,10.955,17.293,131.463h7.861l4.964-65.732L40.875,0,0,10.955" transform="translate(567.605 287.341)" fill="#216fce"/>
      </g>
      <g id="Group_191" data-name="Group 191" clip-path="url(#clip-path-2)">
        <path id="Path_368" data-name="Path 368" d="M.109,4.043C6.923,4.558,13.294-1.2,20,.229c4.361.929,7.8,4.91,9.134,9.4a11.547,11.547,0,0,1,.233,6.45,10.833,10.833,0,0,1-1.976,3.647A14.951,14.951,0,0,1,23.3,23.288a27.455,27.455,0,0,0,2.917,3.983l-9.428,3.716L14.7,25.412a13.937,13.937,0,0,1-2.81-.438A16.55,16.55,0,0,1,.444,12.525,33.495,33.495,0,0,1,.109,4.043" transform="translate(560.173 150.244)" fill="#cc937a"/>
      </g>
      <g id="Group_192" data-name="Group 192" clip-path="url(#clip-path-2)">
        <path id="Path_369" data-name="Path 369" d="M14.814,18.774l21.426-2.6L40.4,32.866l6.051-4.9L43.331.663,13.093,0,0,7.831l.555,7.85,11.707,8.035,2.552-4.941" transform="translate(547.167 138.037)" fill="#34bf6c"/>
      </g>
      <g id="Group_193" data-name="Group 193" clip-path="url(#clip-path-2)">
        <path id="Path_370" data-name="Path 370" d="M52.2,60.109C41.881,23.126,32.943,0,32.943,0L7.257,10.414l-.042.133c.566,1.511,1.157,3.014,1.67,4.545a107.214,107.214,0,0,1,4.437,18.592A194.027,194.027,0,0,1,14.76,67.437a225.186,225.186,0,0,1-3.284,32.1A221.178,221.178,0,0,1,0,140.4c23.76,4.942,51.723,10.787,51.723,10.787s10.8-54.09.479-91.074" transform="translate(562.96 174.659)" fill="#42d583"/>
      </g>
      <g id="Group_194" data-name="Group 194" clip-path="url(#clip-path-2)">
        <path id="Path_371" data-name="Path 371" d="M0,50.625,22.29,39.642,22.267,2.653,31.914,0,42.733,43.479l-3.7,6.425L7.41,75.122,0,50.625" transform="translate(592.688 127.707)" fill="#42d583"/>
      </g>
      <g id="Group_195" data-name="Group 195" clip-path="url(#clip-path-2)">
        <path id="Path_372" data-name="Path 372" d="M18.874,30.861,21.367,0H9.259L0,42.389,6.409,55.4l10.308-5.26,2.156-19.281" transform="translate(528.588 193.439)" fill="#42d583"/>
      </g>
      <g id="Group_196" data-name="Group 196" clip-path="url(#clip-path-2)">
        <path id="Path_373" data-name="Path 373" d="M0,13.146V2.921L7.8,0l7.06,5.478v4.747l-5.2,2.922H0" transform="translate(538.807 180.293)" fill="#cc937a"/>
      </g>
      <g id="Group_197" data-name="Group 197" clip-path="url(#clip-path-2)">
        <path id="Path_374" data-name="Path 374" d="M0,18.132,1.475,5.639,11.143,0l2.792,6.73L9.318,14.388v6.271L0,18.132" transform="translate(123.554 120.195)" fill="#eacfc1"/>
      </g>
      <g id="Group_198" data-name="Group 198" clip-path="url(#clip-path-2)">
        <path id="Path_375" data-name="Path 375" d="M20.327,10.5,11.665,2.21A16.607,16.607,0,0,0,4.339,0,4.093,4.093,0,0,0,.692,1.772a4.486,4.486,0,0,0-.392,4,5.46,5.46,0,0,0,.753,1.263l0,.005c.258.334.541.652.821.964.18.2.376.414.586.636,1.793,2.014,4.8,5.294,5.989,6.035,1.749,1.088,5.6,3.988,10.144.725l-.053-.045a4.629,4.629,0,0,0,1.784-4.85" transform="translate(176.506 408.476)" fill="#3b455a"/>
      </g>
      <g id="Group_199" data-name="Group 199" clip-path="url(#clip-path-2)">
        <path id="Path_376" data-name="Path 376" d="M16.722.756l-.678,10.164L12.717,60.4l3.326,5.757s.678,4.6-4.408,4.249c-1.513-.105-6.871-7.221-6.871-7.221l.775-3.26L1.769,22.773,1.8,11.982,0,0,16.722.756" transform="translate(172.79 347.439)" fill="#eacfc1"/>
      </g>
      <g id="Group_200" data-name="Group 200" clip-path="url(#clip-path-2)">
        <path id="Path_377" data-name="Path 377" d="M5.879.311A4.25,4.25,0,0,0,1.672.839,4.625,4.625,0,0,0,.013,4.69a8.49,8.49,0,0,0,.87,2.759C2.92,12.009,8.636,22.32,15.194,20.43c2.756-.794,3.8-3.7,3.239-6.265C17.591,10.3,11.132,2.017,5.879.311" transform="translate(130.057 406.598)" fill="#3b455a"/>
      </g>
      <g id="Group_201" data-name="Group 201" clip-path="url(#clip-path-2)">
        <path id="Path_378" data-name="Path 378" d="M38.088,3.8,36.921,18.586,8.661,70.853s4.062,7.29,1.486,7.923S.015,77.2,0,68.97C2.971,59,14.649,25.151,14.649,25.151l5.469-8.736L20.038,0l18.05,3.8" transform="translate(130.986 338.049)" fill="#eacfc1"/>
      </g>
      <g id="Group_202" data-name="Group 202" clip-path="url(#clip-path-2)">
        <path id="Path_379" data-name="Path 379" d="M.024,114.247C-.2,109.92,1.149,98.631,2.533,94.586c5.043-14.75,6.016-22.02,6.016-34.026S3.365,10.486,3.365,10.486L20.813.262,42.956,0,54.561,5.175S57.479,51.956,58.2,67.393c.514,11.016,1.258,20.556,2.238,33.321a297.665,297.665,0,0,1-1.5,60.321s-.947,10.363-1.372,11.271c-.056.308-.088.474-.088.474H9.31V154.995q-2.4-8.562-4.57-17.192C2.892,130.5.434,122.278.024,114.247" transform="translate(137.489 178.415)" fill="#42d583"/>
      </g>
      <g id="Group_203" data-name="Group 203" clip-path="url(#clip-path-2)">
        <path id="Path_380" data-name="Path 380" d="M10.9,3.273,2.7,9.638S8.934,53.706,9.267,61.4,0,99.817,0,99.817l39.763,5.354s5.848-32.818,7.531-49.122S24.919,0,24.919,0L10.9,3.273" transform="translate(136.56 178.415)" fill="#216fce"/>
      </g>
      <g id="Group_204" data-name="Group 204" clip-path="url(#clip-path-2)">
        <path id="Path_381" data-name="Path 381" d="M7.8,1.775,16,5.728s-1.154,48.715.949,61.088c1.282,7.542,6.273,31.966,6.273,31.966l-12.977,4.512S2.258,72.743.671,56.53.812,0,.812,0L7.8,1.775" transform="translate(179.293 179.354)" fill="#216fce"/>
      </g>
      <g id="Group_205" data-name="Group 205" clip-path="url(#clip-path-2)">
        <path id="Path_382" data-name="Path 382" d="M8.654,17.483c1.079,4.185-1.4,8.318-3.566,11.848C4.2,30.773,2.83,32.779,3.972,34.425c1.279,1.843,4.457,1.473,5.855.1a8.573,8.573,0,0,0,1.894-3.578c1.887-5.763,4.522-13.837,4.006-19.895C15.314,6.191,9.368-2.436,3.244.651A6.368,6.368,0,0,0,.81,3.3,5.006,5.006,0,0,0,.021,5.27c-.289,2.812,2.418,3.536,4.2,5.048a14.21,14.21,0,0,1,4.436,7.165" transform="translate(177.435 145.549)" fill="#34bf6c"/>
      </g>
      <g id="Group_206" data-name="Group 206" clip-path="url(#clip-path-2)">
        <path id="Path_383" data-name="Path 383" d="M13.988,29.008c3.932-.526,7.219-3.422,8.978-6.907a24.285,24.285,0,0,0,2.11-11.409C24.846-2.325,8.463-3.048,2.093,6.306c-5.552,8.152.462,24.232,11.895,22.7" transform="translate(161.642 149.305)" fill="#eacfc1"/>
      </g>
      <g id="Group_207" data-name="Group 207" clip-path="url(#clip-path-2)">
        <path id="Path_384" data-name="Path 384" d="M13.741,26.978c-.137,1.565-.909,3.225-1.122,4.833-.392,2.96.251,6.8-.8,9.506a17.46,17.46,0,0,1-8.614-4.354C1,34.856,1.4,31.724.9,28.621a41.172,41.172,0,0,1-.878-8.658C.9,4.064,16.273-4.63,29.82,2.542c5.125,2.713,7.367,9.608,3.6,14.14-4.055,4.873-12.293,2.76-17.149,6.376a8.568,8.568,0,0,0-2.527,3.92" transform="translate(150.494 134.281)" fill="#34bf6c"/>
      </g>
      <g id="Group_208" data-name="Group 208" clip-path="url(#clip-path-2)">
        <path id="Path_385" data-name="Path 385" d="M9.241,2.739q-.317,1.373-.633,2.746c-.1.419-.061,1.621-.445,1.908a1.086,1.086,0,0,1-.76.1C6.652,7.4-.072,6.6,0,6.2A21.023,21.023,0,0,1,.775,3.03c.289-.832.4-2.4.933-3.03A12.5,12.5,0,0,0,5.376,1.548q1.948.519,3.914.978c-.016.071-.033.142-.049.213" transform="translate(167.216 173.72)" fill="#eacfc1"/>
      </g>
      <g id="Group_209" data-name="Group 209" clip-path="url(#clip-path-2)">
        <path id="Path_386" data-name="Path 386" d="M52.952,45.416,21.368,47.8,28.443,0,16.915.065,0,50.171,5.875,65.956l36.81,3.531L52.952,45.416" transform="translate(106.832 134.281)" fill="#216fce"/>
      </g>
      <g id="Group_210" data-name="Group 210" clip-path="url(#clip-path-2)">
        <path id="Path_387" data-name="Path 387" d="M30.941,52.585H17.2a5.486,5.486,0,0,1-5.393-5.575L0,5.575A5.486,5.486,0,0,1,5.393,0l30.09,9.39a5.486,5.486,0,0,1,5.392,5.575L36.333,47.01a5.486,5.486,0,0,1-5.392,5.575" transform="translate(195.085 370.915)" fill="#eaa434"/>
      </g>
      <g id="Group_211" data-name="Group 211" clip-path="url(#clip-path-2)">
        <path id="Path_388" data-name="Path 388" d="M9.934,52.585h13.74a5.486,5.486,0,0,0,5.393-5.575L40.875,5.575A5.486,5.486,0,0,0,35.482,0L5.392,9.39A5.486,5.486,0,0,0,0,14.965L4.542,47.01a5.486,5.486,0,0,0,5.392,5.575" transform="translate(312.136 370.915)" fill="#eaa434"/>
      </g>
      <g id="Group_212" data-name="Group 212" clip-path="url(#clip-path-2)">
        <path id="Path_389" data-name="Path 389" d="M98.192,0V14.858H84.817V0C28.966,2.968,0,43.158,0,89.118c0,47.761,40.968,86.48,91.5,86.48s91.5-38.719,91.5-86.48C183.009,43.156,154.1,2.965,98.192,0" transform="translate(183.009 244.146)" fill="#fdd85b"/>
      </g>
      <g id="Group_213" data-name="Group 213" clip-path="url(#clip-path-2)">
        <path id="Path_390" data-name="Path 390" d="M8,0a.924.924,0,0,0-.873.434C6.936.74-11.2,30.831,11.136,61.595a.92.92,0,0,0,.743.381.905.905,0,0,0,.462-.127L54.35,36.95a.953.953,0,0,0,.379-1.2C54.585,35.424,40.087,3.329,8,0" transform="translate(187.653 234.756)" fill="#ebb044"/>
      </g>
      <g id="Group_214" data-name="Group 214" clip-path="url(#clip-path-2)">
        <path id="Path_391" data-name="Path 391" d="M47.688.438A.933.933,0,0,0,46.815,0C14.722,3.328.225,35.424.081,35.748a.953.953,0,0,0,.379,1.2l42.008,24.9a.91.91,0,0,0,1.2-.254C66.009,30.831,47.874.739,47.688.438" transform="translate(301.917 234.756)" fill="#ebb044"/>
      </g>
      <g id="Group_215" data-name="Group 215" clip-path="url(#clip-path-2)">
        <path id="Path_392" data-name="Path 392" d="M0,6.1A6.072,6.072,0,0,1,6.038,0a6.072,6.072,0,0,1,6.038,6.1,6.071,6.071,0,0,1-6.038,6.1A6.071,6.071,0,0,1,0,6.1" transform="translate(245.25 296.732)" fill="#3b455a"/>
      </g>
      <g id="Group_216" data-name="Group 216" clip-path="url(#clip-path-2)">
        <path id="Path_393" data-name="Path 393" d="M0,6.1A6.071,6.071,0,0,1,6.038,0a6.072,6.072,0,0,1,6.039,6.1,6.072,6.072,0,0,1-6.039,6.1A6.071,6.071,0,0,1,0,6.1" transform="translate(290.77 296.732)" fill="#3b455a"/>
      </g>
      <g id="Group_217" data-name="Group 217" clip-path="url(#clip-path-2)">
        <path id="Path_394" data-name="Path 394" d="M71.531,27.7c0,15.3-16.013,27.7-35.765,27.7S0,43,0,27.7,16.013,0,35.766,0,71.531,12.4,71.531,27.7" transform="translate(238.747 317.39)" fill="#eaa434"/>
      </g>
      <g id="Group_218" data-name="Group 218" clip-path="url(#clip-path-2)">
        <path id="Path_395" data-name="Path 395" d="M0,85.5H0a93.533,93.533,0,0,0,69.278,30c50.5,0,91.435-38.668,91.435-86.366A100.9,100.9,0,0,0,156.534,0C124.308,140.234,0,85.5,0,85.5" transform="translate(205.304 304.244)" fill="#ffc76d"/>
      </g>
      <g id="Group_219" data-name="Group 219" clip-path="url(#clip-path-2)">
        <path id="Path_396" data-name="Path 396" d="M6.5,5.634c0,3.112-1.456,5.634-3.252,5.634S0,8.746,0,5.634,1.456,0,3.251,0,6.5,2.522,6.5,5.634" transform="translate(257.327 338.049)" fill="#fff"/>
      </g>
      <g id="Group_220" data-name="Group 220" clip-path="url(#clip-path-2)">
        <path id="Path_397" data-name="Path 397" d="M6.5,5.634c0,3.112-1.456,5.634-3.251,5.634S0,8.746,0,5.634,1.456,0,3.251,0,6.5,2.522,6.5,5.634" transform="translate(284.267 338.049)" fill="#fff"/>
      </g>
      <g id="Group_221" data-name="Group 221" clip-path="url(#clip-path-2)">
        <path id="Path_398" data-name="Path 398" d="M0,0,8.1,3.98,20.139,44.31l26.31,19.212-6.171,6.906L9.5,56.125,1.97,39.073,0,0" transform="translate(192.298 182.171)" fill="#216fce"/>
      </g>
      <g id="Group_222" data-name="Group 222" clip-path="url(#clip-path-2)">
        <path id="Path_399" data-name="Path 399" d="M9.485,0l5.378,2.137-4.743,8.036-6.978.156L0,5.027,9.485,0" transform="translate(228.528 245.085)" fill="#eacfc1"/>
      </g>
      <g id="Group_223" data-name="Group 223" clip-path="url(#clip-path-2)">
        <path id="Path_400" data-name="Path 400" d="M14.4,4.913l-.463,4.912-9.754,4.26L0,8.847,5.109,4.261,14.864,0,14.4,4.913" transform="translate(50.165 418.805)" fill="#145566"/>
      </g>
      <g id="Group_224" data-name="Group 224" clip-path="url(#clip-path-2)">
        <path id="Path_401" data-name="Path 401" d="M30.656,10.708l-7.4,97.857L14,109.866,6.336,26.46,0,0,30.656,10.708" transform="translate(41.804 313.634)" fill="#42d583"/>
      </g>
      <g id="Group_225" data-name="Group 225" clip-path="url(#clip-path-2)">
        <path id="Path_402" data-name="Path 402" d="M29.816,0,35.3,115.743l-8.347,1.635L9.566,29.8,0,4.44,29.816,0" transform="translate(65.028 298.61)" fill="#42d583"/>
      </g>
      <g id="Group_226" data-name="Group 226" clip-path="url(#clip-path-2)">
        <path id="Path_403" data-name="Path 403" d="M.917,6.381,11.132,9.39l3.732-5.538L9.3,0,0,1.685l.917,4.7" transform="translate(91.04 414.11)" fill="#145566"/>
      </g>
      <g id="Group_227" data-name="Group 227" transform="translate(0 -2)" clip-path="url(#clip-path-2)">
        <path id="Path_404" data-name="Path 404" d="M63.65,3.433C56.831-2.39,40.392.958,31.743.958c.832,0-8.2,49.811-8.483,54.156-1.042,15.839-5.8,31.859-12.364,46.361-2.768,6.115-6.067,12.012-8.035,18.448C-.4,130.587-.391,143.15.532,154.188c9.282,2.632,17.977,7.561,27.523,8.839,7.854,1.05,15.786-.439,23.675-1.16,9.329-.851,18.723-.625,28.061-1.365s18.777-2.511,27.042-7.055a142.481,142.481,0,0,1-8.911-23.105c-2.352-7.874-5.377-16.619-6.236-24.83-.776-7.417-.9-14.964-1.949-22.484-1.217-8.748-2.68-17.469-4.71-26.058a200.324,200.324,0,0,0-9.151-28.794C73.011,21.067,69.592,9.427,64.211,3.956q-.269-.273-.561-.523" transform="translate(18.58 170.902)" fill="#216fce"/>
      </g>
      <g id="Group_228" data-name="Group 228" clip-path="url(#clip-path-2)">
        <path id="Path_405" data-name="Path 405" d="M.04,7.5c-.343,2.56,1.567,9.1,3.807,10.526,5.168,3.284,3.3-4.971,3.247-7.98a14.53,14.53,0,0,0,2.938.712c.92.081-1.8-8.745-2.711-9.566C5.143-.786,3.6.227.952.531.7,2.853.352,5.177.04,7.5" transform="translate(31.585 272.317)" fill="#cc937a"/>
      </g>
      <g id="Group_229" data-name="Group 229" clip-path="url(#clip-path-2)">
        <path id="Path_406" data-name="Path 406" d="M27.786,16.736,0,66.446l19.763,43.42,6.7-9.077L19.406,61.927,41.8,38.279,38.72,0,27.786,16.736" transform="translate(12.077 171.841)" fill="#216fce"/>
      </g>
      <g id="Group_230" data-name="Group 230" clip-path="url(#clip-path-2)">
        <path id="Path_407" data-name="Path 407" d="M10.179,7.5c.343,2.56-1.567,9.1-3.807,10.526-5.168,3.283-3.3-4.971-3.247-7.98a14.584,14.584,0,0,1-2.938.712c-.92.081,1.8-8.745,2.711-9.567C5.076-.786,6.622.227,9.266.532c.253,2.321.6,4.645.912,6.964" transform="translate(100.33 262.927)" fill="#cc937a"/>
      </g>
      <g id="Group_231" data-name="Group 231" clip-path="url(#clip-path-2)">
        <path id="Path_408" data-name="Path 408" d="M15.8,11.227,37.159,42.733l-5.418,57.743-6.6-9.078L21.555,48.665,10.015,28.881,0,0,15.8,11.227" transform="translate(78.963 171.841)" fill="#216fce"/>
      </g>
      <g id="Group_232" data-name="Group 232" clip-path="url(#clip-path-2)">
        <path id="Path_409" data-name="Path 409" d="M0,9.319c4.278.805,9.552,4.587,10.582,9.257.5,2.248-.211,4.319.413,6.7,1.212,4.707-4.291,11.64,1.157,14.911,2.8,1.682,6.3,1.137,9.485.542a2.338,2.338,0,0,0,1.1-.407,1.77,1.77,0,0,0,.4-1.844,7.082,7.082,0,0,0-.958-1.736c-3.743-5.825-2.837-14.18-4.292-20.813S12.99,2.718,6.652,0A15.081,15.081,0,0,0,.406,9.38L0,9.319" transform="translate(67.815 138.037)" fill="#34bf6c"/>
      </g>
      <g id="Group_233" data-name="Group 233" clip-path="url(#clip-path-2)">
        <path id="Path_410" data-name="Path 410" d="M20.53,33.729c4.18-1.816,6.948-6.14,7.858-10.665s.189-9.237-1.042-13.684C23.253-5.415,4.977-1.177.715,11.476-3,22.5,8.377,39.01,20.53,33.729" transform="translate(52.952 141.793)" fill="#cc937a"/>
      </g>
      <g id="Group_234" data-name="Group 234" clip-path="url(#clip-path-2)">
        <path id="Path_411" data-name="Path 411" d="M20.436,50.568c2.063-1.306,4.086-2.673,5.281-5.113,1.931-3.942,1.117-10.068,1.347-14.345.241-4.508.645-9.42,3.68-12.711,1.982-2.149,4.42-2.74,7.174-3.025,1.886-.2,2.02.525,3.529-.645,1.157-.9,2-3.351,2.171-4.757A8.091,8.091,0,0,0,41.111,3.54,10.921,10.921,0,0,0,32.166.028C19.838.821,11.225,9.053,8.782,21.6c-1.174,6.029.609,12.474-.7,18.291C7.282,43.48,5.278,46,4.7,49.8c-1.5,9.861-5.71,22.673-4.474,32.628a1.418,1.418,0,0,0,.415,1c.6.451,1.374-.229,1.809-.842l7.613-10.738a18.746,18.746,0,0,0,2.583-4.466c1.438-4.061.1-9.035,2.582-12.535a17.1,17.1,0,0,1,5.209-4.278" transform="translate(31.585 133.341)" fill="#34bf6c"/>
      </g>
      <g id="Group_235" data-name="Group 235" clip-path="url(#clip-path-2)">
        <path id="Path_412" data-name="Path 412" d="M35.37.177C13.917,2.238-1.841,21.7.173,43.639s21.038,38.061,42.49,36,37.211-21.519,35.2-43.461S56.823-1.883,35.37.177" transform="translate(110.548 46.951)" fill="#34bf6c"/>
      </g>
      <g id="Group_236" data-name="Group 236" clip-path="url(#clip-path-2)">
        <path id="Path_413" data-name="Path 413" d="M42.218,87.329a40.785,40.785,0,0,1-12.621-2l.654-1.109-1.169-2.879a37.41,37.41,0,0,0,13.14,2.38q1.821,0,3.671-.178c21.32-2.069,36.981-21.6,34.979-43.623C78.986,19.169,62.093,3.608,42.313,3.608q-1.82,0-3.669.179c-21.32,2.068-36.981,21.6-34.98,43.623A40.062,40.062,0,0,0,24.452,79.245L20.92,81.351A43.746,43.746,0,0,1,.188,47.746C-1.995,23.739,15.077,2.448,38.318.194q2.017-.2,4-.194C63.877,0,82.293,16.965,84.349,39.583c2.182,24.008-14.889,45.3-38.13,47.552q-2.017.2-4,.194" transform="translate(106.832 43.195)" fill="#e9e9e9"/>
      </g>
      <g id="Group_237" data-name="Group 237" clip-path="url(#clip-path-2)">
        <path id="Path_414" data-name="Path 414" d="M8.638,5.634A42.88,42.88,0,0,1,0,1.95L3.516,0a39.262,39.262,0,0,0,4.61,1.941L9.29,4.607,8.638,5.634" transform="translate(128.199 122.073)" fill="#d6beb1"/>
      </g>
      <g id="Group_238" data-name="Group 238" clip-path="url(#clip-path-2)">
        <path id="Path_415" data-name="Path 415" d="M38.971,79.817a37.974,37.974,0,0,1-13.222-2.371,38.421,38.421,0,0,1-4.659-2.088A39.9,39.9,0,0,1,.173,43.639C-1.841,21.7,13.917,2.238,35.37.178Q37.23,0,39.062,0c19.9,0,36.9,15.5,38.8,36.179,2.014,21.943-13.744,41.4-35.2,43.461q-1.861.178-3.693.177m.088-76.1q-1.661,0-3.349.161C16.252,5.743,1.96,23.391,3.788,43.292,5.508,62.045,20.923,76.1,38.976,76.1c1.106,0,2.225-.053,3.349-.161,19.457-1.868,33.749-19.517,31.921-39.418C72.526,17.774,57.109,3.713,39.058,3.713" transform="translate(110.548 46.951)" fill="#fff"/>
      </g>
      <g id="Group_239" data-name="Group 239" clip-path="url(#clip-path-2)">
        <path id="Path_416" data-name="Path 416" d="M.209,52.367C-2.213,26.035,16.733,2.685,42.528.213s48.668,16.869,51.09,43.2S77.092,93.095,51.3,95.568,2.63,78.7.209,52.367Zm7.845-.752c2.015,21.908,21.047,38,42.508,35.944S87.788,66.074,85.773,44.166s-21.047-38-42.508-35.944S6.039,29.706,8.054,51.615Z" transform="translate(102.188 38.5)" fill="#34bf6c" fill-rule="evenodd"/>
      </g>
      <g id="Group_240" data-name="Group 240" clip-path="url(#clip-path-2)">
        <path id="Path_417" data-name="Path 417" d="M2.759,35.486c-.508-.3-.657-1-.824-1.629a2.534,2.534,0,0,1,2.039-3.274c2.363-.5,4.968,1.12,7.227,1.975a13.409,13.409,0,0,0,6.01.766,8.523,8.523,0,0,0,5.392-2.2,5.561,5.561,0,0,0,1.7-4.678,4.59,4.59,0,0,0-2.025-3.865q-1.783-1.042-5.854-.679l-1.793.159q-6.647.594-10.378-1.918T.057,12.265a10.182,10.182,0,0,1,2.7-8.451Q5.912.61,12.072.059a16.4,16.4,0,0,1,5.19.4c3.717.863,9.957,3.3,9,7.064-1.086,4.293-7.928-1.175-10.238-1.948a11.428,11.428,0,0,0-4.667-.444,7.248,7.248,0,0,0-4.794,2.09,5.375,5.375,0,0,0-1.511,4.36,3.769,3.769,0,0,0,2.231,3.405q2.016.9,8.384.494,6.794-.405,10.155,2t3.843,8.008a11.244,11.244,0,0,1-2.713,8.893q-3.177,3.528-9.041,4.051a23.288,23.288,0,0,1-4.174-.047c-2.874-.266-7.478-.859-10.982-2.894" transform="translate(134.702 63.854)" fill="#fff"/>
      </g>
      <g id="Group_241" data-name="Group 241" clip-path="url(#clip-path-2)">
        <path id="Path_418" data-name="Path 418" d="M7.058,54.45l-.05,0a2.7,2.7,0,0,1-2.721-2.642L.013,3.088A2.7,2.7,0,0,1,2.232.013l.05,0A2.7,2.7,0,0,1,5,2.65L9.277,51.375A2.7,2.7,0,0,1,7.058,54.45" transform="translate(144.92 57.28)" fill="#fff"/>
      </g>
      <g id="Group_242" data-name="Group 242" clip-path="url(#clip-path-2)">
        <path id="Path_419" data-name="Path 419" d="M63.123,107.922,2.683,95.311a3.639,3.639,0,0,1-2.6-4.377L17.36,3.054A3.541,3.541,0,0,1,21.414.066L81.853,12.677a3.641,3.641,0,0,1,2.605,4.378L67.176,104.934a3.54,3.54,0,0,1-4.054,2.988" transform="translate(39.946 192.5)" fill="#42d583"/>
      </g>
      <g id="Group_243" data-name="Group 243" clip-path="url(#clip-path-2)">
        <path id="Path_420" data-name="Path 420" d="M17.565,24.379l-16.1-3.311a1.955,1.955,0,0,1-1.42-2.351L3.451,1.64A1.926,1.926,0,0,1,5.66.035l16.1,3.311A1.955,1.955,0,0,1,23.182,5.7L19.774,22.774a1.926,1.926,0,0,1-2.209,1.6" transform="translate(57.597 227.244)" fill="#397ef5"/>
      </g>
      <g id="Group_244" data-name="Group 244" clip-path="url(#clip-path-2)">
        <path id="Path_421" data-name="Path 421" d="M17.565,24.379l-16.1-3.311a1.954,1.954,0,0,1-1.42-2.351L3.451,1.64A1.926,1.926,0,0,1,5.66.035l16.1,3.311A1.954,1.954,0,0,1,23.182,5.7L19.775,22.774a1.926,1.926,0,0,1-2.21,1.6" transform="translate(86.395 233.817)" fill="#397ef5"/>
      </g>
      <g id="Group_245" data-name="Group 245" clip-path="url(#clip-path-2)">
        <path id="Path_422" data-name="Path 422" d="M17.565,24.379l-16.1-3.311a1.954,1.954,0,0,1-1.42-2.351L3.451,1.64A1.926,1.926,0,0,1,5.659.035l16.1,3.311A1.953,1.953,0,0,1,23.182,5.7L19.774,22.774a1.926,1.926,0,0,1-2.209,1.6" transform="translate(52.023 255.415)" fill="#397ef5"/>
      </g>
      <g id="Group_246" data-name="Group 246" clip-path="url(#clip-path-2)">
        <path id="Path_423" data-name="Path 423" d="M17.564,24.379l-16.1-3.311a1.954,1.954,0,0,1-1.42-2.351L3.45,1.641A1.927,1.927,0,0,1,5.66.035l16.1,3.312A1.953,1.953,0,0,1,23.182,5.7L19.774,22.775a1.927,1.927,0,0,1-2.21,1.6" transform="translate(80.821 261.049)" fill="#216fce"/>
      </g>
      <g id="Group_247" data-name="Group 247" clip-path="url(#clip-path-2)">
        <path id="Path_424" data-name="Path 424" d="M7.64,6.238l4.557.91a.959.959,0,0,1,.649.434,1.007,1.007,0,0,1,.135.774.938.938,0,0,1-.418.635,1.011,1.011,0,0,1-.771.123L7.235,8.2,6.211,13.186a1.17,1.17,0,0,1-.409.72.9.9,0,0,1-1.332-.293,1.106,1.106,0,0,1-.13-.8L5.365,7.83l-4.533-.9a1.024,1.024,0,0,1-.667-.41.921.921,0,0,1-.14-.747,1,1,0,0,1,.446-.644.984.984,0,0,1,.766-.165l4.532.9L6.79.9A1.137,1.137,0,0,1,7.212.179.9.9,0,0,1,7.95.021a.859.859,0,0,1,.618.428,1.16,1.16,0,0,1,.093.821L7.64,6.238" transform="translate(62.242 232.878)" fill="#eee"/>
      </g>
      <g id="Group_248" data-name="Group 248" clip-path="url(#clip-path-2)">
        <path id="Path_425" data-name="Path 425" d="M.44,2.6a.509.509,0,0,1-.367-.246.674.674,0,0,1-.051-.488L.316.453A.56.56,0,0,1,.546.083.558.558,0,0,1,.978.015L11.55,2.1a.672.672,0,0,1,.429.238.511.511,0,0,1,.083.432l-.294,1.413a.623.623,0,0,1-.281.4.615.615,0,0,1-.474.108L.44,2.6" transform="translate(91.969 243.207)" fill="#eee"/>
      </g>
      <g id="Group_249" data-name="Group 249" clip-path="url(#clip-path-2)">
        <path id="Path_426" data-name="Path 426" d="M.44,2.6a.511.511,0,0,1-.367-.246.676.676,0,0,1-.051-.489L.316.453A.563.563,0,0,1,.546.082.562.562,0,0,1,.978.015L11.55,2.1a.675.675,0,0,1,.429.237.513.513,0,0,1,.083.432l-.294,1.413a.619.619,0,0,1-.281.4.612.612,0,0,1-.474.108L.44,2.6" transform="translate(87.324 267.622)" fill="#eee"/>
      </g>
      <g id="Group_250" data-name="Group 250" clip-path="url(#clip-path-2)">
        <path id="Path_427" data-name="Path 427" d="M.439,2.6a.513.513,0,0,1-.367-.245.681.681,0,0,1-.05-.489L.316.453A.555.555,0,0,1,.546.083.558.558,0,0,1,.978.015L11.551,2.1a.678.678,0,0,1,.429.238.511.511,0,0,1,.082.432l-.294,1.413a.684.684,0,0,1-.755.5L.439,2.6" transform="translate(86.395 272.317)" fill="#eee"/>
      </g>
      <g id="Group_251" data-name="Group 251" clip-path="url(#clip-path-2)">
        <path id="Path_428" data-name="Path 428" d="M.439,2.6a.511.511,0,0,1-.367-.246.683.683,0,0,1-.051-.489L.315.454A.556.556,0,0,1,.546.083.554.554,0,0,1,.977.015L11.551,2.1a.676.676,0,0,1,.429.238.515.515,0,0,1,.082.432l-.294,1.412a.625.625,0,0,1-.282.4.614.614,0,0,1-.474.108L.439,2.6" transform="translate(57.597 264.805)" fill="#eee"/>
      </g>
      <g id="Group_252" data-name="Group 252" clip-path="url(#clip-path-2)">
        <path id="Path_429" data-name="Path 429" d="M2.755,1.67A1.437,1.437,0,0,1,1.1,2.792,1.365,1.365,0,0,1,.032,1.148,1.437,1.437,0,0,1,1.69.025,1.365,1.365,0,0,1,2.755,1.67" transform="translate(63.17 261.988)" fill="#eee"/>
      </g>
      <g id="Group_253" data-name="Group 253" clip-path="url(#clip-path-2)">
        <path id="Path_430" data-name="Path 430" d="M2.755,1.669A1.437,1.437,0,0,1,1.1,2.792,1.366,1.366,0,0,1,.032,1.148,1.438,1.438,0,0,1,1.69.025,1.365,1.365,0,0,1,2.755,1.669" transform="translate(61.313 268.561)" fill="#eee"/>
      </g>
      <g id="Group_254" data-name="Group 254" clip-path="url(#clip-path-2)">
        <path id="Path_431" data-name="Path 431" d="M54.1,24.415,0,13.1,2.572,0l54.1,11.311L54.1,24.415" transform="translate(60.383 203.768)" fill="#fff"/>
      </g>
      <g id="Group_255" data-name="Group 255" clip-path="url(#clip-path-2)">
        <path id="Path_432" data-name="Path 432" d="M3.776,1.488A3.438,3.438,0,0,1,6.964.039,3.64,3.64,0,0,1,9.643,2.177,7.643,7.643,0,0,1,10.1,4.61c.334,4.285.3,14.456-5.082,15.921C2.756,21.146.884,19.443.28,17.289c-.91-3.244.438-12.232,3.5-15.8" transform="translate(487.713 409.415)" fill="#145566"/>
      </g>
      <g id="Group_256" data-name="Group 256" clip-path="url(#clip-path-2)">
        <path id="Path_433" data-name="Path 433" d="M0,0,.29,26.048C-.048,37.619,1.714,49.253,1.377,60.823c-.078,2.66-.754,5.467-.1,8.1.639,2.58,2.683,3.036,4.781,1.73,2.811-1.751,2.358-5.838,2.826-8.819,1.286-8.193,2.794-16.348,4.138-24.532.658-4.012-.7-9.634-.4-13.694l4.1-21.83L0,0" transform="translate(489.571 346.5)" fill="#eacfc1"/>
      </g>
      <g id="Group_257" data-name="Group 257" clip-path="url(#clip-path-2)">
        <path id="Path_434" data-name="Path 434" d="M35.3,35.488,24.369,85.815l-2.322,47.526-17.334-.4L0,0,33.6.633l1.7,34.856" transform="translate(483.068 269.5)" fill="#216fce"/>
      </g>
      <g id="Group_258" data-name="Group 258" clip-path="url(#clip-path-2)">
        <path id="Path_435" data-name="Path 435" d="M4.569,1.333A3.655,3.655,0,0,1,8,.075,3.91,3.91,0,0,1,10.74,2.4a7.45,7.45,0,0,1,.381,2.478c.17,4.334-.3,14.573-6.052,15.709C2.65,21.059.744,19.226.2,17.02-.626,13.7,1.183,4.732,4.569,1.333" transform="translate(461.702 408.476)" fill="#145566"/>
      </g>
      <g id="Group_259" data-name="Group 259" clip-path="url(#clip-path-2)">
        <path id="Path_436" data-name="Path 436" d="M16.722,0,15.239,26.052c-.121,7.24-1.056,14.425-1.783,21.616-.675,6.679.375,13.637-3.01,19.712-1.062,1.9-3.207,3.173-4.707.859-1.155-1.784-.469-4.759-.69-6.783C4.144,53.2,3.017,44.963,2.055,36.71,1.583,32.663,3.192,27.1,3.083,23.024L0,.983,16.722,0" transform="translate(458.915 350.256)" fill="#eacfc1"/>
      </g>
      <g id="Group_260" data-name="Group 260" clip-path="url(#clip-path-2)">
        <path id="Path_437" data-name="Path 437" d="M1.428,31.512,0,80.469l7.487,49.507,17.847.548-.788-53.579,9.443-44.433,3.17-29.084L8.842,0,1.428,31.512" transform="translate(451.483 270.439)" fill="#216fce"/>
      </g>
      <g id="Group_261" data-name="Group 261" clip-path="url(#clip-path-2)">
        <path id="Path_438" data-name="Path 438" d="M16.991.744,47.4,0l17.63,33.585L58.762,65.041l-1.116,37.645-43.375.607L0,100.919,3.789,60.7,1.616,6.966,16.991.744" transform="translate(458.915 169.963)" fill="#ebb044"/>
      </g>
      <g id="Group_262" data-name="Group 262" clip-path="url(#clip-path-2)">
        <path id="Path_439" data-name="Path 439" d="M13.774,4.341,13.935,9.7,5.1,13.146,0,9.014l0-6.24,4.918-.293.154-1.372L6.682,0l7.092,4.341" transform="translate(495.145 246.024)" fill="#eacfc1"/>
      </g>
      <g id="Group_263" data-name="Group 263" clip-path="url(#clip-path-2)">
        <path id="Path_440" data-name="Path 440" d="M14.864,8.327,12.55,13.146,2.805,11.736,0,5.517,2.864,0,7.54,2.219l.773-1.135,2-.169,4.554,7.412" transform="translate(402.247 210.341)" fill="#eacfc1"/>
      </g>
      <g id="Group_264" data-name="Group 264" clip-path="url(#clip-path-2)">
        <path id="Path_441" data-name="Path 441" d="M3.84,0,37.379,39.961l1.638,17.5L5.935,84.512,0,75.617,21.395,51.958.668,30.943,3.84,0" transform="translate(503.506 171.841)" fill="#ebb044"/>
      </g>
      <g id="Group_265" data-name="Group 265" clip-path="url(#clip-path-2)">
        <path id="Path_442" data-name="Path 442" d="M65.028,14.111,49.212,46.5l-16.7,5.142L0,47.076,4.19,36.133l29.324-2.448L50.771,0,65.028,14.111" transform="translate(409.679 176.537)" fill="#ebb044"/>
      </g>
      <g id="Group_266" data-name="Group 266" clip-path="url(#clip-path-2)">
        <path id="Path_443" data-name="Path 443" d="M1.8,8.054C6.337-5.457,23.76-.393,27.351,11.637c2.344,7.847-3.577,18.031-11.52,20.285a8.052,8.052,0,0,0-.062.842,27.089,27.089,0,0,1-.34,3.76c-.068.47-7.02-.9-7.794-1.054a1.046,1.046,0,0,1-.72-.364c-.28-.446.176-1.762.227-2.259q.09-.879.18-1.758C3.4,29.132.932,24.962.242,20.716c-.693-4.264.191-8.6,1.555-12.662" transform="translate(475.636 136.159)" fill="#eacfc1"/>
      </g>
      <g id="Group_267" data-name="Group 267" clip-path="url(#clip-path-2)">
        <path id="Path_444" data-name="Path 444" d="M31.643,1.945a7.286,7.286,0,0,1,1.588,3.681,5.905,5.905,0,0,1,.139,2.386c-.655,3.114-3.659,2.951-5.982,3.955a15.629,15.629,0,0,0-6.941,6.141c-2.512,4.11-1.382,9.4-.363,13.931.359,1.6,1.082,3.972-.123,5.4-1.225,1.448-4.056,1.225-5.522.48-1.341-.681-2.441-1.94-3.913-2.193-1.558-.268-3.663.436-4.387-1.033a10.229,10.229,0,0,0-.475-1.283c-.861-1.264-3,.216-4.214-.675a2.482,2.482,0,0,1-.489-2.642,6.452,6.452,0,0,0,.5-2.8A9.346,9.346,0,0,0,.394,25.1a4.4,4.4,0,0,1,.578-4.573c1.918-2.282,5.63-1.85,7.684-4a9.415,9.415,0,0,0,1.885-4.257,8.247,8.247,0,0,1,2.022-4.17c1.414-1.278,3.455-1.061,4.85-2.576A29.419,29.419,0,0,1,19.7,2.706,18.2,18.2,0,0,1,24.788.379a6.49,6.49,0,0,1,6.855,1.566" transform="translate(457.057 129.585)" fill="#34bf6c"/>
      </g>
      <g id="Group_268" data-name="Group 268" clip-path="url(#clip-path-2)">
        <path id="Path_445" data-name="Path 445" d="M18.734,31.818c.081,4.486-2.087,9.337-.076,13.287,2.029,3.985,7.087,4.7,11.4,4.912.709.035,9.807.842,9.846.665a31.055,31.055,0,0,1,2.974-9.057c1.589-2.744,4.246-5.018,7.289-5.212-.878-.157-1.321-1.262-1.22-2.194a15.11,15.11,0,0,1,.842-2.666,6.4,6.4,0,0,0-1.6-6.31c-3.218-3.084-9.053-1.8-11.812-5.346-1.711-2.2-1.507-5.382-2.4-8.062C32.243,6.65,26.722,5.566,22.6,3.224,18.239.753,14.136-.6,9.108.26,2.875,1.328-1.758,7.851.646,13.99c3.083,7.874,15.409,7.2,17.717,15.189a10.124,10.124,0,0,1,.371,2.639" transform="translate(481.21 122.073)" fill="#34bf6c"/>
      </g>
      <g id="Group_269" data-name="Group 269" clip-path="url(#clip-path-2)">
        <path id="Path_446" data-name="Path 446" d="M21.367.56,11.885,14.085l-4.457-.369L0,0,21.367.56" transform="translate(475.636 169.963)" fill="#edeeee"/>
      </g>
      <g id="Group_270" data-name="Group 270" clip-path="url(#clip-path-2)">
        <path id="Path_447" data-name="Path 447" d="M36.212.182C14.248,2.291-1.885,22.207.178,44.666s21.539,38.957,43.5,36.848,38.1-22.024,36.035-44.483S58.175-1.927,36.212.182" transform="translate(410.608 196.256)" fill="#34bf6c"/>
      </g>
      <g id="Group_271" data-name="Group 271" clip-path="url(#clip-path-2)">
        <path id="Path_448" data-name="Path 448" d="M26.124,13.146A44,44,0,0,1,.213,4.728C.143,3.444.081,2.461.067,1.966Q.039.984,0,0A40.378,40.378,0,0,0,26.126,9.574q1.888,0,3.8-.176A40.976,40.976,0,0,0,35.3,8.54l-.941,3.845q-2.011.376-4.092.57t-4.145.192" transform="translate(423.614 268.561)" fill="#e9e9e9"/>
      </g>
      <g id="Group_272" data-name="Group 272" clip-path="url(#clip-path-2)">
        <path id="Path_449" data-name="Path 449" d="M17.651,50.707A44.444,44.444,0,0,1,.193,19.158,45.087,45.087,0,0,1,2.555,0l.859.124-.6,1.567,2.824.4A41.383,41.383,0,0,0,3.758,18.815,40.819,40.819,0,0,0,17.44,45.86q.038,1.008.066,2.016c.014.507.075,1.516.145,2.832" transform="translate(406.892 222.549)" fill="#394255"/>
      </g>
      <g id="Group_273" data-name="Group 273" clip-path="url(#clip-path-2)">
        <path id="Path_450" data-name="Path 450" d="M0,8.451.93,4.459A38.592,38.592,0,0,0,11.8,0L14.7.487,17.651.446A42.255,42.255,0,0,1,0,8.451" transform="translate(457.986 272.317)" fill="#394255"/>
      </g>
      <g id="Group_274" data-name="Group 274" clip-path="url(#clip-path-2)">
        <path id="Path_451" data-name="Path 451" d="M3.583,75.122l-2.9-.485a41.313,41.313,0,0,0,19.709-39.3A41.006,41.006,0,0,0,0,3.3L1.607,0A44.69,44.69,0,0,1,23.96,34.989,45.17,45.17,0,0,1,6.547,75.081l-2.964.041" transform="translate(469.134 198.134)" fill="#d7a241"/>
      </g>
      <g id="Group_275" data-name="Group 275" clip-path="url(#clip-path-2)">
        <path id="Path_452" data-name="Path 452" d="M.916,9.39,0,9.263A45.362,45.362,0,0,1,4.645,0L.916,9.39" transform="translate(408.75 213.159)" fill="#d6beb1"/>
      </g>
      <g id="Group_276" data-name="Group 276" clip-path="url(#clip-path-2)">
        <path id="Path_453" data-name="Path 453" d="M.638,19.719C.433,18.895.22,18.052,0,17.2A42.872,42.872,0,0,1,30.214.195Q32.272,0,34.3,0q.97,0,1.93.043L34.38,3.634H34.3q-1.862,0-3.751.18A39.342,39.342,0,0,0,2.731,19.546l-2.093.173" transform="translate(416.182 192.5)" fill="#e9e9e9"/>
      </g>
      <g id="Group_277" data-name="Group 277" clip-path="url(#clip-path-2)">
        <path id="Path_454" data-name="Path 454" d="M0,2.817Q.988,1.371,2.087,0c.242.878.476,1.748.7,2.6L0,2.817" transform="translate(413.395 210.341)" fill="#394255"/>
      </g>
      <g id="Group_278" data-name="Group 278" clip-path="url(#clip-path-2)">
        <path id="Path_455" data-name="Path 455" d="M2.821,31.927,0,31.523,4.095,20.64l.146-.235,2.546-.216,2.1-.178A42.05,42.05,0,0,0,2.821,31.927M59.711,8.858A38.246,38.246,0,0,0,40.616,3.684L42.471,0A41.732,41.732,0,0,1,61.313,5.519l-1.6,3.338" transform="translate(409.679 192.5)" fill="#d7a241"/>
      </g>
      <g id="Group_279" data-name="Group 279" clip-path="url(#clip-path-2)">
        <path id="Path_456" data-name="Path 456" d="M39.9,81.7a39.325,39.325,0,0,1-25.976-9.861A41,41,0,0,1,.178,44.666,41.34,41.34,0,0,1,8.164,16.107,39.636,39.636,0,0,1,36.212.182Q38.118,0,39.994,0h.083a39.041,39.041,0,0,1,19.2,5.1,41.314,41.314,0,0,1,.68,71.1A39.2,39.2,0,0,1,43.68,81.513q-1.906.183-3.782.182M39.988,3.8q-1.7,0-3.429.165C16.639,5.877,2.007,23.941,3.877,44.311,5.639,63.5,21.423,77.9,39.9,77.9q1.7,0,3.429-.165c19.92-1.913,34.553-19.976,32.682-40.347C74.252,18.192,58.469,3.8,39.988,3.8" transform="translate(410.608 196.256)" fill="#fff"/>
      </g>
      <g id="Group_280" data-name="Group 280" clip-path="url(#clip-path-2)">
        <path id="Path_457" data-name="Path 457" d="M.213,53.907C-2.257,26.8,17.066,2.764,43.37.219S93,17.585,95.472,44.691,78.62,95.833,52.314,98.378,2.683,81.013.213,53.907Zm8-.775c2.055,22.553,21.463,39.119,43.35,37S89.527,68.018,87.472,45.464s-21.463-39.119-43.351-37S6.158,30.58,8.213,53.133Z" transform="translate(402.247 187.805)" fill="#34bf6c" fill-rule="evenodd"/>
      </g>
      <g id="Group_281" data-name="Group 281" clip-path="url(#clip-path-2)">
        <path id="Path_458" data-name="Path 458" d="M2.759,36.352c-.508-.3-.656-1.02-.824-1.669A2.6,2.6,0,0,1,3.973,31.33c2.363-.517,4.968,1.148,7.227,2.023a13.094,13.094,0,0,0,6.01.784A8.42,8.42,0,0,0,22.6,31.88a5.775,5.775,0,0,0,1.7-4.791q-.244-2.891-2.025-3.959t-5.855-.695l-1.792.163Q7.981,23.2,4.251,20.633T.057,12.564a10.6,10.6,0,0,1,2.7-8.658Q5.912.624,12.072.061a16.056,16.056,0,0,1,5.19.408c3.717.884,9.957,3.38,9,7.237-1.086,4.4-7.929-1.2-10.238-2a11.173,11.173,0,0,0-4.668-.455,7.165,7.165,0,0,0-4.794,2.14,5.587,5.587,0,0,0-1.512,4.467A3.865,3.865,0,0,0,7.286,15.35q2.015.924,8.383.506,6.795-.416,10.155,2.046t3.844,8.2a11.708,11.708,0,0,1-2.713,9.11q-3.176,3.613-9.041,4.149a22.727,22.727,0,0,1-4.173-.049c-2.875-.272-7.478-.88-10.982-2.965" transform="translate(435.69 214.098)" fill="#fff"/>
      </g>
      <g id="Group_282" data-name="Group 282" clip-path="url(#clip-path-2)">
        <path id="Path_459" data-name="Path 459" d="M7.058,56.328l-.05,0A2.736,2.736,0,0,1,4.288,53.6L.013,3.194A2.776,2.776,0,0,1,2.232.014l.05,0A2.737,2.737,0,0,1,5,2.741L9.277,53.148a2.777,2.777,0,0,1-2.219,3.181" transform="translate(445.909 207.524)" fill="#fff"/>
      </g>
      <g id="Group_283" data-name="Group 283" transform="translate(-1 7)" clip-path="url(#clip-path-2)">
        <path id="Path_460" data-name="Path 460" d="M2.063,0h-.41A1.8,1.8,0,0,0,0,1.878,1.807,1.807,0,0,0,1.653,3.756h.41A1.8,1.8,0,0,0,3.715,1.878,1.807,1.807,0,0,0,2.063,0h-.41A1.8,1.8,0,0,0,0,1.878,1.807,1.807,0,0,0,1.653,3.756h.41A1.8,1.8,0,0,0,3.715,1.878,1.807,1.807,0,0,0,2.063,0" transform="translate(650.284 293.915)" fill="#babcbe"/>
      </g>
    </g>
  </g>
</svg>
