<svg xmlns="http://www.w3.org/2000/svg" xmlns:xlink="http://www.w3.org/1999/xlink" width="1619.94" height="597.877" viewBox="0 0 1619.94 597.877">
  <defs>
    <clipPath id="clip-path">
      <path id="Path_30" data-name="Path 30" d="M1082.14,300.025l1.945.65q-48.021,54.186-65.831,99.949t-18.1,106.745l-1.945-.65q.286-60.972,18.1-106.745Q1034.115,354.22,1082.14,300.025Z"/>
    </clipPath>
  </defs>
  <g id="logo" transform="translate(-131.62 -17.992)">
    <g id="Group_27" data-name="Group 27">
      <path id="Path_1" data-name="Path 1" d="M501.034,201.862,500.88,148.4l-299.294,38a70.282,70.282,0,0,0-61,78.112h0a70.283,70.283,0,0,0,78.105,61l286.7-35.3" fill="#6d934a"/>
      <path id="Path_2" data-name="Path 2" d="M323.527,172.442l.155-78.945L628.205,53.155a70.284,70.284,0,0,1,78.175,60.921h0a70.284,70.284,0,0,1-60.92,78.175L499.235,209.817l-.416-62.081Z" fill="#385c34"/>
      <path id="Path_3" data-name="Path 3" d="M323.463,161.193l.131-69.47L628.205,53.156a70.284,70.284,0,0,1,78.175,60.921h0a70.284,70.284,0,0,1-60.92,78.175l-400.646,49.37.062,87.275" fill="none" stroke="#436b3e" stroke-linecap="round" stroke-linejoin="round" stroke-miterlimit="10" stroke-width="6"/>
      <path id="Path_4" data-name="Path 4" d="M501.034,201.862,500.88,148.4l-299.294,38a70.282,70.282,0,0,0-61,78.112h0a70.283,70.283,0,0,0,78.105,61l286.7-35.3" fill="none" stroke="#77a04f" stroke-linecap="round" stroke-linejoin="round" stroke-miterlimit="10" stroke-width="6"/>
      <path id="Path_5" data-name="Path 5" d="M705.979,113.353h0a70.292,70.292,0,0,1-60.921,78.177L244.814,241.622,244.586,538.4l400.472-50.68a70.285,70.285,0,0,0,60.921-78.169h0l.638,1.51-.215-296.78" fill="#436b3e" stroke="#436b3e" stroke-linecap="round" stroke-linejoin="round" stroke-miterlimit="10" stroke-width="6"/>
      <g id="Group_3" data-name="Group 3">
        <g id="Group_1" data-name="Group 1">
          <path id="Path_6" data-name="Path 6" d="M248.023,151.429a3.481,3.481,0,0,1-3.486-3.48V134.925a3.483,3.483,0,0,1,6.967,0v13.024A3.479,3.479,0,0,1,248.023,151.429Z" fill="#436b3e"/>
        </g>
        <g id="Group_2" data-name="Group 2">
          <path id="Path_7" data-name="Path 7" d="M254.53,144.92H241.51a3.482,3.482,0,0,1,0-6.965h13.02a3.482,3.482,0,1,1,0,6.965Z" fill="#436b3e"/>
        </g>
      </g>
      <g id="Group_6" data-name="Group 6">
        <g id="Group_4" data-name="Group 4">
          <path id="Path_8" data-name="Path 8" d="M679.624,541.439a3.483,3.483,0,0,1-3.481-3.479V524.93a3.482,3.482,0,0,1,6.964,0v13.03A3.485,3.485,0,0,1,679.624,541.439Z" fill="#436b3e"/>
        </g>
        <g id="Group_5" data-name="Group 5">
          <path id="Path_9" data-name="Path 9" d="M686.141,534.924H673.114a3.482,3.482,0,1,1,0-6.964h13.027a3.482,3.482,0,0,1,0,6.964Z" fill="#436b3e"/>
        </g>
      </g>
      <g id="Group_9" data-name="Group 9">
        <g id="Group_7" data-name="Group 7">
          <path id="Path_10" data-name="Path 10" d="M589.525,37.981a3.484,3.484,0,0,1-3.479-3.484V21.475a3.482,3.482,0,1,1,6.964,0V34.5A3.482,3.482,0,0,1,589.525,37.981Z" fill="#436b3e"/>
        </g>
        <g id="Group_8" data-name="Group 8">
          <path id="Path_11" data-name="Path 11" d="M596.037,31.468H583.014a3.484,3.484,0,0,1,0-6.967h13.023a3.484,3.484,0,1,1,0,6.967Z" fill="#436b3e"/>
        </g>
      </g>
      <g id="Group_12" data-name="Group 12">
        <g id="Group_10" data-name="Group 10">
          <path id="Path_12" data-name="Path 12" d="M291.348,129.042a3.481,3.481,0,0,1-3.48-3.48V112.54a3.482,3.482,0,1,1,6.964,0v13.022A3.483,3.483,0,0,1,291.348,129.042Z" fill="#436b3e"/>
        </g>
        <g id="Group_11" data-name="Group 11">
          <path id="Path_13" data-name="Path 13" d="M297.861,122.533H284.84a3.484,3.484,0,0,1,0-6.967h13.021a3.484,3.484,0,1,1,0,6.967Z" fill="#436b3e"/>
        </g>
      </g>
      <g id="Group_14" data-name="Group 14">
        <g id="Group_13" data-name="Group 13">
          <path id="Path_14" data-name="Path 14" d="M500.4,38.124h-2.749a3.484,3.484,0,0,1,0-6.968H500.4a3.484,3.484,0,1,1,0,6.968Z" fill="#436b3e"/>
        </g>
      </g>
      <g id="Group_16" data-name="Group 16">
        <g id="Group_15" data-name="Group 15">
          <path id="Path_15" data-name="Path 15" d="M723.919,506.417h-2.75a3.485,3.485,0,0,1,0-6.97h2.75a3.485,3.485,0,0,1,0,6.97Z" fill="#436b3e"/>
        </g>
      </g>
      <g id="Group_18" data-name="Group 18">
        <g id="Group_17" data-name="Group 17">
          <path id="Path_16" data-name="Path 16" d="M299.237,157.3h-2.75a3.482,3.482,0,1,1,0-6.965h2.75a3.482,3.482,0,0,1,0,6.965Z" fill="#436b3e"/>
        </g>
      </g>
      <path id="Path_17" data-name="Path 17" d="M715.241,366.984c-7.11,36.114-27.987,74.418-72.575,79.187L294.054,487.048l.093-167.318c.635.1,1.248.242,1.889.315a45.259,45.259,0,0,0,50.7-44.673l266-33.292c53.69-6.661,92.318-26.748,102.572-54.609l-.277-42.054c-7.232,42.521-41.178,68.03-104.876,75.932L282.427,262.366a10.447,10.447,0,0,0-9.149,10.363l-.126,226.056a10.453,10.453,0,0,0,10.447,10.46,9.632,9.632,0,0,0,1.219-.074L645,466.937c31.428-3.356,65.58-31.609,70.316-53.376Z" fill="#385c34"/>
      <path id="Path_18" data-name="Path 18" d="M140.585,255.249h0a70.276,70.276,0,0,0,78.1,61l405.678-50.871-.277,296.194L218.428,612.287a70.292,70.292,0,0,1-78.109-61.005h.141l-.178-297.187.109,2.156" fill="#769f4e" stroke="#769f4e" stroke-linecap="round" stroke-linejoin="round" stroke-miterlimit="10" stroke-width="6"/>
      <path id="Path_19" data-name="Path 19" d="M595.249,296.278a10.458,10.458,0,0,0-8.207-2.541L243.224,336.412c-35.8,2.816-70.862-6.525-91.582-24.391-9.946-8.577-16.687-18.688-20.022-30.136l.135,37.577c1.748,2.9,3.42,5.955,6.242,8.384,25.216,21.744,65.255,32.733,107.114,29.377.155-.015.3-.025.455-.045l286.579-35.57a45.47,45.47,0,0,0,45.433,44.182c.082,0,.161-.011.241-.011l-.107,113.387a45.453,45.453,0,0,0-43.01,45.365,44.914,44.914,0,0,0,.358,5.4L243.084,566.055c-45.919,2.9-98.742-14.773-111.295-71.906l-.169,39.576c14.585,33.816,57.716,53.558,101.4,53.558,3.839,0,7.752-.129,11.715-.383.2-.022.406-.033.609-.058l344.039-42.565a10.462,10.462,0,0,0,9.169-10.365l.223-229.795A10.465,10.465,0,0,0,595.249,296.278Z" fill="#6d934a"/>
      <g id="Group_20" data-name="Group 20">
        <g id="Group_19" data-name="Group 19">
          <path id="Path_20" data-name="Path 20" d="M278.888,527.989V509.041a84.365,84.365,0,0,1-25.638-.833l3.809-17.98a92.844,92.844,0,0,0,28.064-.184c14.556-2.52,16.633-6.311,16.633-17.107s-.865-12.534-18.536-13.72c-26.162-1.878-29.282-7.6-29.282-29.428,0-19.749,7.278-30.383,29.1-35.432V375.081l17.5-2.586v19.2a114.354,114.354,0,0,1,20.439-.2l-2.254,18.27a155.582,155.582,0,0,0-28.235,1.5c-11.953,1.864-15.419,4.3-15.419,15.685,0,11.033.692,11.269,17.153,13.08,29.623,3.376,30.664,8.839,30.664,29.139,0,19.624-5.889,30.727-26.68,36.633v19.043Z" fill="#d8d9dc"/>
        </g>
      </g>
      <g id="Group_22" data-name="Group 22">
        <g id="Group_21" data-name="Group 21">
          <path id="Path_21" data-name="Path 21" d="M668.569,386.813V372.151a74.365,74.365,0,0,1-20.146,5.7l2.992-15.04a84.059,84.059,0,0,0,22.056-6.845c11.439-5.4,13.069-8.788,13.069-17.028s-.679-9.373-14.565-6.306c-20.56,4.393-23.009.594-23.009-16.552,0-15.51,5.718-25.29,22.87-33.461V267.742l13.753-5.2V277.2a102.442,102.442,0,0,1,16.067-4.089l-1.771,14.23a142.307,142.307,0,0,0-22.193,6.825c-9.393,3.852-12.117,6.444-12.117,15.267,0,8.56.544,8.593,13.481,6.452,23.281-3.829,24.1.059,24.1,15.34,0,14.771-4.632,24.57-20.968,34.149v14.582Z" fill="#385c34"/>
        </g>
      </g>
      <g id="Group_23" data-name="Group 23">
        <line id="Line_1" data-name="Line 1" x1="34.554" y2="4.426" transform="translate(454.067 498.512)" fill="none" stroke="#6d934a" stroke-linecap="round" stroke-linejoin="round" stroke-miterlimit="10" stroke-width="2"/>
      </g>
      <g id="Group_24" data-name="Group 24">
        <line id="Line_2" data-name="Line 2" x1="34.554" y2="4.437" transform="translate(371.47 429.021)" fill="none" stroke="#6d934a" stroke-linecap="round" stroke-linejoin="round" stroke-miterlimit="10" stroke-width="2"/>
      </g>
      <g id="Group_25" data-name="Group 25">
        <line id="Line_3" data-name="Line 3" x1="12.725" y2="1.627" transform="translate(499.026 341.914)" fill="none" stroke="#6d934a" stroke-linecap="round" stroke-linejoin="round" stroke-miterlimit="10" stroke-width="2"/>
      </g>
      <g id="Group_26" data-name="Group 26">
        <line id="Line_4" data-name="Line 4" x1="22.426" y2="2.878" transform="translate(439.496 491.418)" fill="none" stroke="#6d934a" stroke-linecap="round" stroke-linejoin="round" stroke-miterlimit="10" stroke-width="2"/>
      </g>
    </g>
    <g id="Group_50" data-name="Group 50">
      <g id="Group_49" data-name="Group 49">
        <g id="Group_35" data-name="Group 35">
          <g id="Group_28" data-name="Group 28">
            <path id="Path_22" data-name="Path 22" d="M1015.43,299.745l1.95.65-150.071-.631-1.946-.65Z" fill="#496630"/>
          </g>
          <g id="Group_29" data-name="Group 29">
            <path id="Path_23" data-name="Path 23" d="M998.2,506.719l1.947.65-.187,39.344-1.945-.65Z" fill="#527237"/>
          </g>
          <g id="Group_30" data-name="Group 30">
            <path id="Path_24" data-name="Path 24" d="M998.018,546.063l1.945.65-69.587-.293-1.944-.649Z" fill="#496630"/>
          </g>
          <g id="Group_32" data-name="Group 32">
            <g id="Group_31" data-name="Group 31" clip-path="url(#clip-path)">
              <path id="Path_25" data-name="Path 25" d="M1082.14,300.025l1.945.65q-29.576,33.372-47.688,63.55l-1.945-.65q18.1-30.175,47.688-63.55" fill="#4b6831"/>
              <path id="Path_26" data-name="Path 26" d="M1034.45,363.576l1.945.65a241.216,241.216,0,0,0-18.144,36.4q-.2.507-.393,1.016l-1.945-.65q.2-.508.394-1.016a241.414,241.414,0,0,1,18.143-36.4" fill="#4d6b33"/>
              <path id="Path_27" data-name="Path 27" d="M1015.91,400.99l1.945.65a243.668,243.668,0,0,0-10.282,34.442l-1.945-.65a243.548,243.548,0,0,1,10.282-34.442" fill="#4e6d34"/>
              <path id="Path_28" data-name="Path 28" d="M1005.63,435.432l1.945.65a308.485,308.485,0,0,0-6.279,42.887l-1.944-.65a308.486,308.486,0,0,1,6.278-42.887" fill="#507036"/>
              <path id="Path_29" data-name="Path 29" d="M999.351,478.319l1.944.65q-1.078,13.762-1.147,28.4l-1.945-.65q.069-14.637,1.148-28.4" fill="#527237"/>
            </g>
          </g>
          <g id="Group_33" data-name="Group 33">
            <path id="Path_31" data-name="Path 31" d="M1082.39,246.463l1.94.65-.25,53.562-1.94-.65Z" fill="#527237"/>
          </g>
          <g id="Group_34" data-name="Group 34">
            <path id="Path_32" data-name="Path 32" d="M1082.39,246.463l-.252,53.563q-48.021,54.186-65.83,99.949t-18.1,106.745l-.185,39.344-69.586-.292.185-39.344q.282-60.15,22.344-110.228,22.047-50.07,64.474-96.454l-150.071-.631.252-53.563Z" fill="#fff"/>
          </g>
        </g>
        <g id="Group_43" data-name="Group 43">
          <g id="Group_36" data-name="Group 36">
            <path id="Path_33" data-name="Path 33" d="M1287.64,247.326l1.94.65L1337.7,349.33l-1.95-.65Z" fill="#56773a"/>
          </g>
          <g id="Group_37" data-name="Group 37">
            <path id="Path_34" data-name="Path 34" d="M1284.58,547.268l1.95.649-80.29-.337-1.94-.65Z" fill="#496630"/>
          </g>
          <g id="Group_38" data-name="Group 38">
            <path id="Path_35" data-name="Path 35" d="M1336.12,444.272l1.94.65-51.53,102.995-1.95-.649Z" fill="#4c6a32"/>
          </g>
          <g id="Group_39" data-name="Group 39">
            <path id="Path_36" data-name="Path 36" d="M1465.92,248.075l1.94.65L1381.32,397.1l-1.94-.65Z" fill="#4b6931"/>
          </g>
          <g id="Group_40" data-name="Group 40">
            <path id="Path_37" data-name="Path 37" d="M1471.09,548.052l1.95.65-84.41-.355-1.94-.65Z" fill="#496630"/>
          </g>
          <g id="Group_41" data-name="Group 41">
            <path id="Path_38" data-name="Path 38" d="M1379.38,396.451l1.94.65,91.72,151.6-1.95-.65Z" fill="#56783a"/>
          </g>
          <g id="Group_42" data-name="Group 42">
            <path id="Path_39" data-name="Path 39" d="M1465.92,248.075l-86.54,148.376,91.71,151.6-84.4-.355-50.57-103.425-51.54,103-80.28-.338,88.82-150.842-85.15-149.1,79.67.335,48.11,101.354,49.88-100.943Z" fill="#fff"/>
          </g>
        </g>
        <g id="Group_48" data-name="Group 48">
          <g id="Group_44" data-name="Group 44">
            <path id="Path_40" data-name="Path 40" d="M1679.74,308.513l1.95.65-60.33-.254-1.94-.65Z" fill="#496630"/>
          </g>
          <g id="Group_45" data-name="Group 45">
            <path id="Path_41" data-name="Path 41" d="M1748.19,549.216l1.94.65-69.57-.292-1.95-.65Z" fill="#496630"/>
          </g>
          <g id="Group_46" data-name="Group 46">
            <path id="Path_42" data-name="Path 42" d="M1749.62,244.939l1.94.65-1.43,304.277-1.94-.65Z" fill="#527237"/>
          </g>
          <g id="Group_47" data-name="Group 47">
            <path id="Path_43" data-name="Path 43" d="M1749.62,244.939l-1.43,304.277-69.58-.292,1.13-240.411-60.32-.254.25-53.148Z" fill="#fff"/>
          </g>
        </g>
      </g>
    </g>
  </g>
</svg>
