<?xml version="1.0" encoding="utf-8"?>
<!-- Generator: Adobe Illustrator 16.0.0, SVG Export Plug-In . SVG Version: 6.00 Build 0)  -->
<!DOCTYPE svg PUBLIC "-//W3C//DTD SVG 1.1//EN" "http://www.w3.org/Graphics/SVG/1.1/DTD/svg11.dtd">
<svg version="1.1" id="Capa_1" xmlns="http://www.w3.org/2000/svg" xmlns:xlink="http://www.w3.org/1999/xlink" x="0px" y="0px"
	 width="2000px" height="633.333px" viewBox="0 0 2000 633.333" enable-background="new 0 0 2000 633.333" xml:space="preserve">
<g>
	<path fill="#6D934A" d="M501.034,201.862l-0.154-53.461l-299.294,38c-38.256,4.705-65.708,39.853-61,78.112l0,0
		c4.701,38.253,39.851,65.702,78.105,61l286.7-35.302"/>
	<path fill="#385C34" d="M323.527,172.442l0.155-78.945l304.523-40.342c38.254-4.745,73.433,22.67,78.175,60.921l0,0
		c4.748,38.248-22.664,73.428-60.92,78.175l-146.225,17.566l-0.416-62.081L323.527,172.442z"/>
	<path fill="none" stroke="#436B3E" stroke-width="6" stroke-linecap="round" stroke-linejoin="round" stroke-miterlimit="10" d="
		M323.463,161.193l0.131-69.47l304.611-38.567c38.254-4.745,73.433,22.67,78.175,60.921l0,0
		c4.748,38.248-22.664,73.428-60.92,78.175l-400.646,49.37l0.062,87.275"/>
	<path fill="none" stroke="#77A04F" stroke-width="6" stroke-linecap="round" stroke-linejoin="round" stroke-miterlimit="10" d="
		M501.034,201.862l-0.154-53.461l-299.294,38c-38.256,4.705-65.708,39.853-61,78.112l0,0c4.701,38.253,39.851,65.702,78.105,61
		l286.7-35.302"/>
	
		<path fill="#436B3E" stroke="#436B3E" stroke-width="6" stroke-linecap="round" stroke-linejoin="round" stroke-miterlimit="10" d="
		M705.979,113.353L705.979,113.353c4.742,38.251-22.669,73.43-60.921,78.177l-400.244,50.092l-0.228,296.778l400.472-50.68
		c38.252-4.746,65.664-39.921,60.921-78.169l0,0l0.638,1.51l-0.215-296.78"/>
	<g>
		<g>
			<path fill="#436B3E" d="M248.023,151.429c-1.926,0-3.486-1.556-3.486-3.48v-13.024c0-1.922,1.56-3.482,3.486-3.482
				c1.922,0,3.481,1.56,3.481,3.482v13.024C251.504,149.873,249.945,151.429,248.023,151.429z"/>
		</g>
		<g>
			<path fill="#436B3E" d="M254.53,144.92h-13.02c-1.923,0-3.482-1.561-3.482-3.483c0-1.923,1.56-3.482,3.482-3.482h13.02
				c1.926,0,3.483,1.56,3.483,3.482C258.013,143.36,256.456,144.92,254.53,144.92z"/>
		</g>
	</g>
	<g>
		<g>
			<path fill="#436B3E" d="M679.624,541.439c-1.926,0-3.481-1.565-3.481-3.479v-13.03c0-1.925,1.555-3.479,3.481-3.479
				c1.925,0,3.483,1.554,3.483,3.479v13.03C683.107,539.874,681.549,541.439,679.624,541.439z"/>
		</g>
		<g>
			<path fill="#436B3E" d="M686.141,534.924h-13.027c-1.926,0-3.482-1.559-3.482-3.485c0-1.926,1.557-3.479,3.482-3.479h13.027
				c1.925,0,3.48,1.553,3.48,3.479C689.621,533.365,688.066,534.924,686.141,534.924z"/>
		</g>
	</g>
	<g>
		<g>
			<path fill="#436B3E" d="M589.525,37.981c-1.919,0-3.479-1.561-3.479-3.484V21.475c0-1.926,1.56-3.483,3.479-3.483
				c1.93,0,3.485,1.557,3.485,3.483v13.022C593.01,36.42,591.455,37.981,589.525,37.981z"/>
		</g>
		<g>
			<path fill="#436B3E" d="M596.037,31.468h-13.023c-1.922,0-3.48-1.559-3.48-3.482c0-1.925,1.558-3.485,3.48-3.485h13.023
				c1.925,0,3.486,1.56,3.486,3.485C599.523,29.909,597.962,31.468,596.037,31.468z"/>
		</g>
	</g>
	<g>
		<g>
			<path fill="#436B3E" d="M291.348,129.042c-1.922,0-3.48-1.56-3.48-3.48V112.54c0-1.926,1.559-3.485,3.48-3.485
				c1.924,0,3.484,1.56,3.484,3.485v13.022C294.832,127.482,293.272,129.042,291.348,129.042z"/>
		</g>
		<g>
			<path fill="#436B3E" d="M297.861,122.533H284.84c-1.924,0-3.483-1.56-3.483-3.485c0-1.923,1.559-3.482,3.483-3.482h13.021
				c1.925,0,3.485,1.56,3.485,3.482C301.346,120.973,299.786,122.533,297.861,122.533z"/>
		</g>
	</g>
	<g>
		<g>
			<path fill="#436B3E" d="M500.401,38.124h-2.749c-1.922,0-3.482-1.561-3.482-3.486c0-1.922,1.56-3.482,3.482-3.482h2.749
				c1.927,0,3.485,1.56,3.485,3.482C503.887,36.563,502.329,38.124,500.401,38.124z"/>
		</g>
	</g>
	<g>
		<g>
			<path fill="#436B3E" d="M723.919,506.417h-2.75c-1.929,0-3.485-1.566-3.485-3.48c0-1.926,1.556-3.49,3.485-3.49h2.75
				c1.931,0,3.484,1.564,3.484,3.49C727.403,504.852,725.85,506.417,723.919,506.417z"/>
		</g>
	</g>
	<g>
		<g>
			<path fill="#436B3E" d="M299.237,157.296h-2.75c-1.923,0-3.483-1.56-3.483-3.485c0-1.92,1.56-3.48,3.483-3.48h2.75
				c1.922,0,3.482,1.56,3.482,3.48C302.719,155.737,301.16,157.296,299.237,157.296z"/>
		</g>
	</g>
	<path fill="#385C34" d="M715.241,366.984c-7.11,36.114-27.987,74.418-72.575,79.187l-348.612,40.877l0.093-167.318
		c0.635,0.101,1.248,0.242,1.889,0.315c24.96,2.895,47.539-15,50.43-39.96c0.183-1.583,0.255-3.152,0.273-4.713L612.74,242.08
		c53.69-6.661,92.318-26.748,102.572-54.609l-0.277-42.054c-7.232,42.521-41.178,68.03-104.876,75.932l-327.732,41.017
		c-5.225,0.652-9.146,5.096-9.149,10.363l-0.126,226.056c0,2.995,1.272,5.833,3.502,7.814c1.922,1.711,4.4,2.646,6.945,2.646
		c0.405,0,0.81-0.022,1.219-0.074l360.178-42.234c31.428-3.356,65.58-31.609,70.316-53.376L715.241,366.984z"/>
	
		<path fill="#769F4E" stroke="#769F4E" stroke-width="6" stroke-linecap="round" stroke-linejoin="round" stroke-miterlimit="10" d="
		M140.585,255.249L140.585,255.249c4.701,38.257,39.851,65.709,78.105,61.001l405.678-50.871l-0.277,296.194l-405.663,50.714
		c-38.256,4.702-73.404-22.753-78.109-61.005h0.141l-0.178-297.187l0.109,2.156"/>
	<path fill="#6D934A" d="M595.249,296.278c-2.245-1.984-5.24-2.91-8.207-2.541l-343.818,42.675
		c-35.802,2.816-70.862-6.525-91.582-24.391c-9.946-8.577-16.687-18.688-20.022-30.136l0.135,37.577
		c1.748,2.903,3.42,5.955,6.242,8.384c25.216,21.744,65.255,32.733,107.114,29.377c0.155-0.015,0.303-0.025,0.455-0.045
		l286.579-35.57c0.704,24.513,20.75,44.182,45.433,44.182c0.082,0,0.161-0.011,0.241-0.011l-0.107,113.387
		c-23.964,1.295-43.01,21.081-43.01,45.365c0,1.83,0.144,3.631,0.358,5.4l-291.976,36.124
		c-45.919,2.895-98.742-14.773-111.295-71.906l-0.169,39.576c14.585,33.816,57.716,53.558,101.401,53.558
		c3.839,0,7.752-0.129,11.715-0.383c0.2-0.022,0.406-0.033,0.609-0.058l344.039-42.565c5.234-0.653,9.161-5.095,9.169-10.365
		l0.223-229.795C598.779,301.121,597.492,298.265,595.249,296.278z"/>
	<g>
		<g>
			<path fill="#D8D9DC" d="M278.888,527.989v-18.948c-8.659,1.018-17.842,0.736-25.638-0.833l3.809-17.98
				c7.797,1.078,17.842,1.586,28.064-0.184c14.556-2.52,16.633-6.311,16.633-17.107s-0.865-12.534-18.536-13.72
				c-26.162-1.878-29.282-7.602-29.282-29.428c0-19.749,7.278-30.383,29.104-35.432v-19.276l17.502-2.586v19.202
				c6.408-0.629,14.206-0.793,20.439-0.2l-2.254,18.27c-8.313-0.405-19.748,0.178-28.235,1.501
				c-11.953,1.864-15.419,4.304-15.419,15.685c0,11.033,0.692,11.269,17.153,13.08c29.623,3.376,30.664,8.839,30.664,29.139
				c0,19.624-5.889,30.727-26.68,36.633v19.043L278.888,527.989z"/>
		</g>
	</g>
	<g>
		<g>
			<path fill="#385C34" d="M668.569,386.813v-14.662c-6.804,2.938-14.02,5.003-20.146,5.701l2.992-15.04
				c6.129-1.016,14.021-3.029,22.056-6.845c11.439-5.403,13.069-8.788,13.069-17.028c0-8.24-0.679-9.373-14.565-6.306
				c-20.56,4.393-23.009,0.594-23.009-16.552c0-15.51,5.718-25.29,22.87-33.461v-14.878l13.753-5.201v14.661
				c5.039-1.715,11.165-3.333,16.067-4.089l-1.771,14.23c-6.536,1.359-15.517,4.1-22.193,6.825
				c-9.393,3.852-12.117,6.444-12.117,15.267c0,8.56,0.544,8.593,13.481,6.452c23.281-3.829,24.098,0.059,24.098,15.34
				c0,14.771-4.632,24.57-20.968,34.149v14.582L668.569,386.813z"/>
		</g>
	</g>
	<g>
		
			<line fill="none" stroke="#6D934A" stroke-width="2" stroke-linecap="round" stroke-linejoin="round" stroke-miterlimit="10" x1="488.621" y1="498.512" x2="454.067" y2="502.938"/>
	</g>
	<g>
		
			<line fill="none" stroke="#6D934A" stroke-width="2" stroke-linecap="round" stroke-linejoin="round" stroke-miterlimit="10" x1="406.024" y1="429.021" x2="371.47" y2="433.458"/>
	</g>
	<g>
		
			<line fill="none" stroke="#6D934A" stroke-width="2" stroke-linecap="round" stroke-linejoin="round" stroke-miterlimit="10" x1="511.751" y1="341.914" x2="499.026" y2="343.541"/>
	</g>
	<g>
		
			<line fill="none" stroke="#6D934A" stroke-width="2" stroke-linecap="round" stroke-linejoin="round" stroke-miterlimit="10" x1="461.922" y1="491.418" x2="439.496" y2="494.296"/>
	</g>
</g>
<g>
	<g>
		<g enable-background="new    ">
			<g>
				<polygon fill="#496630" points="1015.435,299.745 1017.38,300.395 867.309,299.764 865.363,299.114 				"/>
			</g>
			<g>
				<polygon fill="#527237" points="998.203,506.719 1000.148,507.369 999.963,546.713 998.018,546.063 				"/>
			</g>
			<g>
				<polygon fill="#496630" points="998.018,546.063 999.963,546.713 930.376,546.42 928.432,545.771 				"/>
			</g>
			<g enable-background="new    ">
				<defs>
					<path id="SVGID_1_" enable-background="new    " d="M1082.135,300.025l1.945,0.65c-32.014,36.124-53.951,69.446-65.831,99.949
						c-11.879,30.512-17.91,66.096-18.101,106.745l-1.945-0.65c0.191-40.648,6.222-76.233,18.102-106.745
						C1028.184,369.471,1050.121,336.149,1082.135,300.025z"/>
				</defs>
				<clipPath id="SVGID_2_">
					<use xlink:href="#SVGID_1_"  overflow="visible"/>
				</clipPath>
				<g clip-path="url(#SVGID_2_)" enable-background="new    ">
					<path fill="#4B6831" d="M1082.135,300.025l1.945,0.65c-19.717,22.248-35.611,43.433-47.688,63.55l-1.945-0.65
						C1046.524,343.458,1062.419,322.273,1082.135,300.025"/>
					<path fill="#4D6B33" d="M1034.447,363.576l1.945,0.65c-7.533,12.548-13.58,24.681-18.144,36.398
						c-0.132,0.338-0.263,0.677-0.393,1.016l-1.945-0.65c0.131-0.339,0.262-0.678,0.394-1.016
						C1020.867,388.257,1026.915,376.124,1034.447,363.576"/>
					<path fill="#4E6D34" d="M1015.911,400.99l1.945,0.65c-4.161,10.845-7.588,22.326-10.282,34.442l-1.945-0.65
						C1008.323,423.316,1011.751,411.835,1015.911,400.99"/>
					<path fill="#507036" d="M1005.629,435.432l1.945,0.65c-3.004,13.506-5.097,27.802-6.279,42.887l-1.944-0.65
						C1000.533,463.234,1002.625,448.938,1005.629,435.432"/>
					<path fill="#527237" d="M999.351,478.319l1.944,0.65c-0.719,9.175-1.101,18.641-1.147,28.399l-1.945-0.65
						C998.249,496.96,998.631,487.494,999.351,478.319"/>
				</g>
			</g>
			<g>
				<polygon fill="#527237" points="1082.387,246.463 1084.332,247.113 1084.08,300.675 1082.135,300.025 				"/>
			</g>
			<g>
				<path fill="#6A9148" d="M1082.387,246.463l-0.252,53.563c-32.014,36.124-53.951,69.446-65.83,99.949
					c-11.88,30.512-17.911,66.096-18.102,106.745l-0.185,39.344l-69.586-0.292l0.185-39.344c0.188-40.1,7.637-76.848,22.344-110.228
					c14.698-33.38,36.189-65.534,64.474-96.454l-150.071-0.631l0.252-53.563L1082.387,246.463z"/>
			</g>
		</g>
		<g enable-background="new    ">
			<g>
				<polygon fill="#56773A" points="1287.639,247.326 1289.584,247.976 1337.696,349.33 1335.751,348.68 				"/>
			</g>
			<g>
				<polygon fill="#496630" points="1284.582,547.268 1286.527,547.917 1206.24,547.58 1204.295,546.93 				"/>
			</g>
			<g>
				<polygon fill="#4C6A32" points="1336.119,444.272 1338.064,444.922 1286.527,547.917 1284.582,547.268 				"/>
			</g>
			<g>
				<polygon fill="#4B6931" points="1465.921,248.075 1467.865,248.725 1381.321,397.101 1379.376,396.451 				"/>
			</g>
			<g>
				<polygon fill="#496630" points="1471.094,548.052 1473.038,548.702 1388.633,548.347 1386.688,547.697 				"/>
			</g>
			<g>
				<polygon fill="#56783A" points="1379.376,396.451 1381.321,397.101 1473.038,548.702 1471.094,548.052 				"/>
			</g>
			<g>
				<polygon fill="#6A9148" points="1465.921,248.075 1379.376,396.451 1471.094,548.052 1386.688,547.697 1336.119,444.272 
					1284.582,547.268 1204.295,546.93 1293.117,396.088 1207.971,246.991 1287.639,247.326 1335.751,348.68 1385.633,247.737 				
					"/>
			</g>
		</g>
		<g enable-background="new    ">
			<g>
				<polygon fill="#496630" points="1679.741,308.513 1681.686,309.163 1621.362,308.909 1619.417,308.259 				"/>
			</g>
			<g>
				<polygon fill="#496630" points="1748.188,549.216 1750.134,549.866 1680.556,549.574 1678.611,548.924 				"/>
			</g>
			<g>
				<polygon fill="#527237" points="1749.619,244.939 1751.564,245.589 1750.134,549.866 1748.188,549.216 				"/>
			</g>
			<g>
				<polygon fill="#6A9148" points="1749.619,244.939 1748.188,549.216 1678.611,548.924 1679.741,308.513 1619.417,308.259 
					1619.667,255.111 				"/>
			</g>
		</g>
	</g>
</g>
</svg>
