<?xml version="1.0" encoding="utf-8"?>
<!-- Generator: Adobe Illustrator 16.0.0, SVG Export Plug-In . SVG Version: 6.00 Build 0)  -->
<!DOCTYPE svg PUBLIC "-//W3C//DTD SVG 1.1//EN" "http://www.w3.org/Graphics/SVG/1.1/DTD/svg11.dtd">
<svg version="1.1" id="Capa_1" xmlns="http://www.w3.org/2000/svg" xmlns:xlink="http://www.w3.org/1999/xlink" x="0px" y="0px"
	 width="2000px" height="2000px" viewBox="0 0 2000 2000" enable-background="new 0 0 2000 2000" xml:space="preserve">
<path fill="#E7ECED" d="M702.377,1568L404,1730.755c-17.51,9.547-33.245,21.282-47.887,34.075
	C530.075,1911.51,754.642,2000,1000,2000c243.547,0,466.68-87.17,640.15-231.85c-16-13.509-33.357-25.66-52.604-35.245
	l-319.509-159.735c-41.283-20.642-67.358-62.83-67.358-108.981V1338.83c8.98-10.227,19.245-23.358,30.227-38.868
	c43.547-61.509,76.49-129.17,99.32-200.15c40.98-12.642,71.17-50.491,71.17-95.472V870.528c0-29.435-13.095-55.736-33.435-74.151
	V602.943c0,0,39.736-301.019-367.924-301.019c-407.661,0-367.925,301.019-367.925,301.019v193.434
	c-20.377,18.415-33.434,44.717-33.434,74.151v133.812c0,35.245,18.527,66.264,46.264,84.188
	c33.434,145.547,120.981,250.302,120.981,250.302v122.264C765.887,1505.623,741.51,1546.642,702.377,1568z"/>
<g>
	<path fill="#42D583" d="M1017.094,0.151C464.906-9.283,9.585,430.717,0.151,982.905C-5.208,1296,134.34,1577.396,356.528,1764.528
		c14.528-12.68,30.113-24.302,47.434-33.736l298.378-162.755c39.132-21.357,63.51-62.377,63.51-106.98v-122.265
		c0,0-87.586-104.755-120.981-250.302c-27.698-17.924-46.265-48.905-46.265-84.188V870.49c0-29.434,13.095-55.735,33.435-74.15
		V602.905c0,0-39.736-301.019,367.924-301.019c407.661,0,367.925,301.019,367.925,301.019V796.34
		c20.377,18.415,33.434,44.717,33.434,74.15v133.812c0,44.981-30.188,82.83-71.17,95.472
		c-22.83,70.981-55.773,138.642-99.32,200.151c-10.98,15.509-21.245,28.642-30.227,38.867v125.358
		c0,46.151,26.076,88.378,67.359,108.981l319.509,159.736c19.17,9.585,36.49,21.698,52.453,35.169
		c215.472-179.697,354.679-448.377,359.849-750.943C2009.283,464.905,1569.32,9.585,1017.094,0.151z"/>
</g>
</svg>
