<svg xmlns="http://www.w3.org/2000/svg" xmlns:xlink="http://www.w3.org/1999/xlink" width="492.789" height="374.683" viewBox="0 0 492.789 374.683">
  <defs>
    <linearGradient id="linear-gradient" x1="0.5" y1="1" x2="0.5" gradientUnits="objectBoundingBox">
      <stop offset="0" stop-color="gray" stop-opacity="0.251"/>
      <stop offset="0.54" stop-color="gray" stop-opacity="0.122"/>
      <stop offset="1" stop-color="gray" stop-opacity="0.102"/>
    </linearGradient>
  </defs>
  <g id="undraw_wallet_aym5" transform="translate(-37.663 0)">
    <path id="Path_52" data-name="Path 52" d="M850.008,651.8c0,3.268-19.047,12.794-41.673,12.794S768.08,655.072,768.08,651.8s18.339-2.215,40.986-2.215S850.008,648.531,850.008,651.8Z" transform="translate(-389.445 -355.214)" fill="#504f60"/>
    <path id="Path_53" data-name="Path 53" d="M850.008,653.72c0,3.268-19.047,12.794-41.673,12.794s-40.255-9.527-40.255-12.794" transform="translate(-389.445 -357.13)" opacity="0.2"/>
    <path id="Path_54" data-name="Path 54" d="M503.339,538.466c3.672.471,7.483.77,11-.371.554-.172,1.163-.554,1.108-1.108a1.342,1.342,0,0,0-.249-.554,34.216,34.216,0,0,1-3.323-6.331.554.554,0,0,0-.2-.288.52.52,0,0,0-.355,0c-1.623.426-3.024,1.473-4.636,1.922a6.591,6.591,0,0,1-2.526.188c-.731-.083-1.728-.687-2.393-.609C502.137,533.736,503.056,536,503.339,538.466Z" transform="translate(-270.631 -301.838)" fill="#6c63ff"/>
    <path id="Path_55" data-name="Path 55" d="M626.752,524.272c2.42-1.662,4.929-3.406,6.358-5.971a1.036,1.036,0,0,0,.172-.515,1.065,1.065,0,0,0-.2-.5,20.58,20.58,0,0,0-5.168-5.577,15.073,15.073,0,0,0-2.88,2.659c-.609.642-2.293,1.662-2.31,2.642,0,.554.642,1.2.942,1.662.4.6.786,1.207,1.152,1.828C625.024,520.8,626.946,524.15,626.752,524.272Z" transform="translate(-324.596 -293.774)" fill="#6c63ff"/>
    <path id="Path_56" data-name="Path 56" d="M500.372,549.067a2.464,2.464,0,0,1-.443,1.606,2.175,2.175,0,0,1-.93.554c-5.134,1.839-11.077-.454-16.2,1.357-1.052.371-2.049.908-3.107,1.263a16.9,16.9,0,0,1-3.877.687c-1.811.172-3.633.282-5.45.332a13.106,13.106,0,0,1-4.11-.36,4.935,4.935,0,0,1-3.151-2.5,2.4,2.4,0,0,1-.155-1.778,1.915,1.915,0,0,1,.338-.554,4.857,4.857,0,0,1,1.207-.98l1.889-1.219a12.681,12.681,0,0,1,2.863-1.518c.748-.244,1.54-.349,2.3-.554,2.653-.775,4.68-2.88,6.563-4.9l2.57-2.742a2.586,2.586,0,0,1,.892-.714,2.471,2.471,0,0,1,1.108-.105,14.811,14.811,0,0,1,7.007,2.348,9.077,9.077,0,0,0,1.728,1.019,6.17,6.17,0,0,0,4.83-.6c.659-.355.515-.554.792-1.185s.953-1.036,1.54-.46a1.628,1.628,0,0,1,.366.7,19.646,19.646,0,0,1,.343,5.71,2.514,2.514,0,0,0,.111.886,5.012,5.012,0,0,0,.5.82,1.859,1.859,0,0,1,.105.21,5.633,5.633,0,0,1,.371,2.675Z" transform="translate(-253.27 -305.022)" fill="#514e7f"/>
    <path id="Path_57" data-name="Path 57" d="M500.372,556.682a2.464,2.464,0,0,1-.443,1.606,2.177,2.177,0,0,1-.93.554c-5.134,1.839-11.077-.454-16.2,1.357-1.052.371-2.049.908-3.107,1.263a16.907,16.907,0,0,1-3.877.687c-1.811.172-3.633.283-5.45.332a13.106,13.106,0,0,1-4.11-.36,4.935,4.935,0,0,1-3.151-2.5,2.4,2.4,0,0,1-.155-1.778,1.915,1.915,0,0,1,.338-.554c.3.626.515,1.457.7,1.756a3.6,3.6,0,0,0,2.4,1.734,5.972,5.972,0,0,0,2.215-.283c4.653-1.152,9.6-1.169,14.068-2.913a32.527,32.527,0,0,1,4.608-1.772,36.219,36.219,0,0,1,4.985-.4c2.625-.211,5.168-1,7.754-1.418a5.633,5.633,0,0,1,.349,2.692Z" transform="translate(-253.27 -312.637)" fill="#464353"/>
    <path id="Path_58" data-name="Path 58" d="M627.8,526.637a9.336,9.336,0,0,1-2.836,5.051A33.019,33.019,0,0,0,621,536.03c-1.329,2.033-1.927,4.553-3.656,6.27a10.028,10.028,0,0,1-2.215,1.579,15.462,15.462,0,0,1-2.852,1.313c-2.581.825-5.361.637-8.059.438a7.248,7.248,0,0,1-2.559-.493,7.7,7.7,0,0,1-1.064-.654,5.079,5.079,0,0,1-1.662-1.662,1.661,1.661,0,0,1-.161-1.207,2.835,2.835,0,0,1,.77-1.174,18.275,18.275,0,0,1,1.95-1.756,11.672,11.672,0,0,0,2.537-2.215,7.156,7.156,0,0,0,.98-2.215,19.651,19.651,0,0,0,.714-4.237,13.434,13.434,0,0,1,.294-2.836c.41-1.462,1.5-2.769,1.374-4.281a1.069,1.069,0,0,1,.055-.648.9.9,0,0,1,.51-.316,9.029,9.029,0,0,1,2.647-.615,3.085,3.085,0,0,1,2.459.964c.377.454.626,1.108,1.18,1.285a1.871,1.871,0,0,0,.842.033,7.053,7.053,0,0,0,3.877-1.191,4.835,4.835,0,0,0,1.606-3.528c0-.5-.227-1.03.554-1.108.587-.078,1.052.554,1.351.942a13.12,13.12,0,0,1,2.592,4.719,1.392,1.392,0,0,1,.493-.094,2.144,2.144,0,0,1,1.767.9,3.517,3.517,0,0,1,.482,2.393Z" transform="translate(-313.889 -296.477)" fill="#514e7f"/>
    <path id="Path_59" data-name="Path 59" d="M627.973,531.059a9.335,9.335,0,0,1-2.836,5.051,33.032,33.032,0,0,0-3.971,4.342c-1.329,2.033-1.927,4.553-3.656,6.27A10.028,10.028,0,0,1,615.3,548.3a15.463,15.463,0,0,1-2.853,1.313c-2.581.825-5.361.637-8.059.438a7.249,7.249,0,0,1-2.559-.493,7.717,7.717,0,0,1-1.064-.654,5.078,5.078,0,0,1-1.661-1.662,4.05,4.05,0,0,1,1.661-.4c1.2.067,2.071,1.2,3.218,1.545,1.634.493,3.262-.659,4.918-1.052a33.3,33.3,0,0,0,3.284-.554,8.119,8.119,0,0,0,2.431-1.473,12.381,12.381,0,0,0,2.6-2.5,16.089,16.089,0,0,0,1.523-3.041,43.469,43.469,0,0,1,3.08-5.893,4.162,4.162,0,0,1,.626-.82,8.714,8.714,0,0,1,.847-.615,6.437,6.437,0,0,0,1.955-3.567,6.243,6.243,0,0,1,.438-1.191,2.144,2.144,0,0,1,1.767.9A3.517,3.517,0,0,1,627.973,531.059Z" transform="translate(-314.058 -300.899)" fill="#464353"/>
    <path id="Path_60" data-name="Path 60" d="M439.8,210.976a11.747,11.747,0,0,1,3.323,3.877c.775,1.518,5.245,13.293,4.985,15,1.457-1.468,7.2-1.706,8.674-3.174.615-.615,3.932-3.683,4.431-4.4s4.2-2.215,4.6-2.969c1.512-2.708-10.723-12.972-9.155-15.647a.7.7,0,0,0,.127-.421.687.687,0,0,0-.2-.327,18.347,18.347,0,0,0-3.539-2.42,5.613,5.613,0,0,1-2.7-3.212,11.631,11.631,0,0,0-3.129,2.116q-3.368,2.886-6.619,5.888c-.847.787-2.487,1.833-2.88,2.958C437.252,209.458,438.991,210.317,439.8,210.976Z" transform="translate(-242.025 -153.501)" fill="#a1616a"/>
    <path id="Path_61" data-name="Path 61" d="M464.884,214.13a36.043,36.043,0,0,0-5.24,4.287,10.429,10.429,0,0,0-3.323,5.339c-.155.825-.133,1.662-.26,2.5-.554,3.628-3.689,6.286-5.073,9.682a16.782,16.782,0,0,0-.881,3.24,38.293,38.293,0,0,0-.637,6.358c-.033,2.066,1.994,3.489,2.736,5.417a33.074,33.074,0,0,1,1.318,5.888,69.76,69.76,0,0,0,3.323,10.911c2.731,7.544,11.581,28.4,14.312,35.946,8.369-2.1,30.646-6.923,38.056-11.349,2.47-1.473-17.142-18.095-14.5-19.241a.986.986,0,0,0,.742-1.39c-2.642-11.554-10.906-21.047-14.655-32.3-1.3-3.9-3.639-7.239-5.411-10.95-1.606-3.362-2.465-7.078-4.387-10.274a6.48,6.48,0,0,0-1.4-1.745,8.266,8.266,0,0,0-1.545-.936C466.961,214.983,465.942,214.667,464.884,214.13Z" transform="translate(-247.303 -161.014)" fill="#514e7f"/>
    <circle id="Ellipse_18" data-name="Ellipse 18" cx="13.099" cy="13.099" r="13.099" transform="translate(185.119 29.964)" fill="#a1616a"/>
    <path id="Path_62" data-name="Path 62" d="M466.4,206.153a4.392,4.392,0,0,1,4.924-.709,2.38,2.38,0,0,1,1.462,2.365l6.5.1a13.043,13.043,0,0,1,3.08.282,4.475,4.475,0,0,1,2.57,1.612c.078.105.166.233.3.249a.476.476,0,0,0,.3-.1,5.639,5.639,0,0,1,3.235-.554,17.474,17.474,0,0,1,9.51,4.176,3.074,3.074,0,0,1,1.108,1.379c.227.737-.044,1.662.554,2.188,0,6.093,2.094,11.786,3.489,17.724a7.95,7.95,0,0,0,1.966,2.825,11.393,11.393,0,0,1,2.1,3.135c1.185,3.079-.449,6.7.7,9.792a16.778,16.778,0,0,0,2.215,3.517,9.1,9.1,0,0,1,1.894,4.542c.05.742-.044,1.49,0,2.215a13.409,13.409,0,0,0,.554,2.941q.709,2.681,1.484,5.356c.842,2.88,1.938,5.987,4.52,7.522-6.231,1.058-12.8,2.094-18.737-.072a9.715,9.715,0,0,1-2.337-1.169c-2.143-1.529-3.179-4.143-4.1-6.613a31.228,31.228,0,0,1-2.288-8.535,9.8,9.8,0,0,0-.393-2.769c-.6-1.606-2.215-2.576-3.678-3.467a17.657,17.657,0,0,1-4.431-3.445,6.885,6.885,0,0,1-1.795-5.173c.111-.914.471-1.795.5-2.714a2.126,2.126,0,0,0-1.257-2.215c-4.536-1.374-6.7-6.746-7.71-11.376a36.523,36.523,0,0,1-.582-7.256l-.061-4.724a6.237,6.237,0,0,1-2.038-4.481,5.322,5.322,0,0,0-.028-1.484,4.093,4.093,0,0,0-1.041-1.579A14.092,14.092,0,0,1,466.4,206.153Z" transform="translate(-254.856 -156.936)" fill="#464353"/>
    <path id="Path_63" data-name="Path 63" d="M440.475,230.994c-.15,1.462.183,2.963-.144,4.4-.127.554-.349,1.108-.51,1.623a9.527,9.527,0,0,0,.6,6.165,34.342,34.342,0,0,0,3.151,5.456,8.862,8.862,0,0,1,1.008,1.889,9.777,9.777,0,0,1,.388,2.155,66.925,66.925,0,0,0,1.54,8.707c.62,2.481,7.665,23.694,9.3,25.661a2.088,2.088,0,0,0,1.263.858,2.3,2.3,0,0,0,1.074-.222l3.323-1.274a2.171,2.171,0,0,0,.77-.421,1.983,1.983,0,0,0,.476-1.307c.238-2.7-6.824-24.066-7.721-26.619-2.714-7.71-6.325-15.143-8.092-23.124-.493-2.215-.753-5.627-2.376-7.394-.67-.731-.443-.421-1.246-.039a9.093,9.093,0,0,0-1.174.615A3.844,3.844,0,0,0,440.475,230.994Z" transform="translate(-242.883 -166.801)" fill="#464353"/>
    <path id="Path_64" data-name="Path 64" d="M556.62,320.79" transform="translate(-295.106 -208.599)" fill="#464353"/>
    <path id="Path_65" data-name="Path 65" d="M458.787,242.28c.892,4.713,1.811,9.416,2.725,14.129l13-3.406c.105-1.363-.62-2.625-1.108-3.877-1.185-2.974-1.213-6.286-2.171-9.344-.726-2.326-1.988-4.464-2.67-6.807-.393-1.363-.593-2.769-.98-4.148a30.134,30.134,0,0,0-1.529-3.96,24.791,24.791,0,0,0-2.836-5.256c-1.662.62-3.434,1.34-4.381,2.841a6.137,6.137,0,0,0-.809,2.769c-.227,2.919.831,5.854.482,8.757A25.753,25.753,0,0,0,458.787,242.28Z" transform="translate(-251.109 -163.459)" fill="#42d583"/>
    <path id="Path_66" data-name="Path 66" d="M482.389,351.093c.731,2.769-.327,5.683-1.191,8.424a65.289,65.289,0,0,0-2.647,12.684,10.979,10.979,0,0,1-.654,3.207c-.41.925-1.108,1.706-1.584,2.587-1.307,2.315-1.274,5.14-.991,7.787.188,1.745.471,3.484.82,5.2.426,2.1.953,4.292.338,6.342,1.03-.227,1.728,1.108,1.662,2.155s-.4,2.215.1,3.118c1.274.465,1.285,2.215,1.246,3.572a30.049,30.049,0,0,0,.886,6.979q2.891,13.9,6.137,27.727c4.68,1.451,10.147,2.963,14.611.953a2.93,2.93,0,0,0,1.85-1.861,3.246,3.246,0,0,0-.177-1.429l-2.116-7.7a14.138,14.138,0,0,1-.759-5.694c.2-1.423.825-2.958.127-4.215-.238-.432-.615-.77-.892-1.18-1.108-1.623-.526-3.794-.438-5.76a4.563,4.563,0,0,0-.089-1.318,6.586,6.586,0,0,0-.631-1.446,22.11,22.11,0,0,1-2.437-11,2.72,2.72,0,0,0-.194-1.435,4.625,4.625,0,0,1-.36-.587,1.606,1.606,0,0,1,.116-1.058,9.693,9.693,0,0,1-1.706-1.662,2.387,2.387,0,0,0,.41-3.733,1.246,1.246,0,0,0,.593-2.143c-.271-.188-.631-.271-.825-.554-.3-.41-.055-.98.188-1.418l1.291-2.332c.964-1.734,1.18-3.877,2.215-5.539a41.513,41.513,0,0,0,3.412-7.787l3.728-10.285,2.509,2.177A7.931,7.931,0,0,1,509,366.22a10.135,10.135,0,0,1,.67,2.814c.919,5.583,4.431,10.424,5.733,15.924a10.487,10.487,0,0,0,1.185,3.556,7.744,7.744,0,0,1,.676,1.019,5.4,5.4,0,0,1,.283,1.689,7.882,7.882,0,0,0,3.323,5.649c1.235.847,2.769,1.429,3.44,2.769a5.163,5.163,0,0,0,.554,1.18c.6.72,1.889.8,2.143,1.706.144.5-.122,1.108.161,1.551a1.467,1.467,0,0,0,.615.46l3.606,1.8c4.032,2.016,6.093,6.646,9.067,10.019a21.6,21.6,0,0,1,2.714,3.589c1.285,2.3,1.878,5.184,4.049,6.646a6.125,6.125,0,0,1,1.573,1.169c.681.9.432,2.155.493,3.284s.925,2.476,2,2.132a7.88,7.88,0,0,0,0,4.182,21.047,21.047,0,0,0,12.772-5.173,5.04,5.04,0,0,0,2.077-3.489,1.251,1.251,0,0,0-.155-.692,1.978,1.978,0,0,0-.814-.615c-3.373-1.828-4.387-6.065-6.093-9.5-1.49-3.035-3.694-5.649-5.539-8.469-4.01-6.065-6.746-13.4-12.811-17.408-1.335-.881-2.886-1.662-3.556-3.118-.371-.814-.415-1.745-.709-2.587a2.244,2.244,0,0,0-1.894-1.662,11.609,11.609,0,0,0,.432-4.021,5.077,5.077,0,0,0-.2-1.734,8.428,8.428,0,0,0-.892-1.717,16.473,16.473,0,0,1-2.282-8.862,14.529,14.529,0,0,0-.155-4.78c-.244-.77-.67-1.473-.964-2.215a13.85,13.85,0,0,1-.692-4.165l-.332-5.323a26.186,26.186,0,0,0-.687-5.262c-1.108-4.132-2.215-21.44-6.009-23.39s-10.313,11.371-14.583,11.631a18.991,18.991,0,0,0-5.539,1.069c-2.841,1.063-5.223,3.046-7.544,4.985l-7.854,6.6A28.939,28.939,0,0,1,482.389,351.093Z" transform="translate(-258.766 -209.575)" fill="#464353"/>
    <path id="Path_67" data-name="Path 67" d="M417.467,166.72A9.874,9.874,0,0,1,425.088,163a17.75,17.75,0,0,1,8.424,2.116,10.407,10.407,0,0,0,2.459,1.008c1.385.282,2.924-.094,4.176.554,1.662.881,1.983,3.124,1.839,4.985s-.493,3.927.5,5.539a12.8,12.8,0,0,1,.958,1.446,4.78,4.78,0,0,1-.078,3.079,19.972,19.972,0,0,1-1.59-2.033,1.872,1.872,0,0,0-2.293-.593c-.715.482-.7,1.357-.742,2.143s-.238,1.728-.98,1.983a1.59,1.59,0,0,1-1.662-.648c-1.268-1.551-.759-4.027-2.016-5.589-.714-.886-1.905-1.318-2.564-2.249-.521-.731-.654-1.662-1.108-2.448s-1.512-1.363-2.215-.82a3,3,0,0,0-.593.792,3.406,3.406,0,0,1-4.043,1.219,6.762,6.762,0,0,0-1.75-.759,2.166,2.166,0,0,0-2,1.108,4.326,4.326,0,0,0-.554,2.315c0,1.108.2,2.287-.432,3.174a3.284,3.284,0,0,1-.886.842c-.925.593-2.215.991-3.068.316a2.3,2.3,0,0,1-.687-2.149,17.367,17.367,0,0,1,.654-2.271c.487-1.717-.15-3.65.382-5.267A16.817,16.817,0,0,1,417.467,166.72Z" transform="translate(-231.539 -138.201)" fill="#464353"/>
    <path id="Path_68" data-name="Path 68" d="M432.787,221.258a2.016,2.016,0,0,0,.122,1.2,1.911,1.911,0,0,0,.654.626,13.436,13.436,0,0,0,6.17,2,1.877,1.877,0,0,1,.853.222,1.5,1.5,0,0,1,.36,1.717,4.47,4.47,0,0,0-.393,1.828c.161,1.158,1.534,1.662,2.692,1.833a6.261,6.261,0,0,0,4.686-.914,7.238,7.238,0,0,0,1.933-2.9c3.179-7.306,4.292-15.381,7.51-22.664a4.809,4.809,0,0,0,.482-1.518,1.5,1.5,0,0,0-.6-1.4c-.6-.371-1.529-.161-1.933-.742-.2-.294-.177-.692-.354-1-.371-.659-1.346-.554-2.011-.936-.521-.277-.881-.847-1.462-.958a1.839,1.839,0,0,0-1.512.654c-1.889,1.761-2.88,4.259-3.932,6.619a77.586,77.586,0,0,1-5.627,10.435c.249-.388-1.2-3.323-1.761-3.451-.991-.2-2.26,1.54-2.8,2.188a13.936,13.936,0,0,0-3.079,7.156Z" transform="translate(-239.841 -153.664)" fill="#42d583"/>
    <path id="Path_69" data-name="Path 69" d="M464.176,200.32a2.653,2.653,0,0,0-2.055,1.03,5.86,5.86,0,0,0-.859,2.769A24.065,24.065,0,0,1,458,212.882" transform="translate(-251.109 -154.853)" opacity="0.1"/>
    <path id="Path_70" data-name="Path 70" d="M469.378,204.31a3.163,3.163,0,0,0-2.686,1.612,9.057,9.057,0,0,0-.676,2.736,15.015,15.015,0,0,1-2.686,5.755" transform="translate(-253.486 -156.633)" opacity="0.1"/>
    <path id="Path_71" data-name="Path 71" d="M462.321,378.891v-6.879a19.1,19.1,0,0,0-19.1-19.092H171.557a19.1,19.1,0,0,0-19.1,19.092V384.7Z" transform="translate(-114.797 -222.933)" fill="#33323d"/>
    <path id="Path_72" data-name="Path 72" d="M323.375,304.2s-.775,48.109,7.754,63.938,12.185,84.692,12.185,84.692,89.416,9.25,151.726-11.077,194.895-28.64,194.895-28.64L667.592,262.523s-110.38-7.078-173.172,22.869S323.375,304.2,323.375,304.2Z" transform="translate(-191.04 -182.278)" fill="#8dd070"/>
    <path id="Path_73" data-name="Path 73" d="M323.375,304.2s-.775,48.109,7.754,63.938,12.185,84.692,12.185,84.692,89.416,9.25,151.726-11.077,194.895-28.64,194.895-28.64L667.592,262.523s-110.38-7.078-173.172,22.869S323.375,304.2,323.375,304.2Z" transform="translate(-191.04 -182.278)" opacity="0.1"/>
    <path id="Path_74" data-name="Path 74" d="M358.677,330.34s-2.8,39.7,4.22,52.379,7.344,69.305,7.344,69.305,80.471,3.733,137.714-15.752,177.531-32.124,177.531-32.124L671.816,281s-99.53-1.025-157.619,26.4S358.677,330.34,358.677,330.34Z" transform="translate(-206.552 -190.843)" fill="#8dd070"/>
    <ellipse id="Ellipse_19" data-name="Ellipse 19" cx="20.892" cy="44.808" rx="20.892" ry="44.808" transform="translate(274.952 136.535) rotate(-7.1)" opacity="0.1"/>
    <path id="Path_75" data-name="Path 75" d="M582.024,130.66s-107.234,27.139-157.8,74.911S267.2,275.961,267.2,275.961s14.024,46.021,27,58.472S331.77,411.31,331.77,411.31s87.937-18.643,141-57.126S649.49,267.1,649.49,267.1Z" transform="translate(-165.986 -123.775)" opacity="0.2"/>
    <path id="Path_76" data-name="Path 76" d="M264.29,263.526S278.308,309.552,291.269,322s37.574,76.871,37.574,76.871,87.949-18.638,141.014-57.12,176.717-87.068,176.717-87.068L579.108,118.23s-107.229,27.139-157.8,74.911S264.29,263.526,264.29,263.526Z" transform="translate(-164.688 -118.23)" fill="#8dd070"/>
    <path id="Path_77" data-name="Path 77" d="M264.29,263.526S278.308,309.552,291.269,322s37.574,76.871,37.574,76.871,87.949-18.638,141.014-57.12,176.717-87.068,176.717-87.068L579.108,118.23s-107.229,27.139-157.8,74.911S264.29,263.526,264.29,263.526Z" transform="translate(-164.688 -118.23)" opacity="0.1"/>
    <path id="Path_78" data-name="Path 78" d="M308,284.564s9.521,38.643,20.094,48.558,28.247,63.695,28.247,63.695,77.73-21.147,126.232-57.259,159.12-85,159.12-85L590.9,141.5s-95.038,29.56-141.912,73.493S308,284.564,308,284.564Z" transform="translate(-184.189 -128.612)" fill="#8dd070"/>
    <ellipse id="Ellipse_20" data-name="Ellipse 20" cx="20.892" cy="44.808" rx="20.892" ry="44.808" transform="translate(239.822 115.441) rotate(-24.97)" opacity="0.1"/>
    <path id="Path_79" data-name="Path 79" d="M469.667,396.484V587.568a16.522,16.522,0,0,1-16.527,16.522H169.006a16.522,16.522,0,0,1-16.516-16.522V377.22c8.142,3.024,8.142,3.024,16.516,2.769H453.14A16.527,16.527,0,0,1,469.667,396.484Z" transform="translate(-114.81 -233.774)" opacity="0.1"/>
    <path id="Path_80" data-name="Path 80" d="M469.667,400.869V591.953a16.527,16.527,0,0,1-16.527,16.522H169.006a16.522,16.522,0,0,1-16.516-16.522V381.6c8.142,3.019,8.142,3.019,16.516,2.769H453.14a16.527,16.527,0,0,1,16.527,16.5Z" transform="translate(-114.81 -235.728)" fill="#504f60"/>
    <path id="Path_81" data-name="Path 81" d="M651.341,543.938v61.108H592.077a30.555,30.555,0,1,1,0-61.111Z" transform="translate(-297.292 -308.151)" opacity="0.1"/>
    <path id="Path_82" data-name="Path 82" d="M652.8,541v61.119H593.537a30.555,30.555,0,1,1,0-61.111Z" transform="translate(-297.944 -306.842)" fill="#33323d"/>
    <circle id="Ellipse_21" data-name="Ellipse 21" cx="11.914" cy="11.914" r="11.914" transform="translate(286.521 254.43)" opacity="0.1"/>
    <circle id="Ellipse_22" data-name="Ellipse 22" cx="11.914" cy="11.914" r="11.914" transform="translate(287.33 252.813)" fill="#42d583"/>
    <path id="Path_83" data-name="Path 83" d="M879.629,533.162c.471,5.1-3.39,10.053-2.265,15.049.244,1.069.7,2.077.87,3.157.465,2.969-1.3,5.777-2.991,8.258l-14.511,21.291a13.221,13.221,0,0,1-2.071,2.559c-2.769,2.47-6.934,2.215-10.579,2.952a18.079,18.079,0,0,0-7.089,3.135.454.454,0,0,0-.067.62,6.093,6.093,0,0,0,5.273,2.476c.382.5,0,1.241-.554,1.6-.781.554-1.85.687-2.005,2.005a2.177,2.177,0,0,0,.266,1.329,4.126,4.126,0,0,0,2.537,1.767c5.024,1.534,10.452-1.163,14.212-4.835s6.458-8.308,10.147-12.047c2.044-2.066,4.364-3.838,6.469-5.843,4.2-4,7.461-8.862,10.612-13.73a15.32,15.32,0,0,0,2.3-4.675c.4-1.7.21-3.417.659-5.062.587-2.16,2.166-3.877,3.478-5.688,2.576-3.545,4.292-7.882,3.955-12.246s-3.046-8.679-7.167-10.163a6.369,6.369,0,0,0-4.016-.244A9.539,9.539,0,0,0,883,528.078l-2.769,3.185a7.465,7.465,0,0,0-1.606,2.437,2.553,2.553,0,0,0,.554,2.708" transform="translate(-421.903 -299.53)" fill="#fbbebe"/>
    <path id="Path_84" data-name="Path 84" d="M879.629,533.162c.471,5.1-3.39,10.053-2.265,15.049.244,1.069.7,2.077.87,3.157.465,2.969-1.3,5.777-2.991,8.258l-14.511,21.291a13.221,13.221,0,0,1-2.071,2.559c-2.769,2.47-6.934,2.215-10.579,2.952a18.079,18.079,0,0,0-7.089,3.135.454.454,0,0,0-.067.62,6.093,6.093,0,0,0,5.273,2.476c.382.5,0,1.241-.554,1.6-.781.554-1.85.687-2.005,2.005a2.177,2.177,0,0,0,.266,1.329,4.126,4.126,0,0,0,2.537,1.767c5.024,1.534,10.452-1.163,14.212-4.835s6.458-8.308,10.147-12.047c2.044-2.066,4.364-3.838,6.469-5.843,4.2-4,7.461-8.862,10.612-13.73a15.32,15.32,0,0,0,2.3-4.675c.4-1.7.21-3.417.659-5.062.587-2.16,2.166-3.877,3.478-5.688,2.576-3.545,4.292-7.882,3.955-12.246s-3.046-8.679-7.167-10.163a6.369,6.369,0,0,0-4.016-.244A9.539,9.539,0,0,0,883,528.078l-2.769,3.185a7.465,7.465,0,0,0-1.606,2.437,2.553,2.553,0,0,0,.554,2.708" transform="translate(-421.903 -299.53)" opacity="0.05"/>
    <path id="Path_85" data-name="Path 85" d="M920.5,772.4c-3.168,1.933-7.117,2.049-10.8,1.6-.593-.072-1.3-.116-1.662.343-.554.665.1,1.662.775,2.177a15.978,15.978,0,0,0,7.416,3.052,48.856,48.856,0,0,0,7.256.482c6.646.116,13.293.227,19.834-.726a2.807,2.807,0,0,0,1.108-.321,2.028,2.028,0,0,0,.82-1.246,4.944,4.944,0,0,0-1.723-4.719,14.46,14.46,0,0,0-4.625-2.481l-5.76-2.243c-1.351-.526-3.517-1.922-4.985-1.811C925.4,766.7,922.792,771.058,920.5,772.4Z" transform="translate(-451.795 -407.444)" fill="#3f3d56"/>
    <path id="Path_86" data-name="Path 86" d="M920.5,772.4c-3.168,1.933-7.117,2.049-10.8,1.6-.593-.072-1.3-.116-1.662.343-.554.665.1,1.662.775,2.177a15.978,15.978,0,0,0,7.416,3.052,48.856,48.856,0,0,0,7.256.482c6.646.116,13.293.227,19.834-.726a2.807,2.807,0,0,0,1.108-.321,2.028,2.028,0,0,0,.82-1.246,4.944,4.944,0,0,0-1.723-4.719,14.46,14.46,0,0,0-4.625-2.481l-5.76-2.243c-1.351-.526-3.517-1.922-4.985-1.811C925.4,766.7,922.792,771.058,920.5,772.4Z" transform="translate(-451.795 -407.444)" opacity="0.05"/>
    <path id="Path_87" data-name="Path 87" d="M934.475,612.76c-2.4,3.19-4.88,6.873-4.287,10.823.321,2.127,1.512,4,2.387,5.971a42.121,42.121,0,0,1,2.415,8.4c.9,4.176,1.8,8.363,2.348,12.606.626,4.791-2.315,18.654-2.587,23.478a4.962,4.962,0,0,1-1.014,3.257c-.316.332-.737.6-.881,1.03a1.762,1.762,0,0,0,.194,1.219,13.4,13.4,0,0,0,7.2,6.613c3.085,1.3,10.523,3.534,13.885,3.65a2.768,2.768,0,0,0,1.307-.172,2.543,2.543,0,0,0,1.008-1.158c2.409-4.608.094-20.992.127-26.192.033-4.337,1.058-8.646.87-12.977-.155-3.478-1.108-6.879-1.423-10.346-.554-5.683.487-11.393,1.534-17.009.8-4.309,1.6-8.618,2.625-12.872a24.715,24.715,0,0,1,2.769-7.472c1.108-1.789,2.664-3.284,3.955-4.985a22.5,22.5,0,0,0,4.431-16.472c-.078-.554-8.308,2.088-9.034,2.4a28.139,28.139,0,0,0-8.053,5.179c-1.905,1.817-3.406,4.243-5.073,6.275q-3.539,4.315-6.99,8.69Q938.253,607.7,934.475,612.76Z" transform="translate(-461.728 -324.273)" fill="#464353"/>
    <path id="Path_88" data-name="Path 88" d="M934.475,612.433c-2.4,3.19-4.88,6.879-4.287,10.823.321,2.132,1.512,4.01,2.387,5.976a42.071,42.071,0,0,1,2.415,8.391c.9,4.182,1.8,8.369,2.348,12.606.626,4.8-2.315,18.654-2.587,23.478a4.977,4.977,0,0,1-1.014,3.262c-.316.327-.737.593-.881,1.025a1.756,1.756,0,0,0,.194,1.219,13.566,13.566,0,0,0,7.2,6.646c3.085,1.329,10.523,2.487,13.885,2.6a2.769,2.769,0,0,0,1.307-.172,2.5,2.5,0,0,0,1.008-1.152c2.409-4.608.094-19.939.127-25.146.033-4.342,1.058-8.646.87-12.983-.155-3.478-1.108-6.879-1.423-10.341-.554-5.688.487-11.4,1.534-17.015.8-4.3,1.6-8.613,2.625-12.872a24.715,24.715,0,0,1,2.769-7.472c1.108-1.789,2.664-3.284,3.955-4.985a22.487,22.487,0,0,0,4.431-16.472c-.078-.554-8.308,2.088-9.034,2.4a28.273,28.273,0,0,0-8.053,5.184c-1.905,1.811-3.406,4.237-5.073,6.27q-3.539,4.315-6.99,8.7Q938.253,607.365,934.475,612.433Z" transform="translate(-461.728 -324.139)" opacity="0.05"/>
    <circle id="Ellipse_23" data-name="Ellipse 23" cx="13.442" cy="13.442" r="13.442" transform="translate(432.62 191.339)" fill="#fbbebe"/>
    <path id="Path_89" data-name="Path 89" d="M901.357,484.874a17.408,17.408,0,0,0,11.16,7.787l-1.014,3.683c-1.75,6.325-3.716,13.016-8.6,17.4a8.089,8.089,0,0,0-1.362-6.292,23.719,23.719,0,0,0-4.564-4.769l-7.737-6.7a2.332,2.332,0,0,1-.554-.654,1.966,1.966,0,0,1,0-1.473c.986-3.068,3.8-4.985,6.093-7.056a21.1,21.1,0,0,0,3.063-3.567C899.385,481.03,900.344,483.245,901.357,484.874Z" transform="translate(-443.187 -280.657)" fill="#fbbebe"/>
    <path id="Path_90" data-name="Path 90" d="M855.151,454.872l-.3-2.526c2.121.554,4.137-1.252,5.494-3.118s2.614-4.065,4.68-4.846c2.509-.942,5.168.554,7.566,1.817a23.922,23.922,0,0,0,8.679,2.825,5.71,5.71,0,0,1,1.435.233c1.562.554,2.3,2.515,2.531,4.292s.166,3.667.936,5.251c.554,1.2,1.584,2.094,2.215,3.279,1.662,3.179.055,7.527,1.789,10.645l-4.309-3.949c-.393-.36-.947-.737-1.385-.432-.343.244-.371.77-.51,1.191a2.262,2.262,0,0,1-3.068,1.108,8.793,8.793,0,0,1-2.769-2.509,16.81,16.81,0,0,0-6.835-5.184,8.773,8.773,0,0,0-7.2.476c-2.01,1.135-3.484,3.783-5.948,3.877-3.379.127-4.785-6.165-6.347-8.651a3.046,3.046,0,0,0,.886-3.811C852.913,454.744,855.1,454.484,855.151,454.872Z" transform="translate(-426.796 -263.605)" fill="#464353"/>
    <path id="Path_91" data-name="Path 91" d="M554.148,319.1a26.154,26.154,0,0,0-2.985,3.135,6.275,6.275,0,0,0-1.374,4.027,2.06,2.06,0,0,0,.388,1.18,1,1,0,0,0,1.108.338,1.491,1.491,0,0,0,.554-.487,26.733,26.733,0,0,1,1.861-2.016c.238-.238.554-.487.875-.4a.935.935,0,0,1,.377.249,2.547,2.547,0,0,1,.781,1.219,2.871,2.871,0,0,1-.858,2.359,6.045,6.045,0,0,0-1.446,2.138.947.947,0,0,0,0,.687,1.03,1.03,0,0,0,.432.366,6.181,6.181,0,0,0,5.228.343c1.108-.449,2.094-1.219,3.235-1.617a7.479,7.479,0,0,0,1.429-.554,2.969,2.969,0,0,0,1.268-1.9,7.832,7.832,0,0,0,.083-2.332,26.813,26.813,0,0,0-1.905-8.768,1.109,1.109,0,0,0-.321-.465,1.024,1.024,0,0,0-.554-.15c-1.418-.15-3.744-.875-5.112-.349A3.612,3.612,0,0,0,556,317.183C555.749,317.465,554.148,318.733,554.148,319.1Z" transform="translate(-292.058 -206.426)" fill="#a1616a"/>
    <path id="Path_92" data-name="Path 92" d="M540.832,277.716c0-1.351-1.662-4.614.98-4.83,0-1.446-2.044-2.343-1.661-3.877.122-.51.554-.925.6-1.446.166-1.479-2.5-2.282-2.06-3.7.166-.554.753-.875.881-1.423.3-1.279-1.988-1.85-2.033-3.163,0-.443.249-.859.227-1.3,0-.554-.482-.975-.748-1.457-.692-1.235-.354-3.146-1.617-3.783.836.072,1.108-1.169.764-1.927s-1.047-1.418-1.052-2.26a3.41,3.41,0,0,0,0-.919c-.233-.809-1.556-.875-1.778-1.662a7.074,7.074,0,0,1-.028-.908c-.089-.626-.731-1.025-1.335-1.2a5.444,5.444,0,0,1-1.783-.637c-.388-.294-.836-.781-1.252-.554-.155.094-.233.271-.349.4-.5.582-1.451.327-2.077-.1a8.53,8.53,0,0,1-3.163-5.71c-.393-2.2-.382-4.47-.875-6.646a14.2,14.2,0,0,0-.6-1.994,10.492,10.492,0,0,1-.93-1.983c-.1-1.274,2.537-.4,3.539-.277a15.762,15.762,0,0,1,2.875.554,30.735,30.735,0,0,1,2.941,1.291c4,1.767,8.829,1.983,12.041,4.952,1.058.975,1.95,2.254,3.323,2.7a15.036,15.036,0,0,1,1.861.482c1.523.714,1.761,2.736,2.592,4.2a8.23,8.23,0,0,1,.681,1.219,4.693,4.693,0,0,1,.222,1.551l.116,3.838a141.555,141.555,0,0,1-.31,19.269c-.222,2.11-.554,4.281.072,6.309.166.554.4,1.075.554,1.634a9.968,9.968,0,0,1,.211,1.994l.089,2.487a.775.775,0,0,1-.122.554.8.8,0,0,1-.67.161c-3.462-.31-6.962-2.26-10.23-1.08" transform="translate(-279.19 -166.289)" fill="#464353"/>
    <ellipse id="Ellipse_24" data-name="Ellipse 24" cx="40.964" cy="5.921" rx="40.964" ry="5.921" transform="translate(378.651 290.669)" fill="#504f60"/>
    <path id="Path_93" data-name="Path 93" d="M803.074,440.786c-.72-3.085-1.169-5.793-1.169-5.793a11.938,11.938,0,0,0-1.34-5.877v-.842h0v-6.2a21.144,21.144,0,0,1,1.568-3.251c1.108-1.95,0-9.094,0-9.094S798,399.65,799,393.259s-8.5-28.38-8.5-28.38a28.024,28.024,0,0,1,.892-6.281,4.793,4.793,0,0,0,.122-1.318v-.111c-.144-4.215-3.478-12.113-3.478-12.113L788.485,330s2.127-8.862-1.34-20.8c-1.213-4.16-1.988-7.488-2.481-10.058-.055-.288-.111-.554-.155-.836,7.139-1.108,12.595-1.994,12.595-1.994s-4.143-17.331-6.94-20.366-5.035-12.567-5.035-12.567-1.457-12.235.9-15.813,2.686-9.748,2.686-9.748,5.367-3.877,6.043-5.633a28.735,28.735,0,0,0,1.789-7.688c0-2.055-.67-3.877-.449-4.985s-1.568-5.2-.67-7.15a5.247,5.247,0,0,0,.354-1.878.247.247,0,0,0,0-.055h0a26.315,26.315,0,0,0-.471-5.085,14.428,14.428,0,0,0-5.317-2.841l-.116-.465-.3-1.218a5.894,5.894,0,0,0-.526-.31v-.443l-.05-1.761.842-3.955c1.662-6.879-7.527-7.9-7.527-7.9a4.846,4.846,0,0,0-2.6-2.282c-1.844-.648-.3,10.346.554,11.077a43.322,43.322,0,0,1,3.622,5.672h0l.155.277a3.872,3.872,0,0,0-.421.443l.349,2.387.055.366a9.907,9.907,0,0,0-1.468,2.5,5.389,5.389,0,0,1,1.346,3.877,12.418,12.418,0,0,0,.554,4.763c-.1-.116-1.279-1.39-2.459-1.08s-4.475,1.3-4.475,1.3-2.459.432-2.216.975-1.662,2.924-1.662,2.924l-6.613-6.27c-.066-.188-.138-.377-.194-.554a15.239,15.239,0,0,1-.554-2.769,15.129,15.129,0,0,0,2.116-.67,4.564,4.564,0,0,0,1.828-1.174,7.087,7.087,0,0,0,1.069-2.852,41.951,41.951,0,0,1,2.454-5.472,17.79,17.79,0,0,0,1.246-9.848,6.425,6.425,0,0,0-1.014-2.88c-1.08-1.484-3.041-2.088-4.464-3.273s-2.343-3-4-3.877a7.942,7.942,0,0,0-5.018-.432,27.045,27.045,0,0,0-9.377,3.412c-.964.554-2.027,1.235-3.135,1.03a4.093,4.093,0,0,1-2.26-1.662.562.562,0,0,1,.028-.089.554.554,0,0,1-.072-.089,11.683,11.683,0,0,0-1.03,4.952,6.092,6.092,0,0,0,.033.792v.5h0a1.262,1.262,0,0,1-.05.349,2.519,2.519,0,0,1-.62.892,5.985,5.985,0,0,0-.554.737.912.912,0,0,1,.089-.271,3.937,3.937,0,0,0-.687,2.088,2.132,2.132,0,0,0,.5,1.5,7.2,7.2,0,0,0,1.08.864,12.6,12.6,0,0,0-.2,2.215,12.8,12.8,0,0,0,6.237,10.917c.078.183.15.371.222.554a15.77,15.77,0,0,1,1.2,7.2,3.375,3.375,0,0,1-.078.521c-.028.172-.166.183-.238.277h0s-10.928.111-13.5-2.215-6.491,5.688-6.491,5.688-3.916.759-4.7,0-5.367-.105-5.367-.105a9.876,9.876,0,0,0-6.829-2.492,20.044,20.044,0,0,0-4.985-2.769h0l-.122-.044h0a5.583,5.583,0,0,0-2.465-.31s-5.372-4.431-6.94-6.824-9.028-11.227-9.061-11.266V195.5l-.083-1.285a4.6,4.6,0,0,1-.67.055c-.039-.127-.094-.277-.15-.449a24.778,24.778,0,0,0-1.584-3.639s0-1.623.471-2.033-.194-6.364-.194-6.364-4.841-11.315-9.178-2.869c0,0-8.2,5.467-1.318,11.836,0,0,2.769,1.329,3.135,2.382.255.681,1.185,2.592,1.811,3.877l.282.554-.078.066.1,1.063.044.41c-1.3.737-2.177,1.468-1.961,2.016a12.115,12.115,0,0,1,.781,2.924s9.515,11.919,10.745,17.009c0,0,25.517,15.165,33.908,16.245l-1.484,7.56a60.324,60.324,0,0,0-.332,6.176c.111,1.623-1.008,8.989-1.008,8.989s-1.457,10.834-2.686,12.351-1.008,8.014-1.008,8.014A54.756,54.756,0,0,1,719,289.6a23.518,23.518,0,0,0-.338,9.211s-4.248,9.748,5.932,3.14c0,0,4.985-.31,10.756-.51v.554c0,.742,0,1.545-.039,2.387-.078,5.583-.111,13.293.144,19.1.449,10.291,3.583,30.657,3.583,30.657v10.252a13.955,13.955,0,0,0-.3,2.924,19.032,19.032,0,0,0,2.769,10.241l.786,6.824s1.839,4.5,1.872,7.2a3.768,3.768,0,0,1-.078.648A4.359,4.359,0,0,0,744,393.27c-.105,3.1,1.761,10.523,1.761,10.523s.111,7.472,1.23,7.909c.958.371-1.279,4.3-1.944,5.433a1.55,1.55,0,0,1-.039-.211l-.138.222a5.3,5.3,0,0,0-.349,1.894,2.714,2.714,0,0,0,1.241,2.625c2.127,1.3,3.268,2.382,1.462,2.814a18.811,18.811,0,0,0-1.972.415.852.852,0,0,0-.094-.249,1.185,1.185,0,0,0-.737,1.307,5.538,5.538,0,0,0,.659,2.515,27.431,27.431,0,0,0,3.03,5.539l.859-.094a4.189,4.189,0,0,1-.5.925,3.567,3.567,0,0,1-1.263,1.108,3.911,3.911,0,0,1-1.534.526,4.32,4.32,0,0,0-3.168,1.54c-1.108,1.446-1.817,3.412.388,5.14l8,2.769s13.769,1.789,13.038-1.3-1.174-5.793-1.174-5.793a12.212,12.212,0,0,0-1.108-5.478,7.119,7.119,0,0,0-.487-.809l.487-.05s1.008-6.829,2.348-8.125c.31-.3.382-.554.31-.709.138-.371-.216-.587-.665-.714l-.1.271a6.531,6.531,0,0,0-1.335-.15s-.449-3.572,1.008-4.874a1.38,1.38,0,0,0,.282-1.063,5.711,5.711,0,0,0-.155-1.457.709.709,0,0,1-.05.089,52.469,52.469,0,0,0-3.212-8.4s-.111-3.246.786-4.547-.116-17.657-.116-17.657.338-7.9-.67-11.587,1.23-8.02,1.23-8.02v-.288l-.127-1.246a.317.317,0,0,0,0,.078c-.227-2.094-.654-5.888-.969-7.638-.449-2.492.116-14.4.116-14.4l2.01-5.1,3.584,8.779,3.805,11.7a9.994,9.994,0,0,1,1.927,4.985v.366a6.4,6.4,0,0,0-.044.781,6.957,6.957,0,0,0,1.158,4.171s1.008,5.539,2.576,6.929,1.567,4.115,1.567,4.115,1.9,8.02,2.769,9.416c.753,1.185.792,4.431.786,5.445h0v.288s.266,2.869.255,5.273v.858a.242.242,0,0,0,0-.061,8.345,8.345,0,0,1-.233,1.95l-.033.111a1.411,1.411,0,0,1,.039-.4,20.353,20.353,0,0,0-.554,4.985c-.05,2.88.388,6.292,2.132,8.308,3.024,3.467,4.924,3.035,4.924,3.035s-1.451,4.331-3.246,5.2a.84.84,0,0,0-.188.122,1.868,1.868,0,0,0-.044-.255,2.11,2.11,0,0,0-.554,1.617,11.618,11.618,0,0,0,2.215,6.419,3.616,3.616,0,0,0,1.512.886,2.4,2.4,0,0,1-.282.172,6.016,6.016,0,0,1-.615.294,3.229,3.229,0,0,1-.914.238,4.265,4.265,0,0,0-3.168,1.54c-1.108,1.44-1.817,3.406.388,5.134l8,2.769S803.794,443.871,803.074,440.786Z" transform="translate(-348.217 -143.908)" fill="url(#linear-gradient)"/>
    <path id="Path_94" data-name="Path 94" d="M803.418,651.247l-7.754-2.769c-2.138-1.728-1.457-3.694-.377-5.14a4.143,4.143,0,0,1,3.068-1.54,3.677,3.677,0,0,0,1.479-.526,3.545,3.545,0,0,0,1.23-1.108,5.72,5.72,0,0,0,.881-3s8.507-2.492,10.834,0a6.3,6.3,0,0,1,1.03,1.512,12.655,12.655,0,0,1,1.108,5.478s.432,2.7,1.135,5.793S803.418,651.247,803.418,651.247Z" transform="translate(-401.128 -349.251)" fill="#2d293d"/>
    <path id="Path_95" data-name="Path 95" d="M871.858,644.338l-7.754-2.769c-2.138-1.728-1.457-3.694-.377-5.134a4.093,4.093,0,0,1,3.063-1.54,2.873,2.873,0,0,0,.886-.238,5.872,5.872,0,0,0,.6-.294c2.166-1.191,2.11-4.115,2.11-4.115s8.5-2.492,10.834,0a6.137,6.137,0,0,1,.814,1.108,12.308,12.308,0,0,1,1.3,5.882s.432,2.708,1.108,5.793S871.858,644.338,871.858,644.338Z" transform="translate(-431.661 -346.164)" fill="#2d293d"/>
    <path id="Path_96" data-name="Path 96" d="M818.269,637.157a6.3,6.3,0,0,1,1.03,1.512h0l-12.739,1.479a5.72,5.72,0,0,0,.881-3S815.943,634.664,818.269,637.157Z" transform="translate(-406.613 -349.245)" opacity="0.1"/>
    <path id="Path_97" data-name="Path 97" d="M886.056,631.375v2.387c-1.983,3.262-11.57,2.548-14.356.914a5.86,5.86,0,0,0,.6-.294c2.166-1.191,2.11-4.115,2.11-4.115s8.5-2.492,10.834,0A6.132,6.132,0,0,1,886.056,631.375Z" transform="translate(-435.674 -346.173)" opacity="0.1"/>
    <path id="Path_98" data-name="Path 98" d="M848.2,512.581a21.711,21.711,0,0,0-1.512,3.251v8.557c-2.171,3.572-13.431,2.382-14.954.432s-3.113-7.023-1.4-7.9,3.14-5.2,3.14-5.2-1.844.432-4.769-3.035-2.055-11.155-1.512-12.994,0-8.014,0-8.014.111-4.337-.753-5.744-2.708-9.416-2.708-9.416,0-2.708-1.518-4.115-2.492-6.934-2.492-6.934a7.106,7.106,0,0,1-1.08-4.658c.321-2.708-1.844-5.633-1.844-5.633l-3.683-11.7-3.467-8.773-1.95,5.09s-.554,11.914-.105,14.4,1.108,9.1,1.108,9.1-2.166,4.331-1.191,8.014.62,11.6.62,11.6.975,16.35.105,17.652-.759,4.553-.759,4.553,4.431,9.527,3.035,10.828-.975,4.874-.975,4.874,3.03,0,1.734,1.3-2.276,8.125-2.276,8.125l-13.1,1.534a27.241,27.241,0,0,1-2.93-5.539c-1.734-4.027.321-3.572,2.066-4.01s.643-1.512-1.418-2.814-.864-4.226-.864-4.226,3.14-5.306,2.055-5.738-1.191-7.909-1.191-7.909-2.166-8.862-1.623-11.266-1.734-8.12-1.734-8.12l-.759-6.824a18.776,18.776,0,0,1-2.382-12.894V447.906s-3.035-20.36-3.467-30.651c-.277-6.591-.2-15.586-.111-21.2.055-3.146.111-5.234.111-5.234l46.791-4.874a39.09,39.09,0,0,0,.847,6.951c.482,2.57,1.23,5.9,2.4,10.058,3.356,11.914,1.3,20.792,1.3,20.792l-.437,15.06s4.115,10.069,3.251,13.536a28.874,28.874,0,0,0-.875,6.292s9.205,21.988,8.23,28.38,3.03,16.466,3.03,16.466S849.284,510.631,848.2,512.581Z" transform="translate(-396.303 -237.669)" fill="#464353"/>
    <path id="Path_99" data-name="Path 99" d="M852.05,511.17l14.245-1.9S858.226,517.506,852.05,511.17Z" transform="translate(-426.907 -292.686)" opacity="0.05"/>
    <path id="Path_100" data-name="Path 100" d="M871.958,484.14s.487,5.04-2.6,6.934C869.36,491.074,874.882,490.21,871.958,484.14Z" transform="translate(-434.63 -281.475)" opacity="0.1"/>
    <path id="Path_101" data-name="Path 101" d="M858.907,455.2S847,465,842.667,464.189,858.907,455.2,858.907,455.2Z" transform="translate(-422.454 -268.563)" opacity="0.1"/>
    <path id="Path_102" data-name="Path 102" d="M812.661,521s-9.045,2.055-9.316,5.688S812.661,521,812.661,521Z" transform="translate(-405.176 -297.919)" opacity="0.1"/>
    <path id="Path_103" data-name="Path 103" d="M815.868,602.56s-12.778,2.382-9.15,4a62.036,62.036,0,0,0,9.588,2.924S820.431,609.7,815.868,602.56Z" transform="translate(-406.394 -334.306)" opacity="0.05"/>
    <g id="Group_7" data-name="Group 7" transform="translate(387.147 152.817)" opacity="0.05">
      <path id="Path_104" data-name="Path 104" d="M801.256,612.96a2.52,2.52,0,0,1-1.169-1.85l-.133.227s-1.191,2.924.87,4.22c.233.15.46.3.665.443.382-.072.792-.127,1.185-.227C804.419,615.342,803.316,614.261,801.256,612.96Z" transform="translate(-790.66 -490.938)"/>
      <path id="Path_105" data-name="Path 105" d="M831.818,611.1c.354-.321.343-1.152.127-2.216a6.228,6.228,0,0,0-.726,3.135A2.7,2.7,0,0,1,831.818,611.1Z" transform="translate(-804.761 -489.943)"/>
      <path id="Path_106" data-name="Path 106" d="M828.054,515.59a14.768,14.768,0,0,0-.864,3.982,16.056,16.056,0,0,1,.991-2.736Z" transform="translate(-802.963 -448.323)"/>
      <path id="Path_107" data-name="Path 107" d="M881.4,504.375a5.076,5.076,0,0,0,.116-1.185c-.161.809-.271,1.556-.354,2.215C881.232,505.068,881.31,504.746,881.4,504.375Z" transform="translate(-827.041 -442.791)"/>
      <path id="Path_108" data-name="Path 108" d="M827.955,583.179a6.939,6.939,0,0,0,.321-2.409,8.181,8.181,0,0,0-.626,3.041A2.911,2.911,0,0,1,827.955,583.179Z" transform="translate(-803.168 -477.402)"/>
      <path id="Path_109" data-name="Path 109" d="M818.005,622a42.992,42.992,0,0,0-1.49,6.646l-13.1,1.512a27.243,27.243,0,0,1-2.93-5.539,10,10,0,0,1-.371-.953c-.786.36-1.108,1.174-.067,3.55a27.687,27.687,0,0,0,2.935,5.539l13.1-1.518s.975-6.824,2.271-8.125C819.019,622.487,818.609,622.161,818.005,622Z" transform="translate(-790.56 -495.796)"/>
      <path id="Path_110" data-name="Path 110" d="M793.613,500.892s.105,7.472,1.191,7.9h0c.554-1.235.914-2.409.427-2.6-1.108-.432-1.191-7.909-1.191-7.909s-2.166-8.862-1.623-11.266-1.734-8.12-1.734-8.12l-.759-6.824a18.776,18.776,0,0,1-2.382-12.894V448.657s-3.035-20.36-3.467-30.651c-.277-6.591-.2-15.586-.111-21.2,0-1.014.033-1.911.05-2.67l-.371.039s-.061,2.083-.111,5.234c-.089,5.611-.172,14.605.111,21.191.432,10.291,3.462,30.657,3.462,30.657v10.523a18.787,18.787,0,0,0,2.387,12.888l.753,6.824s2.276,5.738,1.734,8.125S793.613,500.892,793.613,500.892Z" transform="translate(-783.448 -394.14)"/>
      <path id="Path_111" data-name="Path 111" d="M869.335,627.315a12.666,12.666,0,0,1-2.077-5.145c-1.335,1.207.2,5.893,1.662,7.754,1.512,1.95,12.778,3.14,14.954-.438v-2.06C880.922,630.323,870.764,629.16,869.335,627.315Z" transform="translate(-820.61 -495.872)"/>
      <path id="Path_112" data-name="Path 112" d="M899.918,609.3a21.9,21.9,0,0,0-1.518,3.251v1.534a22.709,22.709,0,0,1,1.108-2.171,6.647,6.647,0,0,0,.476-2.686S899.934,609.28,899.918,609.3Z" transform="translate(-834.732 -490.099)"/>
      <path id="Path_113" data-name="Path 113" d="M867.623,599.557a21.4,21.4,0,0,0,1.069-2.575s-1.844.432-4.769-3.035c-2.127-2.52-2.249-7.283-1.944-10.4-.554,1.844-1.412,9.532,1.512,13C865.4,598.815,866.847,599.413,867.623,599.557Z" transform="translate(-818.233 -478.642)"/>
      <path id="Path_114" data-name="Path 114" d="M847.011,521.089a57.724,57.724,0,0,1,.216,6.419,8.773,8.773,0,0,1,.222-1c.554-1.844,0-8.014,0-8.014s.111-4.337-.759-5.744-2.681-9.427-2.681-9.427,0-2.708-1.518-4.115S840,492.272,840,492.272a7.128,7.128,0,0,1-1.108-4.658c.327-2.708-1.839-5.633-1.839-5.633l-3.683-11.7L829.9,461.51l-1.955,5.1s0,.642-.067,1.662l1.584-4.137,3.467,8.757,3.683,11.7s2.166,2.924,1.839,5.633a7.128,7.128,0,0,0,1.108,4.658s.975,5.539,2.492,6.934,1.512,4.115,1.512,4.115,1.844,8.014,2.708,9.416S847.011,521.089,847.011,521.089Z" transform="translate(-803.271 -424.196)"/>
    </g>
    <path id="Path_115" data-name="Path 115" d="M870.266,201.062l-.814,3.955.05,1.761.033,1.3-4.52.465-.5-.936h0a41.975,41.975,0,0,0-3.506-5.672c-.836-.7-2.326-11.7-.554-11.044a4.725,4.725,0,0,1,2.515,2.276S871.866,194.183,870.266,201.062Z" transform="translate(-430.285 -150.632)" fill="#ffcdd3"/>
    <path id="Path_116" data-name="Path 116" d="M873.474,220.47l-4.52.465-.5-.936h0a3.982,3.982,0,0,1,4.985-.82Z" transform="translate(-434.224 -163.028)" opacity="0.1"/>
    <path id="Path_117" data-name="Path 117" d="M874.4,222.944l-5.96,1.379-.127-.886-.338-2.387a4.1,4.1,0,0,1,5.771-.786l.3,1.213Z" transform="translate(-434.014 -163.359)" fill="#6c63ff"/>
    <path id="Path_118" data-name="Path 118" d="M693.714,194.747l-6.364,3.412-.554-1.2c-.6-1.268-1.506-3.179-1.756-3.877-.377-1.052-3.03-2.382-3.03-2.382-6.646-6.364,1.274-11.836,1.274-11.836,4.2-8.446,8.862,2.869,8.862,2.869s.654,5.965.194,6.364-.46,2.033-.46,2.033a25,25,0,0,1,1.534,3.639C693.608,194.376,693.714,194.747,693.714,194.747Z" transform="translate(-349.862 -143.885)" fill="#ffcdd3"/>
    <path id="Path_119" data-name="Path 119" d="M699.708,209.25l-6.364,3.412-.554-1.2c.9-.753,4.082-3.323,5.129-3.218a7.667,7.667,0,0,0,1.507.039C699.6,208.879,699.708,209.25,699.708,209.25Z" transform="translate(-355.856 -158.388)" opacity="0.1"/>
    <path id="Path_120" data-name="Path 120" d="M700.494,211.524l-7.15,3.523-.144-1.534-.1-1.063s4.143-3.55,5.367-3.412a6.509,6.509,0,0,0,1.867,0l.083,1.285Z" transform="translate(-355.994 -158.74)" fill="#6c63ff"/>
    <path id="Path_121" data-name="Path 121" d="M826.55,237.248s-31.172,3.517-25.345,1.623c4.054-1.324,5.666-3.877,6-6.757a16.231,16.231,0,0,0-1.158-7.2,31.4,31.4,0,0,0-2.769-5.633s23.816-13.1,19.058-1.191a19.209,19.209,0,0,0-1.351,5.644,15.944,15.944,0,0,0,.615,5.716,17.02,17.02,0,0,0,4.946,7.8Z" transform="translate(-403.9 -160.549)" fill="#ffcdd3"/>
    <path id="Path_122" data-name="Path 122" d="M824.582,218.06a19.2,19.2,0,0,0-1.351,5.644c-2.243,1.889-4.7,1.761-7.865,1.761-2.426,0-5.118.587-7.056-.582a31.393,31.393,0,0,0-2.769-5.633S829.351,206.147,824.582,218.06Z" transform="translate(-406.158 -160.536)" opacity="0.1"/>
    <circle id="Ellipse_25" data-name="Ellipse 25" cx="12.888" cy="12.888" r="12.888" transform="translate(395.899 39.984)" fill="#ffcdd3"/>
    <path id="Path_123" data-name="Path 123" d="M826.55,249.332s-31.172,3.517-25.345,1.623c4.054-1.324,5.666-3.877,6-6.757,1.551-1.662,4.669-2.9,6.646-3.539a9.327,9.327,0,0,1,5.649-.094,8.032,8.032,0,0,1,2.055.953A17.019,17.019,0,0,0,826.55,249.332Z" transform="translate(-403.9 -172.632)" opacity="0.1"/>
    <path id="Path_124" data-name="Path 124" d="M874.677,224.459l-5.96,1.379-.127-.886a5.273,5.273,0,0,1,5.732-1.961Z" transform="translate(-434.286 -164.874)" opacity="0.1"/>
    <path id="Path_125" data-name="Path 125" d="M700.574,212.557l-7.15,3.523-.144-1.534a52.15,52.15,0,0,1,7.2-3.2Z" transform="translate(-356.075 -159.774)" opacity="0.1"/>
    <path id="Path_126" data-name="Path 126" d="M831.349,392.921c-12.08,1.927-29.25,4.387-31.975,3.556-2.265-.687-9.488-.615-15.774-.4.055-3.146.111-5.234.111-5.234L830.5,385.97A39.1,39.1,0,0,0,831.349,392.921Z" transform="translate(-396.369 -237.678)" opacity="0.1"/>
    <path id="Path_127" data-name="Path 127" d="M801.585,312.525s-39.751,6.824-44.016,5.539-26.17.105-26.17.105c-9.859,6.608-5.744-3.14-5.744-3.14a24.233,24.233,0,0,1,.327-9.205,56.238,56.238,0,0,0,1.634-9.216s-.216-6.5.975-8.02,2.6-12.346,2.6-12.346,1.08-7.366.975-8.989.321-6.176.321-6.176l1.412-7.582c-8.125-1.08-32.822-16.245-32.822-16.245-1.191-5.09-10.4-17-10.4-17a12.533,12.533,0,0,0-.759-2.924c-.648-1.734,9.1-5.2,9.1-5.2s7.256,8.862,8.773,11.266,6.713,6.824,6.713,6.824a5.223,5.223,0,0,1,2.382.31l.127.039h0a19.308,19.308,0,0,1,4.846,2.769,9.416,9.416,0,0,1,6.608,2.492s4.431-.654,5.2.105,4.547,0,4.547,0,3.789-8.014,6.281-5.688,13.066,2.215,13.066,2.215c1.407-1.872,4.835-3.212,6.979-3.877a9.366,9.366,0,0,1,5.649-.094,7.165,7.165,0,0,1,2.215,1.108l6.43,6.281s1.839-2.387,1.623-2.924,2.166-.975,2.166-.975,3.14-.975,4.331-1.3,2.282.964,2.382,1.08a12.949,12.949,0,0,1-.554-4.763,5.627,5.627,0,0,0-1.3-3.877c3.788-9.316,12.346-1.518,12.346-1.518s.975,5.09.111,7.04.864,6.065.648,7.15.438,2.924.438,4.985a30.456,30.456,0,0,1-1.734,7.688c-.626,1.734-5.849,5.633-5.849,5.633s-.327,6.176-2.6,9.748S790,279.625,790,279.625s2.166,9.532,4.874,12.567S801.585,312.525,801.585,312.525Z" transform="translate(-354.564 -160.117)" fill="#3f3d56"/>
    <path id="Path_128" data-name="Path 128" d="M782.567,259.389s-1.191-3.572-2.276-3.877a25.055,25.055,0,0,1-3.14-1.407l.7-1.335s4.065,1.108,4.719,2.31S782.567,259.389,782.567,259.389Z" transform="translate(-393.492 -178.253)" opacity="0.1"/>
    <path id="Path_129" data-name="Path 129" d="M739.679,248.17c-.216,1.108-9.859,2.055-9.859,2.055l4.874-4.885h0l.122.044h0A19.312,19.312,0,0,1,739.679,248.17Z" transform="translate(-372.376 -174.938)" opacity="0.1"/>
    <circle id="Ellipse_26" data-name="Ellipse 26" cx="0.864" cy="0.864" r="0.864" transform="translate(338.546 57.502)" fill="#575988"/>
    <circle id="Ellipse_27" data-name="Ellipse 27" cx="0.864" cy="0.864" r="0.864" transform="translate(339.653 59.236)" fill="#575988"/>
    <circle id="Ellipse_28" data-name="Ellipse 28" cx="0.864" cy="0.864" r="0.864" transform="translate(340.739 60.837)" fill="#575988"/>
    <circle id="Ellipse_29" data-name="Ellipse 29" cx="0.864" cy="0.864" r="0.864" transform="translate(341.874 62.565)" fill="#575988"/>
    <circle id="Ellipse_30" data-name="Ellipse 30" cx="0.703" cy="0.703" r="0.703" transform="translate(444.135 62.631)" fill="#575988"/>
    <circle id="Ellipse_31" data-name="Ellipse 31" cx="0.703" cy="0.703" r="0.703" transform="translate(444.246 64.232)" fill="#575988"/>
    <circle id="Ellipse_32" data-name="Ellipse 32" cx="0.703" cy="0.703" r="0.703" transform="translate(444.34 65.827)" fill="#575988"/>
    <path id="Path_130" data-name="Path 130" d="M787,317.72c-.105-.127,24.315,30.706,43.268,12.888C830.284,330.614,800.337,334.674,787,317.72Z" transform="translate(-397.886 -207.229)" opacity="0.1"/>
    <path id="Path_131" data-name="Path 131" d="M761.7,346.66s14.611.4,16.14,4.6v4.376a2.8,2.8,0,0,1-2.719,0c-1.473-.8-10.307-5.284-13.42-3.124Z" transform="translate(-386.599 -220.14)" opacity="0.1"/>
    <path id="Path_132" data-name="Path 132" d="M762.19,346.66s13.974.382,15.436,4.392v4.165a2.68,2.68,0,0,1-2.6,0c-1.407-.753-9.853-5.035-12.833-2.974Z" transform="translate(-386.818 -220.14)" fill="#3f3d56"/>
    <path id="Path_133" data-name="Path 133" d="M776.1,289.38a47.012,47.012,0,0,0,5.666,9.72,38.14,38.14,0,0,0,8.862,8.568S776.344,291.385,776.1,289.38Z" transform="translate(-393.023 -194.586)" opacity="0.1"/>
    <path id="Path_134" data-name="Path 134" d="M767.47,258.73s2.437,10.523,8.718,14.1Z" transform="translate(-389.173 -180.912)" opacity="0.1"/>
    <path id="Path_135" data-name="Path 135" d="M760.545,260.647c-.061-.194-2.166,8.308,8.1,13.033C768.642,273.68,764.283,272.2,760.545,260.647Z" transform="translate(-385.987 -181.766)" opacity="0.1"/>
    <path id="Path_136" data-name="Path 136" d="M875.907,247.9c-.161,0,5.062,3.323,6.486,4.874C882.393,252.778,878.992,247.683,875.907,247.9Z" transform="translate(-437.549 -176.079)" opacity="0.1"/>
    <path id="Path_137" data-name="Path 137" d="M807.6,211.348a2.033,2.033,0,0,0,2.216,2.011c3.927.244,8.02.415,11.631-1.108a4.432,4.432,0,0,0,1.773-1.174,7.289,7.289,0,0,0,1.03-2.852,41.474,41.474,0,0,1,2.376-5.472,18.333,18.333,0,0,0,1.279-9.831,6.646,6.646,0,0,0-.986-2.875c-1.041-1.49-2.941-2.094-4.32-3.279s-2.265-3-3.877-3.877a7.444,7.444,0,0,0-4.863-.432,25.528,25.528,0,0,0-9.072,3.406c-.936.554-1.961,1.235-3.035,1.03a4.059,4.059,0,0,1-2.215-1.711,12,12,0,0,0-.925,5.622,2.414,2.414,0,0,1-.028.847,2.549,2.549,0,0,1-.6.892c-.969,1.108-1.573,2.908-.615,4.049.415.493,1.058.764,1.462,1.268.726.9.482,2.215.465,3.368a1.734,1.734,0,0,0,.288,1.141,1.662,1.662,0,0,0,1.59.382,4.326,4.326,0,0,1,1.695-.161,2.842,2.842,0,0,1,1.473,1.108C806.123,206.031,806.832,208.567,807.6,211.348Z" transform="translate(-402.293 -146.795)" fill="#2d293d"/>
    <g id="Group_8" data-name="Group 8" transform="translate(394.584 38.272)" opacity="0.1">
      <path id="Path_138" data-name="Path 138" d="M823.675,218.77a4.431,4.431,0,0,1-1.772,1.174c-3.633,1.512-7.721,1.34-11.631,1.108a2.039,2.039,0,0,1-2.221-2.016c-.764-2.769-1.468-5.312-3.284-7.621a2.847,2.847,0,0,0-1.473-1.135,4.542,4.542,0,0,0-1.695.161,1.661,1.661,0,0,1-1.59-.377,1.733,1.733,0,0,1-.288-1.141c0-1.163.26-2.465-.465-3.368-.4-.5-1.047-.775-1.462-1.274a2.526,2.526,0,0,1-.249-2.581c-.692,1.108-.986,2.5-.183,3.451.415.493,1.058.764,1.462,1.268.726.908.482,2.215.465,3.367a1.722,1.722,0,0,0,.282,1.141,1.662,1.662,0,0,0,1.6.382,4.326,4.326,0,0,1,1.695-.161,2.841,2.841,0,0,1,1.473,1.108c1.811,2.31,2.52,4.846,3.284,7.627a2.769,2.769,0,0,0,.958,1.756,2.686,2.686,0,0,0,1.219.266c3.927.244,8.02.421,11.631-1.108a4.387,4.387,0,0,0,1.772-1.174,3.386,3.386,0,0,0,.554-1.041A.273.273,0,0,1,823.675,218.77Z" transform="translate(-796.877 -193.741)"/>
      <path id="Path_139" data-name="Path 139" d="M799.971,193.578a1.9,1.9,0,0,0,.393-.654,2.413,2.413,0,0,0,0-.847,12.012,12.012,0,0,1,.6-4.664l-.072-.083a11.908,11.908,0,0,0-.925,5.616,3.994,3.994,0,0,1,0,.631Z" transform="translate(-798.241 -187.33)"/>
    </g>
    <path id="Path_140" data-name="Path 140" d="M812.08,248.652s16.1,2.138,17.546-.282" transform="translate(-409.075 -176.29)" opacity="0.1"/>
    <path id="Path_141" data-name="Path 141" d="M868.59,236.85s8.951,0,10.917,3.368" transform="translate(-434.286 -171.15)" opacity="0.1"/>
    <path id="Path_142" data-name="Path 142" d="M949.466,770.758a14.2,14.2,0,0,1-9.665,3.611c-.908,0-2.166.172-2.171,1.08a1.523,1.523,0,0,0,.266.742,8.889,8.889,0,0,0,4.985,3.916,17.618,17.618,0,0,0,6.032.382l5.9-.3c1.108-.061,2.215-.116,3.323-.255s2.315-.366,3.473-.554a45.42,45.42,0,0,1,8.591-.4,2.6,2.6,0,0,0,2.116-.554c.454-.554.222-1.612.05-2.443-.354-1.711,0-3.506-.327-5.223-.554-3.013-3.163-5.323-6.021-6.414-2.659-1.008-7.366-2.166-9.881-.482C953.482,765.629,951.859,768.581,949.466,770.758Z" transform="translate(-465.087 -405.887)" fill="#3f3d56"/>
    <path id="Path_143" data-name="Path 143" d="M960.04,584.835c.521,2.476,2.919,4.37,2.985,6.9.061,2.027-1.385,3.728-2.426,5.461a36.439,36.439,0,0,0-2.476,5.605,85.616,85.616,0,0,1-7.267,14.456c-1.385,2.215-2.935,4.581-2.62,7.156a10.722,10.722,0,0,0,1.257,3.423l4.154,8.253a23.9,23.9,0,0,1,2.121,5.212c.36,1.567.393,3.19.6,4.785.654,5.062,3.03,10.158,1.623,15.065-.122.421-.554.93-.892.637,1.374,2.564,2.476,5.145,2.371,8.053-.055,1.523-.521,3.113.039,4.531a4.96,4.96,0,0,1,.648,1.784,11.374,11.374,0,0,1-.238,1.224,2.7,2.7,0,0,0,2.071,2.515c1.113.371,2.326.343,3.451.681,2.16.648,3.705,2.509,5.539,3.8a11.792,11.792,0,0,0,6.381,2.077,1.607,1.607,0,0,0,.942-.188,1.523,1.523,0,0,0,.521-1.141,6.336,6.336,0,0,0-2.282-5.505,2.492,2.492,0,0,1-.847-.886,2.137,2.137,0,0,1-.078-.991,74.645,74.645,0,0,0-.244-13.625,20.7,20.7,0,0,1-.216-4.337,17.719,17.719,0,0,0,.349-3.606,19.145,19.145,0,0,0-1.108-3.456c-.642-2.06-.465-4.276-.554-6.43a56.4,56.4,0,0,0-1.822-11.077,8.377,8.377,0,0,0-1.723-4c-.864-.9-2.26-1.767-1.933-2.969a3.517,3.517,0,0,1,.792-1.18,4.736,4.736,0,0,0,.986-3.611,1.623,1.623,0,0,0,1.866-.875,29.2,29.2,0,0,0,14.611-16.616,5.485,5.485,0,0,1,.654-1.484,6.688,6.688,0,0,1,2.675-1.734c3.024-1.523,5.112-4.376,7.029-7.167a12.668,12.668,0,0,0,3.085-8.945l.172-6.508a3.517,3.517,0,0,0-.122-1.274,3.183,3.183,0,0,0-.7-1.03,12.512,12.512,0,0,0-6.9-3.722c-1.772-.316-3.584-.255-5.378-.4-3.478-.288-6.912-1.368-10.391-1.108-5.467.4-10.335,4.193-12.911,9.034C962.931,583.317,961.978,584.8,960.04,584.835Z" transform="translate(-469.801 -320.912)" fill="#464353"/>
    <path id="Path_144" data-name="Path 144" d="M909.914,506.764a7.271,7.271,0,0,1-.4,2.963,2.07,2.07,0,0,1-2.431,1.246c.282-.637-.465-1.363-1.163-1.285a2.177,2.177,0,0,0-1.534,1.318,4.9,4.9,0,0,0-.443,3.008c.221,1.274.958,2.5.764,3.777-.155,1.063-.936,2.121-.521,3.107a5.031,5.031,0,0,0,1,1.2,3.39,3.39,0,0,1-.36,4.652l10.479.211c-.382,1.75.4,3.539,1.3,5.1a32.124,32.124,0,0,0,23.949,15.636,2.082,2.082,0,0,0-.5,3.185,2.959,2.959,0,0,0,3.367.194,23.967,23.967,0,0,0,2.88-2.16,8.862,8.862,0,0,1,5.921-1.6c1.313.127,2.586.554,3.9.62,3.877.2,7.2-2.586,10.933-3.727,2.719-.836,5.8-.836,8.086-2.537a3.223,3.223,0,0,0,1.506-3.118,5.213,5.213,0,0,0-1.108-1.833,31.672,31.672,0,0,1-3.03-5.677,33.96,33.96,0,0,0-7.571-10.147,67.754,67.754,0,0,0-7.51-5.694,12.816,12.816,0,0,0-2.027-1.224,22.723,22.723,0,0,1-2.769-1.108c-1.23-.775-1.939-2.144-2.886-3.246-2.077-2.426-5.267-3.539-7.826-5.445-1.717-1.279-3.235-2.963-5.284-3.578-1-.3-2.055-.327-3.052-.626-2.265-.687-3.916-2.7-6.137-3.512-1.756-.642-3.694-.476-5.539-.7a12.965,12.965,0,0,1-5.788-2.2,6.87,6.87,0,0,0-1.844-1.075c-2.808-.853-3.035,4.376-3.323,6.187A59.679,59.679,0,0,0,909.914,506.764Z" transform="translate(-450.028 -285.156)" fill="#42d583"/>
    <path id="Path_145" data-name="Path 145" d="M888.454,543.124c.471,5.107-3.384,10.053-2.26,15.054.238,1.063.7,2.077.864,3.157.471,2.963-1.3,5.771-2.991,8.253l-14.511,21.3a13.393,13.393,0,0,1-2.071,2.559c-2.769,2.465-6.934,2.215-10.579,2.947a18.279,18.279,0,0,0-7.089,3.135.46.46,0,0,0-.089.637,6.092,6.092,0,0,0,5.267,2.476c.382.5,0,1.241-.526,1.6-.775.554-1.85.681-2,2.005a2.215,2.215,0,0,0,.266,1.329,4.137,4.137,0,0,0,2.537,1.761c5.024,1.54,10.451-1.163,14.212-4.835s6.458-8.308,10.147-12.041c2.044-2.071,4.365-3.838,6.469-5.843,4.2-4,7.466-8.862,10.612-13.73a15.2,15.2,0,0,0,2.3-4.675c.393-1.7.21-3.423.659-5.068.587-2.155,2.166-3.877,3.478-5.683,2.576-3.545,4.3-7.881,3.955-12.251s-3.046-8.679-7.167-10.164a6.441,6.441,0,0,0-4.016-.244,9.511,9.511,0,0,0-4.087,3.257l-2.769,3.179a7.416,7.416,0,0,0-1.556,2.442,2.553,2.553,0,0,0,.554,2.714" transform="translate(-425.831 -303.981)" fill="#fbbebe"/>
    <path id="Path_146" data-name="Path 146" d="M925.442,512.03c-1.905.111-4,.3-5.35,1.662a7.618,7.618,0,0,0-1.351,2.116c-1.307,2.664-2.581,5.45-2.675,8.419-.078,2.371.609,4.691.969,7.034.3,1.95-.46,3.938-.6,5.91a41.022,41.022,0,0,0,7.632-2.935,25.558,25.558,0,0,1,4.47-2.321c2.276-.759,6.093.554,8.258,1.606.116-1.518-1.025-4.165-.9-5.688a6.351,6.351,0,0,1,.338-1.883,11.414,11.414,0,0,1,1.147-1.822,7.455,7.455,0,0,0-.67-8.735c-1.922-2.16-4.929-2.969-7.8-3.323a33.735,33.735,0,0,0-5.445-.188" transform="translate(-455.464 -293.835)" fill="#42d583"/>
  </g>
</svg>
